<svg width="32" height="32" viewBox="0 0 32 32" fill="none" xmlns="http://www.w3.org/2000/svg">
  <circle cx="16" cy="16" r="16" fill="#0099FF"/>
  <path fill-rule="evenodd" clip-rule="evenodd" d="M18.67 23.1698C18.459 23.3804 18.1731 23.4988 17.875 23.4988C17.5769 23.4988 17.2909 23.3804 17.08 23.1698L10.705 16.7948C10.4943 16.5838 10.376 16.2979 10.376 15.9998C10.376 15.7016 10.4943 15.4157 10.705 15.2048L17.08 8.82977C17.2932 8.63105 17.5753 8.52286 17.8668 8.52801C18.1582 8.53315 18.4363 8.65122 18.6424 8.85734C18.8485 9.06346 18.9666 9.34153 18.9718 9.63299C18.9769 9.92444 18.8687 10.2065 18.67 10.4198L13.09 15.9998L18.67 21.5798C18.8807 21.7907 18.999 22.0766 18.999 22.3748C18.999 22.6729 18.8807 22.9588 18.67 23.1698Z" fill="white"/>
  </svg>
  