<svg width="375" height="81" viewBox="0 0 375 81" fill="none" xmlns="http://www.w3.org/2000/svg">
<path d="M243.009 79.7937C242.045 78.8783 190.835 77.5814 151.186 77.4289C102.495 77.3526 90.8597 76.8186 64.4763 73.6146C41.6502 70.8684 22.5296 66.9779 7.04051 61.9431L0.370553 59.8071L0.148221 29.9036L0 0H187.5H375V24.7162V49.4324L371.517 52.4838C360.623 61.7905 343.725 70.2581 327.94 74.2249C311.265 78.4968 293.923 80.0988 265.687 80.0988C253.384 80.0988 243.157 79.9462 243.009 79.7937Z" fill="#2B90D9"/>
<path d="M243.009 79.7937C242.045 78.8783 190.835 77.5814 151.186 77.4289C102.495 77.3526 90.8597 76.8186 64.4763 73.6146C41.6502 70.8684 22.5296 66.9779 7.04051 61.9431L0.370553 59.8071L0.148221 29.9036L0 0H187.5H375V24.7162V49.4324L371.517 52.4838C360.623 61.7905 343.725 70.2581 327.94 74.2249C311.265 78.4968 293.923 80.0988 265.687 80.0988C253.384 80.0988 243.157 79.9462 243.009 79.7937Z" fill="url(#paint0_linear)"/>
<defs>
<linearGradient id="paint0_linear" x1="187.5" y1="0" x2="187.5" y2="80.0988" gradientUnits="userSpaceOnUse">
<stop stop-color="#2B90D9"/>
<stop offset="1" stop-color="#53C4E8"/>
</linearGradient>
</defs>
</svg>
