<svg width="32" height="32" viewBox="0 0 32 32" fill="none" xmlns="http://www.w3.org/2000/svg">
<circle cx="16" cy="16" r="16" fill="white"/>
<path fill-rule="evenodd" clip-rule="evenodd" d="M18.67 23.17C18.459 23.3807 18.1731 23.499 17.875 23.499C17.5768 23.499 17.2909 23.3807 17.08 23.17L10.705 16.795C10.4943 16.5841 10.376 16.2981 10.376 16C10.376 15.7019 10.4943 15.416 10.705 15.205L17.08 8.83001C17.2932 8.63129 17.5753 8.52311 17.8668 8.52825C18.1582 8.53339 18.4363 8.65146 18.6424 8.85758C18.8485 9.0637 18.9666 9.34178 18.9717 9.63323C18.9769 9.92468 18.8687 10.2068 18.67 10.42L13.09 16L18.67 21.58C18.8806 21.791 18.999 22.0769 18.999 22.375C18.999 22.6731 18.8806 22.9591 18.67 23.17V23.17Z" fill="#2B90D9"/>
</svg>
