<svg width="16" height="16" viewBox="0 0 16 16" fill="none" xmlns="http://www.w3.org/2000/svg">
<g id="Iconly/Light-Outline/Show">
<g id="Show">
<path id="Fill 1" fill-rule="evenodd" clip-rule="evenodd" d="M7.99979 6.42749C7.11312 6.42749 6.39246 7.14882 6.39246 8.03549C6.39246 8.92149 7.11312 9.64216 7.99979 9.64216C8.88646 9.64216 9.60779 8.92149 9.60779 8.03549C9.60779 7.14882 8.88646 6.42749 7.99979 6.42749ZM7.99979 10.6422C6.56179 10.6422 5.39246 9.47282 5.39246 8.03549C5.39246 6.59749 6.56179 5.42749 7.99979 5.42749C9.43779 5.42749 10.6078 6.59749 10.6078 8.03549C10.6078 9.47282 9.43779 10.6422 7.99979 10.6422Z" fill="black" fill-opacity="0.3"/>
<g id="Group 5">
<mask id="mask0_3295_2333" style="mask-type:alpha" maskUnits="userSpaceOnUse" x="1" y="2" width="14" height="12">
<path id="Clip 4" fill-rule="evenodd" clip-rule="evenodd" d="M1.3335 2.66675H14.6667V13.4034H1.3335V2.66675Z" fill="white"/>
</mask>
<g mask="url(#mask0_3295_2333)">
<path id="Fill 3" fill-rule="evenodd" clip-rule="evenodd" d="M2.38001 8.03501C3.62001 10.7743 5.70868 12.403 8.00001 12.4037C10.2913 12.403 12.38 10.7743 13.62 8.03501C12.38 5.29634 10.2913 3.66768 8.00001 3.66701C5.70935 3.66768 3.62001 5.29634 2.38001 8.03501ZM8.00133 13.4037H7.99866H7.998C5.24066 13.4017 2.76466 11.469 1.374 8.23234C1.32 8.10634 1.32 7.96367 1.374 7.83767C2.76466 4.60167 5.24133 2.669 7.998 2.667C7.99933 2.66634 7.99933 2.66634 8 2.667C8.00133 2.66634 8.00133 2.66634 8.002 2.667C10.7593 2.669 13.2353 4.60167 14.626 7.83767C14.6807 7.96367 14.6807 8.10634 14.626 8.23234C13.236 11.469 10.7593 13.4017 8.002 13.4037H8.00133Z" fill="black" fill-opacity="0.3"/>
</g>
</g>
</g>
</g>
</svg>
