<svg width="16" height="16" viewBox="0 0 16 16" fill="none" xmlns="http://www.w3.org/2000/svg">
<g id="Iconly/Light-Outline/Hide">
<g id="Hide">
<path id="Fill 1" fill-rule="evenodd" clip-rule="evenodd" d="M6.50729 10.4115C6.37929 10.4115 6.25129 10.3629 6.15396 10.2649C5.66196 9.77354 5.39062 9.12021 5.39062 8.42554C5.39062 6.98554 6.56129 5.81421 7.99996 5.81421C8.69196 5.81421 9.36396 6.09354 9.84329 6.58088C10.0366 6.77821 10.0346 7.09421 9.83729 7.28754C9.64062 7.48221 9.32462 7.47888 9.13062 7.28288C8.83796 6.98488 8.42596 6.81421 7.99996 6.81421C7.11262 6.81421 6.39062 7.53688 6.39062 8.42554C6.39062 8.85288 6.55796 9.25554 6.86062 9.55821C7.05596 9.75354 7.05596 10.0695 6.86129 10.2649C6.76329 10.3629 6.63529 10.4115 6.50729 10.4115Z" fill="black" fill-opacity="0.3"/>
<path id="Fill 3" fill-rule="evenodd" clip-rule="evenodd" d="M8.37826 10.9942C8.14159 10.9942 7.93092 10.8249 7.88692 10.5836C7.83759 10.3122 8.01759 10.0516 8.28959 10.0022C8.94292 9.88357 9.46026 9.36491 9.57759 8.71091C9.62692 8.43957 9.88692 8.26091 10.1583 8.30757C10.4303 8.35624 10.6109 8.61624 10.5623 8.88824C10.3709 9.95024 9.52959 10.7929 8.46826 10.9862C8.43826 10.9916 8.40759 10.9942 8.37826 10.9942Z" fill="black" fill-opacity="0.3"/>
<g id="Group 7">
<mask id="mask0_3295_2343" style="mask-type:alpha" maskUnits="userSpaceOnUse" x="1" y="3" width="12" height="10">
<path id="Clip 6" fill-rule="evenodd" clip-rule="evenodd" d="M1.33337 3.08301H12.0575V12.4818H1.33337V3.08301Z" fill="white"/>
</mask>
<g mask="url(#mask0_3295_2343)">
<path id="Fill 5" fill-rule="evenodd" clip-rule="evenodd" d="M4.43637 12.4818C4.32837 12.4818 4.21971 12.4464 4.12771 12.3751C3.00037 11.4898 2.04771 10.1918 1.37437 8.62243C1.31971 8.49576 1.31971 8.35309 1.37437 8.22709C2.05504 6.65109 3.01371 5.34643 4.14704 4.45509C6.45771 2.62643 9.53371 2.62043 11.8677 4.46843C12.0844 4.63976 12.121 4.95443 11.9497 5.17109C11.7777 5.38643 11.4644 5.42443 11.247 5.25243C9.26971 3.68709 6.72237 3.69243 4.76637 5.24043C3.80904 5.99376 2.98704 7.09109 2.38037 8.42576C2.98104 9.75243 3.79571 10.8431 4.74571 11.5884C4.96304 11.7591 5.00037 12.0738 4.82971 12.2904C4.73104 12.4158 4.58437 12.4818 4.43637 12.4818Z" fill="black" fill-opacity="0.3"/>
</g>
</g>
<g id="Group 10">
<mask id="mask1_3295_2343" style="mask-type:alpha" maskUnits="userSpaceOnUse" x="5" y="5" width="10" height="9">
<path id="Clip 9" fill-rule="evenodd" clip-rule="evenodd" d="M5.81165 5.82751H14.6667V13.793H5.81165V5.82751Z" fill="white"/>
</mask>
<g mask="url(#mask1_3295_2343)">
<path id="Fill 8" fill-rule="evenodd" clip-rule="evenodd" d="M8.00007 13.793C7.3754 13.793 6.75407 13.6917 6.15407 13.4923C5.89207 13.405 5.75007 13.1217 5.8374 12.8597C5.92473 12.597 6.20673 12.4577 6.47007 12.543C6.96807 12.709 7.48273 12.793 8.00007 12.793C10.2854 12.793 12.3741 11.165 13.6201 8.42432C13.3161 7.75832 12.9621 7.15498 12.5661 6.62832C12.4001 6.40765 12.4441 6.09365 12.6647 5.92765C12.8847 5.76165 13.1987 5.80698 13.3647 6.02698C13.8474 6.66765 14.2714 7.40832 14.6254 8.22565C14.6807 8.35232 14.6807 8.49632 14.6254 8.62232C13.2281 11.8603 10.7514 13.793 8.00007 13.793Z" fill="black" fill-opacity="0.3"/>
</g>
</g>
<g id="Group 13">
<mask id="mask2_3295_2343" style="mask-type:alpha" maskUnits="userSpaceOnUse" x="2" y="2" width="12" height="13">
<path id="Clip 12" fill-rule="evenodd" clip-rule="evenodd" d="M2.24243 2.66699H13.7581V14.1823H2.24243V2.66699Z" fill="white"/>
</mask>
<g mask="url(#mask2_3295_2343)">
<path id="Fill 11" fill-rule="evenodd" clip-rule="evenodd" d="M2.74226 14.1823C2.61426 14.1823 2.48626 14.1337 2.38893 14.0357C2.1936 13.8403 2.1936 13.5243 2.38893 13.329L12.9049 2.813C13.1003 2.61767 13.4163 2.61767 13.6116 2.813C13.8069 3.00834 13.8069 3.325 13.6116 3.52034L3.0956 14.0357C2.99826 14.1337 2.87027 14.1823 2.74226 14.1823Z" fill="black" fill-opacity="0.3"/>
</g>
</g>
</g>
</g>
</svg>
