<svg width="375" height="414" viewBox="0 0 375 414" fill="none" xmlns="http://www.w3.org/2000/svg">
<path d="M93.375 413.989C72.55 413.575 48.35 412.84 43.425 412.496C42.375 412.427 37.775 412.243 33.225 412.106C26.3 411.899 14.275 411.21 2.6 410.384L0.125 410.2L0.05 205.111L0 0H187.5H375V206.328V412.68L372.725 412.496C371.45 412.427 362.925 412.22 353.75 412.083C344.55 411.922 332.775 411.692 327.525 411.578C311.85 411.141 260.7 410.981 246.675 411.302C229.7 411.692 216.6 412.037 204.05 412.473C169.75 413.69 160.225 413.897 127.475 413.966C110.875 414.011 95.525 414.011 93.4 413.966L93.375 413.989Z" fill="#0099FF"/>
</svg>
