<svg width="196" height="236" viewBox="0 0 196 236" fill="none" xmlns="http://www.w3.org/2000/svg">
<path d="M104.07 220.324C106.402 220.324 108.398 219.765 110.06 218.649C111.721 217.532 112.95 215.919 113.746 213.811L109.976 212.826C108.929 215.465 106.96 216.785 104.07 216.785C101.822 216.785 100.126 216.017 98.9808 214.481C97.8499 212.945 97.2704 210.913 97.2425 208.386C97.2704 205.929 97.8359 203.918 98.9389 202.354C100.042 200.777 101.752 199.988 104.07 199.988C105.438 199.988 106.66 200.351 107.735 201.077C108.81 201.803 109.585 202.822 110.06 204.135L113.746 203.025C113.146 200.986 111.98 199.38 110.248 198.208C108.531 197.035 106.486 196.448 104.112 196.448C101.85 196.448 99.9093 196.958 98.2897 197.977C96.684 198.983 95.4553 200.379 94.6036 202.166C93.7519 203.953 93.3121 206.027 93.2842 208.386C93.3121 210.69 93.7449 212.742 94.5827 214.544C95.4204 216.345 96.6351 217.762 98.2268 218.795C99.8325 219.814 101.78 220.324 104.07 220.324ZM127.879 220.324C130.127 220.324 132.06 219.821 133.68 218.816C135.314 217.811 136.57 216.408 137.45 214.606C138.343 212.805 138.79 210.725 138.79 208.365C138.79 206.034 138.35 203.974 137.471 202.187C136.605 200.386 135.355 198.983 133.722 197.977C132.088 196.958 130.14 196.448 127.879 196.448C125.673 196.448 123.753 196.951 122.119 197.956C120.486 198.948 119.222 200.337 118.328 202.124C117.435 203.911 116.988 205.992 116.988 208.365C116.988 210.697 117.421 212.763 118.286 214.565C119.166 216.366 120.423 217.776 122.056 218.795C123.69 219.814 125.631 220.324 127.879 220.324ZM127.879 216.785C125.603 216.785 123.878 216.024 122.706 214.502C121.533 212.966 120.946 210.92 120.946 208.365C120.946 205.894 121.512 203.883 122.643 202.334C123.774 200.77 125.519 199.988 127.879 199.988C130.196 199.988 131.935 200.749 133.094 202.271C134.252 203.793 134.832 205.824 134.832 208.365C134.832 210.851 134.252 212.875 133.094 214.439C131.949 216.003 130.21 216.785 127.879 216.785ZM153.119 220.324C154.655 220.324 156.009 220.045 157.182 219.486C158.369 218.914 159.374 218.132 160.198 217.141V219.696H163.528V189.537H159.779V199.129C158.969 198.291 158.006 197.635 156.889 197.16C155.772 196.686 154.508 196.448 153.098 196.448C151.004 196.448 149.196 196.972 147.674 198.019C146.166 199.052 145.007 200.47 144.197 202.271C143.387 204.072 142.982 206.103 142.982 208.365C142.982 210.627 143.387 212.659 144.197 214.46C145.007 216.261 146.166 217.692 147.674 218.753C149.196 219.8 151.011 220.324 153.119 220.324ZM153.58 216.91C152.1 216.91 150.864 216.533 149.873 215.779C148.895 215.025 148.162 214.006 147.674 212.721C147.185 211.423 146.941 209.971 146.941 208.365C146.941 206.774 147.178 205.335 147.653 204.051C148.142 202.766 148.882 201.747 149.873 200.993C150.878 200.239 152.149 199.862 153.685 199.862C155.891 199.862 157.524 200.658 158.585 202.25C159.66 203.827 160.198 205.866 160.198 208.365C160.198 210.851 159.667 212.896 158.606 214.502C157.545 216.107 155.87 216.91 153.58 216.91ZM178.778 220.303C181.599 220.303 183.812 219.682 185.418 218.439C187.023 217.196 187.826 215.479 187.826 213.287C187.826 212.114 187.582 211.13 187.093 210.334C186.604 209.524 185.781 208.826 184.622 208.24C183.477 207.639 181.906 207.088 179.909 206.585C178.136 206.138 176.782 205.74 175.846 205.391C174.925 205.042 174.29 204.672 173.941 204.281C173.605 203.89 173.438 203.423 173.438 202.878C173.438 201.915 173.892 201.147 174.799 200.574C175.721 200.002 176.915 199.737 178.381 199.778C179.916 199.82 181.18 200.197 182.171 200.909C183.163 201.607 183.749 202.557 183.931 203.758L187.742 203.067C187.505 201.07 186.528 199.471 184.81 198.27C183.107 197.056 180.964 196.448 178.381 196.448C175.77 196.448 173.668 197.056 172.077 198.27C170.485 199.471 169.689 201.07 169.689 203.067C169.689 204.142 169.926 205.056 170.401 205.81C170.89 206.564 171.707 207.227 172.851 207.8C174.01 208.372 175.588 208.924 177.585 209.454C179.428 209.943 180.803 210.369 181.711 210.732C182.632 211.081 183.239 211.451 183.533 211.842C183.826 212.233 183.972 212.749 183.972 213.392C183.972 214.495 183.526 215.367 182.632 216.01C181.752 216.652 180.545 216.973 179.009 216.973C177.375 216.973 176.007 216.617 174.904 215.905C173.801 215.179 173.096 214.202 172.789 212.973L168.977 213.58C169.368 215.702 170.422 217.357 172.139 218.544C173.871 219.717 176.084 220.303 178.778 220.303Z" fill="white"/>
<g clip-path="url(#clip0)">
<path d="M150.173 16.8172L149.431 19.5894L132.684 81.6155C132.068 83.8954 129.204 84.852 127.214 83.443L65.1126 39.4789C62.7813 37.8289 63.4829 34.3613 66.2927 33.6436L143.522 13.9139L146.311 13.2077C148.632 12.621 150.763 14.6121 150.173 16.8172Z" fill="white"/>
<path d="M103.723 66.7526L110.712 71.7059L91.1667 81.5323L90.3004 57.2463L142.337 20.0769L103.723 66.7526Z" fill="#41ADE1"/>
<path d="M103.723 66.7526L91.1668 81.5322L110.712 71.7059L103.723 66.7526Z" fill="#41ADE1"/>
</g>
<path d="M83.5384 81.1884C83.5384 84.7307 80.4809 87.7402 76.5345 87.7402C72.5882 87.7402 69.5307 84.7307 69.5307 81.1884C69.5307 77.6461 72.5882 74.6366 76.5345 74.6366C80.4809 74.6366 83.5384 77.6461 83.5384 81.1884Z" stroke="white" stroke-width="3"/>
<path d="M66.5307 97.2919C66.5307 100.834 63.4732 103.844 59.5268 103.844C55.5805 103.844 52.523 100.834 52.523 97.2919C52.523 93.7496 55.5805 90.7401 59.5268 90.7401C63.4732 90.7401 66.5307 93.7496 66.5307 97.2919Z" stroke="white" stroke-width="3"/>
<path d="M81.5571 119.887H30.6935C29.066 119.889 27.5056 120.502 26.3548 121.592C25.204 122.681 24.5566 124.159 24.5548 125.7V217.037C24.5566 218.578 25.204 220.056 26.3548 221.145C27.5056 222.235 29.066 222.848 30.6935 222.85H81.5571C83.1846 222.848 84.745 222.235 85.8958 221.145C87.0467 220.056 87.694 218.578 87.6958 217.037V125.7C87.694 124.159 87.0467 122.681 85.8958 121.592C84.745 120.502 83.1846 119.889 81.5571 119.887ZM64.4016 123.209L63.5247 126.53H48.726L47.849 123.209H64.4016ZM84.188 217.037C84.1874 217.698 83.91 218.331 83.4168 218.798C82.9235 219.265 82.2547 219.528 81.5571 219.528H30.6935C29.996 219.528 29.3271 219.265 28.8339 218.798C28.3406 218.331 28.0632 217.698 28.0627 217.037V125.7C28.0632 125.039 28.3406 124.406 28.8339 123.939C29.3271 123.472 29.996 123.209 30.6935 123.209H44.2316L45.6544 128.593C45.7493 128.953 45.9682 129.272 46.2765 129.5C46.5847 129.727 46.9646 129.851 47.3557 129.851H64.8949C65.286 129.851 65.6659 129.727 65.9741 129.5C66.2824 129.272 66.5014 128.953 66.5962 128.593L68.0191 123.209H81.5571C82.2547 123.209 82.9235 123.472 83.4168 123.939C83.91 124.406 84.1874 125.039 84.188 125.7V217.037Z" fill="white"/>
<path d="M61.3871 214.546H50.8636C50.3984 214.546 49.9523 214.721 49.6234 215.033C49.2944 215.344 49.1096 215.766 49.1096 216.207C49.1096 216.647 49.2944 217.07 49.6234 217.381C49.9523 217.693 50.3984 217.867 50.8636 217.867H61.3871C61.8522 217.867 62.2983 217.693 62.6273 217.381C62.9562 217.07 63.141 216.647 63.141 216.207C63.141 215.766 62.9562 215.344 62.6273 215.033C62.2983 214.721 61.8522 214.546 61.3871 214.546Z" fill="white"/>
<path d="M35.0783 156.422C35.5435 156.422 35.9896 156.247 36.3185 155.936C36.6475 155.624 36.8322 155.202 36.8322 154.762V153.101H38.5862C39.0513 153.101 39.4974 152.926 39.8264 152.615C40.1553 152.303 40.3401 151.881 40.3401 151.44C40.3401 151 40.1553 150.577 39.8264 150.266C39.4974 149.955 39.0513 149.78 38.5862 149.78H35.0783C34.6132 149.78 34.167 149.955 33.8381 150.266C33.5092 150.577 33.3244 151 33.3244 151.44V154.762C33.3244 155.202 33.5092 155.624 33.8381 155.936C34.167 156.247 34.6132 156.422 35.0783 156.422Z" fill="white"/>
<path d="M38.5862 189.636H36.8322V187.975C36.8322 187.535 36.6475 187.112 36.3185 186.801C35.9896 186.49 35.5435 186.315 35.0783 186.315C34.6132 186.315 34.167 186.49 33.8381 186.801C33.5092 187.112 33.3244 187.535 33.3244 187.975V191.297C33.3244 191.737 33.5092 192.159 33.8381 192.471C34.167 192.782 34.6132 192.957 35.0783 192.957H38.5862C39.0513 192.957 39.4974 192.782 39.8264 192.471C40.1553 192.159 40.3401 191.737 40.3401 191.297C40.3401 190.856 40.1553 190.434 39.8264 190.122C39.4974 189.811 39.0513 189.636 38.5862 189.636Z" fill="white"/>
<path d="M77.1723 186.315C76.7071 186.315 76.261 186.49 75.9321 186.801C75.6032 187.112 75.4184 187.535 75.4184 187.975V189.636H73.6645C73.1993 189.636 72.7532 189.811 72.4243 190.122C72.0953 190.434 71.9106 190.856 71.9106 191.297C71.9106 191.737 72.0953 192.159 72.4243 192.471C72.7532 192.782 73.1993 192.957 73.6645 192.957H77.1723C77.6375 192.957 78.0836 192.782 78.4125 192.471C78.7414 192.159 78.9262 191.737 78.9262 191.297V187.975C78.9262 187.535 78.7414 187.112 78.4125 186.801C78.0836 186.49 77.6375 186.315 77.1723 186.315Z" fill="white"/>
<path d="M77.1723 149.78H73.6645C73.1993 149.78 72.7532 149.955 72.4243 150.266C72.0953 150.577 71.9106 151 71.9106 151.44C71.9106 151.881 72.0953 152.303 72.4243 152.615C72.7532 152.926 73.1993 153.101 73.6645 153.101H75.4184V154.762C75.4184 155.202 75.6032 155.624 75.9321 155.936C76.261 156.247 76.7071 156.422 77.1723 156.422C77.6375 156.422 78.0836 156.247 78.4125 155.936C78.7414 155.624 78.9262 155.202 78.9262 154.762V151.44C78.9262 151 78.7414 150.577 78.4125 150.266C78.0836 149.955 77.6375 149.78 77.1723 149.78Z" fill="white"/>
<path d="M38.5862 156.422V166.386C38.5862 166.827 38.7709 167.249 39.0999 167.561C39.4288 167.872 39.8749 168.047 40.3401 168.047H50.8636C51.3287 168.047 51.7748 167.872 52.1038 167.561C52.4327 167.249 52.6175 166.827 52.6175 166.386V156.422C52.6175 155.982 52.4327 155.559 52.1038 155.248C51.7748 154.937 51.3287 154.762 50.8636 154.762H40.3401C39.8749 154.762 39.4288 154.937 39.0999 155.248C38.7709 155.559 38.5862 155.982 38.5862 156.422ZM42.094 158.083H49.1096V164.726H42.094V158.083Z" fill="white"/>
<path d="M52.6175 186.315V176.351C52.6175 175.91 52.4327 175.488 52.1038 175.176C51.7748 174.865 51.3287 174.69 50.8636 174.69H40.3401C39.8749 174.69 39.4288 174.865 39.0999 175.176C38.7709 175.488 38.5862 175.91 38.5862 176.351V186.315C38.5862 186.755 38.7709 187.177 39.0999 187.489C39.4288 187.8 39.8749 187.975 40.3401 187.975H50.8636C51.3287 187.975 51.7748 187.8 52.1038 187.489C52.4327 187.177 52.6175 186.755 52.6175 186.315ZM49.1096 184.654H42.094V178.011H49.1096V184.654Z" fill="white"/>
<path d="M61.3871 168.047H71.9106C72.3757 168.047 72.8218 167.872 73.1508 167.561C73.4797 167.249 73.6645 166.827 73.6645 166.386V156.422C73.6645 155.982 73.4797 155.559 73.1508 155.248C72.8218 154.937 72.3757 154.762 71.9106 154.762H61.3871C60.9219 154.762 60.4758 154.937 60.1469 155.248C59.8179 155.559 59.6331 155.982 59.6331 156.422V166.386C59.6331 166.827 59.8179 167.249 60.1469 167.561C60.4758 167.872 60.9219 168.047 61.3871 168.047ZM63.141 158.083H70.1566V164.726H63.141V158.083Z" fill="white"/>
<path d="M73.6645 186.315V181.332C73.6645 180.892 73.4797 180.47 73.1508 180.158C72.8218 179.847 72.3757 179.672 71.9106 179.672H66.6488C66.1836 179.672 65.7375 179.847 65.4086 180.158C65.0797 180.47 64.8949 180.892 64.8949 181.332V186.315C64.8949 186.755 65.0797 187.177 65.4086 187.489C65.7375 187.8 66.1836 187.975 66.6488 187.975H71.9106C72.3757 187.975 72.8218 187.8 73.1508 187.489C73.4797 187.177 73.6645 186.755 73.6645 186.315ZM70.1566 184.654H68.4027V182.993H70.1566V184.654Z" fill="white"/>
<path d="M61.3871 178.011H66.6488C67.114 178.011 67.5601 177.836 67.889 177.525C68.2179 177.213 68.4027 176.791 68.4027 176.35V171.368C68.4027 170.928 68.2179 170.506 67.889 170.194C67.5601 169.883 67.114 169.708 66.6488 169.708H61.3871C60.9219 169.708 60.4758 169.883 60.1469 170.194C59.8179 170.506 59.6331 170.928 59.6331 171.368V176.35C59.6331 176.791 59.8179 177.213 60.1469 177.525C60.4758 177.836 60.9219 178.011 61.3871 178.011ZM63.141 173.029H64.8949V174.69H63.141V173.029Z" fill="white"/>
<path d="M56.1253 187.975C56.5905 187.975 57.0366 187.8 57.3655 187.489C57.6944 187.177 57.8792 186.755 57.8792 186.315V171.368C57.8792 170.928 57.6944 170.506 57.3655 170.194C57.0366 169.883 56.5905 169.708 56.1253 169.708H47.3557C46.8906 169.708 46.4444 169.883 46.1155 170.194C45.7866 170.506 45.6018 170.928 45.6018 171.368C45.6018 171.809 45.7866 172.231 46.1155 172.543C46.4444 172.854 46.8906 173.029 47.3557 173.029H54.3714V186.315C54.3714 186.755 54.5562 187.177 54.8851 187.489C55.214 187.8 55.6601 187.975 56.1253 187.975Z" fill="white"/>
<path d="M56.1253 159.744C56.5905 159.744 57.0366 159.569 57.3655 159.257C57.6944 158.946 57.8792 158.523 57.8792 158.083V156.422C57.8792 155.982 57.6944 155.559 57.3655 155.248C57.0366 154.937 56.5905 154.762 56.1253 154.762C55.6601 154.762 55.214 154.937 54.8851 155.248C54.5562 155.559 54.3714 155.982 54.3714 156.422V158.083C54.3714 158.523 54.5562 158.946 54.8851 159.257C55.214 159.569 55.6601 159.744 56.1253 159.744Z" fill="white"/>
<path d="M56.1253 168.047C56.5905 168.047 57.0366 167.872 57.3655 167.561C57.6944 167.249 57.8792 166.827 57.8792 166.386V163.065C57.8792 162.625 57.6944 162.202 57.3655 161.891C57.0366 161.579 56.5905 161.404 56.1253 161.404C55.6601 161.404 55.214 161.579 54.8851 161.891C54.5562 162.202 54.3714 162.625 54.3714 163.065V166.386C54.3714 166.827 54.5562 167.249 54.8851 167.561C55.214 167.872 55.6601 168.047 56.1253 168.047Z" fill="white"/>
<path d="M61.3871 179.672C60.9219 179.672 60.4758 179.847 60.1469 180.158C59.8179 180.47 59.6331 180.892 59.6331 181.332V186.315C59.6331 186.755 59.8179 187.177 60.1469 187.489C60.4758 187.8 60.9219 187.975 61.3871 187.975C61.8522 187.975 62.2984 187.8 62.6273 187.489C62.9562 187.177 63.141 186.755 63.141 186.315V181.332C63.141 180.892 62.9562 180.47 62.6273 180.158C62.2984 179.847 61.8522 179.672 61.3871 179.672Z" fill="white"/>
<path d="M40.3401 169.708C39.8749 169.708 39.4288 169.883 39.0999 170.194C38.7709 170.506 38.5862 170.928 38.5862 171.368C38.5862 171.809 38.7709 172.231 39.0999 172.543C39.4288 172.854 39.8749 173.029 40.3401 173.029H42.094C42.5592 173.029 43.0053 172.854 43.3342 172.543C43.6631 172.231 43.8479 171.809 43.8479 171.368C43.8479 170.928 43.6631 170.506 43.3342 170.194C43.0053 169.883 42.5592 169.708 42.094 169.708H40.3401Z" fill="white"/>
<path d="M71.9106 169.708C71.4454 169.708 70.9993 169.883 70.6704 170.194C70.3414 170.506 70.1567 170.928 70.1567 171.368V176.35C70.1567 176.791 70.3414 177.213 70.6704 177.525C70.9993 177.836 71.4454 178.011 71.9106 178.011C72.3757 178.011 72.8218 177.836 73.1508 177.525C73.4797 177.213 73.6645 176.791 73.6645 176.35V171.368C73.6645 170.928 73.4797 170.506 73.1508 170.194C72.8218 169.883 72.3757 169.708 71.9106 169.708Z" fill="white"/>
<defs>
<clipPath id="clip0">
<rect width="81.5134" height="77.4274" fill="white" transform="matrix(0.986782 0.16205 -0.18018 0.983634 70.4074 0)"/>
</clipPath>
</defs>
</svg>
