<svg width="289" height="170" viewBox="0 0 289 170" fill="none" xmlns="http://www.w3.org/2000/svg">
<path d="M148.867 158.708C150.544 158.708 151.98 158.305 153.176 157.501C154.371 156.697 155.255 155.535 155.827 154.016L153.115 153.307C152.362 155.208 150.946 156.159 148.867 156.159C147.249 156.159 146.029 155.605 145.206 154.499C144.392 153.393 143.975 151.929 143.955 150.109C143.975 148.339 144.382 146.89 145.175 145.763C145.969 144.627 147.199 144.059 148.867 144.059C149.851 144.059 150.73 144.321 151.503 144.844C152.277 145.367 152.834 146.101 153.176 147.046L155.827 146.247C155.396 144.778 154.557 143.621 153.311 142.777C152.076 141.932 150.605 141.509 148.897 141.509C147.27 141.509 145.874 141.877 144.708 142.611C143.553 143.335 142.669 144.341 142.057 145.628C141.444 146.915 141.128 148.409 141.108 150.109C141.128 151.768 141.439 153.246 142.042 154.544C142.644 155.842 143.518 156.862 144.663 157.607C145.818 158.341 147.219 158.708 148.867 158.708ZM165.995 158.708C167.612 158.708 169.002 158.346 170.168 157.622C171.343 156.898 172.247 155.887 172.88 154.589C173.522 153.292 173.844 151.793 173.844 150.093C173.844 148.414 173.527 146.93 172.895 145.643C172.272 144.346 171.373 143.335 170.198 142.611C169.022 141.877 167.621 141.509 165.995 141.509C164.408 141.509 163.026 141.871 161.851 142.595C160.676 143.31 159.767 144.311 159.124 145.598C158.481 146.885 158.16 148.384 158.16 150.093C158.16 151.773 158.471 153.261 159.093 154.56C159.727 155.857 160.631 156.873 161.806 157.607C162.981 158.341 164.377 158.708 165.995 158.708ZM165.995 156.159C164.357 156.159 163.116 155.611 162.273 154.514C161.429 153.408 161.007 151.934 161.007 150.093C161.007 148.313 161.414 146.865 162.228 145.749C163.041 144.622 164.297 144.059 165.995 144.059C167.661 144.059 168.912 144.607 169.746 145.704C170.579 146.8 170.996 148.263 170.996 150.093C170.996 151.884 170.579 153.342 169.746 154.469C168.922 155.595 167.671 156.159 165.995 156.159ZM184.152 158.708C185.257 158.708 186.231 158.507 187.075 158.104C187.929 157.692 188.652 157.129 189.244 156.415V158.256H191.64V136.531H188.943V143.44C188.36 142.837 187.668 142.364 186.864 142.022C186.06 141.681 185.151 141.509 184.137 141.509C182.63 141.509 181.33 141.887 180.235 142.641C179.15 143.385 178.316 144.406 177.734 145.704C177.151 147.001 176.859 148.464 176.859 150.093C176.859 151.723 177.151 153.187 177.734 154.484C178.316 155.781 179.15 156.812 180.235 157.576C181.33 158.331 182.635 158.708 184.152 158.708ZM184.484 156.249C183.419 156.249 182.53 155.977 181.817 155.434C181.113 154.891 180.586 154.157 180.235 153.231C179.883 152.296 179.708 151.25 179.708 150.093C179.708 148.947 179.878 147.911 180.22 146.986C180.572 146.06 181.104 145.326 181.817 144.783C182.54 144.24 183.454 143.968 184.559 143.968C186.146 143.968 187.321 144.542 188.084 145.689C188.857 146.825 189.244 148.293 189.244 150.093C189.244 151.884 188.862 153.357 188.099 154.514C187.336 155.67 186.131 156.249 184.484 156.249ZM202.611 158.693C204.64 158.693 206.232 158.245 207.387 157.35C208.542 156.455 209.12 155.218 209.12 153.639C209.12 152.794 208.944 152.085 208.592 151.512C208.241 150.928 207.649 150.426 206.815 150.003C205.991 149.57 204.861 149.174 203.424 148.811C202.149 148.489 201.175 148.203 200.501 147.951C199.839 147.7 199.382 147.433 199.131 147.152C198.889 146.87 198.769 146.534 198.769 146.141C198.769 145.447 199.096 144.894 199.748 144.481C200.412 144.069 201.27 143.878 202.325 143.908C203.429 143.938 204.339 144.21 205.052 144.723C205.765 145.225 206.187 145.91 206.318 146.775L209.059 146.277C208.889 144.839 208.186 143.687 206.95 142.822C205.725 141.947 204.183 141.509 202.325 141.509C200.447 141.509 198.935 141.947 197.79 142.822C196.645 143.687 196.072 144.839 196.072 146.277C196.072 147.051 196.243 147.71 196.584 148.253C196.936 148.796 197.524 149.274 198.347 149.686C199.181 150.098 200.316 150.496 201.752 150.878C203.078 151.23 204.067 151.537 204.721 151.798C205.383 152.05 205.82 152.316 206.031 152.598C206.242 152.88 206.347 153.251 206.347 153.715C206.347 154.509 206.026 155.137 205.383 155.6C204.75 156.063 203.882 156.294 202.777 156.294C201.601 156.294 200.617 156.038 199.824 155.525C199.03 155.002 198.523 154.298 198.302 153.413L195.56 153.85C195.841 155.379 196.599 156.571 197.835 157.426C199.081 158.271 200.673 158.693 202.611 158.693Z" fill="white"/>
<path d="M182.033 12.1141L181.499 14.111L169.451 58.7908C169.008 60.4331 166.948 61.1222 165.516 60.1072L120.841 28.4382C119.164 27.2496 119.669 24.7518 121.69 24.2348L177.248 10.0227L179.254 9.51402C180.924 9.09139 182.457 10.5257 182.033 12.1141Z" fill="white"/>
<path d="M148.617 48.0845L153.645 51.6525L139.584 58.7309L138.961 41.2367L176.396 14.4622L148.617 48.0845Z" fill="#0099FF"/>
<path d="M148.617 48.0845L139.584 58.7308L153.645 51.6525L148.617 48.0845Z" fill="#0099FF"/>
<path d="M134.097 58.4831C134.097 61.0348 131.897 63.2026 129.058 63.2026C126.219 63.2026 124.02 61.0348 124.02 58.4831C124.02 55.9315 126.219 53.7636 129.058 53.7636C131.897 53.7636 134.097 55.9315 134.097 58.4831Z" stroke="white" stroke-width="3"/>
<path d="M121.861 70.0832C121.861 72.6347 119.662 74.8029 116.823 74.8029C113.984 74.8029 111.784 72.6347 111.784 70.0832C111.784 67.5315 113.984 65.3636 116.823 65.3636C119.662 65.3636 121.861 67.5315 121.861 70.0832Z" stroke="white" stroke-width="3"/>
<path d="M132.671 86.3593H96.0806C94.9098 86.3608 93.7872 86.8023 92.9594 87.5875C92.1315 88.3719 91.6658 89.4366 91.6645 90.5466V156.34C91.6658 157.45 92.1315 158.515 92.9594 159.299C93.7872 160.085 94.9098 160.526 96.0806 160.528H132.671C133.842 160.526 134.965 160.085 135.792 159.299C136.62 158.515 137.086 157.45 137.087 156.34V90.5466C137.086 89.4366 136.62 88.3719 135.792 87.5875C134.965 86.8023 133.842 86.3608 132.671 86.3593ZM120.33 88.7523L119.699 91.1445H109.053L108.422 88.7523H120.33ZM134.564 156.34C134.563 156.816 134.364 157.272 134.009 157.609C133.654 157.945 133.173 158.135 132.671 158.135H96.0806C95.5788 158.135 95.0976 157.945 94.7428 157.609C94.3879 157.272 94.1884 156.816 94.188 156.34V90.5466C94.1884 90.0705 94.3879 89.6145 94.7428 89.2781C95.0976 88.9417 95.5788 88.7523 96.0806 88.7523H105.82L106.843 92.6306C106.912 92.8899 107.069 93.1197 107.291 93.2839C107.513 93.4474 107.786 93.5368 108.067 93.5368H120.685C120.966 93.5368 121.239 93.4474 121.461 93.2839C121.683 93.1197 121.84 92.8899 121.909 92.6306L122.932 88.7523H132.671C133.173 88.7523 133.654 88.9417 134.009 89.2781C134.364 89.6145 134.563 90.0705 134.564 90.5466V156.34Z" fill="white"/>
<path d="M118.161 154.546H110.591C110.256 154.546 109.935 154.672 109.699 154.897C109.462 155.121 109.329 155.425 109.329 155.742C109.329 156.059 109.462 156.364 109.699 156.588C109.935 156.813 110.256 156.938 110.591 156.938H118.161C118.496 156.938 118.817 156.813 119.053 156.588C119.29 156.364 119.423 156.059 119.423 155.742C119.423 155.425 119.29 155.121 119.053 154.897C118.817 154.672 118.496 154.546 118.161 154.546Z" fill="white"/>
<path d="M99.235 112.677C99.5696 112.677 99.8905 112.551 100.127 112.327C100.364 112.102 100.497 111.798 100.497 111.481V110.285H101.758C102.093 110.285 102.414 110.159 102.651 109.935C102.887 109.71 103.02 109.406 103.02 109.088C103.02 108.771 102.887 108.466 102.651 108.242C102.414 108.018 102.093 107.892 101.758 107.892H99.235C98.9004 107.892 98.5794 108.018 98.3428 108.242C98.1062 108.466 97.9732 108.771 97.9732 109.088V111.481C97.9732 111.798 98.1062 112.102 98.3428 112.327C98.5794 112.551 98.9004 112.677 99.235 112.677Z" fill="white"/>
<path d="M101.758 136.602H100.497V135.406C100.497 135.089 100.364 134.784 100.127 134.56C99.8905 134.336 99.5696 134.21 99.235 134.21C98.9004 134.21 98.5794 134.336 98.3428 134.56C98.1062 134.784 97.9732 135.089 97.9732 135.406V137.799C97.9732 138.116 98.1062 138.42 98.3428 138.644C98.5794 138.868 98.9004 138.994 99.235 138.994H101.758C102.093 138.994 102.414 138.868 102.651 138.644C102.887 138.42 103.02 138.116 103.02 137.799C103.02 137.481 102.887 137.177 102.651 136.952C102.414 136.728 102.093 136.602 101.758 136.602Z" fill="white"/>
<path d="M129.517 134.21C129.182 134.21 128.861 134.336 128.625 134.56C128.388 134.784 128.255 135.089 128.255 135.406V136.602H126.993C126.659 136.602 126.338 136.728 126.101 136.952C125.864 137.177 125.732 137.481 125.732 137.799C125.732 138.116 125.864 138.42 126.101 138.644C126.338 138.868 126.659 138.994 126.993 138.994H129.517C129.851 138.994 130.172 138.868 130.409 138.644C130.646 138.42 130.779 138.116 130.779 137.799V135.406C130.779 135.089 130.646 134.784 130.409 134.56C130.172 134.336 129.851 134.21 129.517 134.21Z" fill="white"/>
<path d="M129.517 107.892H126.993C126.659 107.892 126.338 108.018 126.101 108.242C125.864 108.466 125.732 108.771 125.732 109.088C125.732 109.406 125.864 109.71 126.101 109.935C126.338 110.159 126.659 110.285 126.993 110.285H128.255V111.481C128.255 111.798 128.388 112.102 128.625 112.327C128.861 112.551 129.182 112.677 129.517 112.677C129.851 112.677 130.172 112.551 130.409 112.327C130.646 112.102 130.779 111.798 130.779 111.481V109.088C130.779 108.771 130.646 108.466 130.409 108.242C130.172 108.018 129.851 107.892 129.517 107.892Z" fill="white"/>
<path d="M101.758 112.677V119.854C101.758 120.172 101.891 120.476 102.128 120.701C102.365 120.925 102.685 121.051 103.02 121.051H110.591C110.925 121.051 111.246 120.925 111.483 120.701C111.719 120.476 111.852 120.172 111.852 119.854V112.677C111.852 112.36 111.719 112.055 111.483 111.831C111.246 111.607 110.925 111.481 110.591 111.481H103.02C102.685 111.481 102.365 111.607 102.128 111.831C101.891 112.055 101.758 112.36 101.758 112.677ZM104.282 113.873H109.329V118.659H104.282V113.873Z" fill="white"/>
<path d="M111.852 134.21V127.033C111.852 126.715 111.719 126.411 111.483 126.186C111.246 125.962 110.925 125.836 110.591 125.836H103.02C102.685 125.836 102.365 125.962 102.128 126.186C101.891 126.411 101.758 126.715 101.758 127.033V134.21C101.758 134.527 101.891 134.831 102.128 135.056C102.365 135.28 102.685 135.406 103.02 135.406H110.591C110.925 135.406 111.246 135.28 111.483 135.056C111.719 134.831 111.852 134.527 111.852 134.21ZM109.329 133.014H104.282V128.228H109.329V133.014Z" fill="white"/>
<path d="M118.161 121.051H125.732C126.066 121.051 126.387 120.925 126.624 120.701C126.86 120.476 126.993 120.172 126.993 119.854V112.677C126.993 112.36 126.86 112.055 126.624 111.831C126.387 111.607 126.066 111.481 125.732 111.481H118.161C117.826 111.481 117.505 111.607 117.269 111.831C117.032 112.055 116.899 112.36 116.899 112.677V119.854C116.899 120.172 117.032 120.476 117.269 120.701C117.505 120.925 117.826 121.051 118.161 121.051ZM119.423 113.873H124.47V118.659H119.423V113.873Z" fill="white"/>
<path d="M126.993 134.21V130.621C126.993 130.304 126.86 130 126.624 129.775C126.387 129.551 126.066 129.425 125.732 129.425H121.946C121.612 129.425 121.291 129.551 121.054 129.775C120.818 130 120.685 130.304 120.685 130.621V134.21C120.685 134.527 120.818 134.831 121.054 135.056C121.291 135.28 121.612 135.406 121.946 135.406H125.732C126.066 135.406 126.387 135.28 126.624 135.056C126.86 134.831 126.993 134.527 126.993 134.21ZM124.47 133.014H123.208V131.817H124.47V133.014Z" fill="white"/>
<path d="M118.161 128.228H121.946C122.281 128.228 122.602 128.102 122.838 127.878C123.075 127.653 123.208 127.349 123.208 127.032V123.443C123.208 123.126 123.075 122.822 122.838 122.597C122.602 122.373 122.281 122.247 121.946 122.247H118.161C117.826 122.247 117.505 122.373 117.269 122.597C117.032 122.822 116.899 123.126 116.899 123.443V127.032C116.899 127.349 117.032 127.653 117.269 127.878C117.505 128.102 117.826 128.228 118.161 128.228ZM119.423 124.64H120.685V125.836H119.423V124.64Z" fill="white"/>
<path d="M114.376 135.406C114.711 135.406 115.032 135.28 115.268 135.056C115.505 134.831 115.638 134.527 115.638 134.21V123.443C115.638 123.126 115.505 122.822 115.268 122.597C115.032 122.373 114.711 122.247 114.376 122.247H108.067C107.733 122.247 107.412 122.373 107.175 122.597C106.938 122.822 106.805 123.126 106.805 123.443C106.805 123.761 106.938 124.065 107.175 124.289C107.412 124.514 107.733 124.64 108.067 124.64H113.114V134.21C113.114 134.527 113.247 134.831 113.484 135.056C113.72 135.28 114.041 135.406 114.376 135.406Z" fill="white"/>
<path d="M114.376 115.07C114.71 115.07 115.031 114.944 115.268 114.719C115.505 114.495 115.638 114.19 115.638 113.873V112.677C115.638 112.36 115.505 112.055 115.268 111.831C115.031 111.607 114.71 111.481 114.376 111.481C114.041 111.481 113.72 111.607 113.484 111.831C113.247 112.055 113.114 112.36 113.114 112.677V113.873C113.114 114.19 113.247 114.495 113.484 114.719C113.72 114.944 114.041 115.07 114.376 115.07Z" fill="white"/>
<path d="M114.376 121.051C114.71 121.051 115.031 120.925 115.268 120.701C115.505 120.476 115.638 120.172 115.638 119.854V117.462C115.638 117.145 115.505 116.84 115.268 116.616C115.031 116.392 114.71 116.266 114.376 116.266C114.041 116.266 113.72 116.392 113.484 116.616C113.247 116.84 113.114 117.145 113.114 117.462V119.854C113.114 120.172 113.247 120.476 113.484 120.701C113.72 120.925 114.041 121.051 114.376 121.051Z" fill="white"/>
<path d="M118.161 129.425C117.826 129.425 117.505 129.551 117.269 129.775C117.032 130 116.899 130.304 116.899 130.621V134.21C116.899 134.527 117.032 134.831 117.269 135.056C117.505 135.28 117.826 135.406 118.161 135.406C118.496 135.406 118.817 135.28 119.053 135.056C119.29 134.831 119.423 134.527 119.423 134.21V130.621C119.423 130.304 119.29 130 119.053 129.775C118.817 129.551 118.496 129.425 118.161 129.425Z" fill="white"/>
<path d="M103.02 122.247C102.685 122.247 102.365 122.373 102.128 122.597C101.891 122.822 101.758 123.126 101.758 123.443C101.758 123.761 101.891 124.065 102.128 124.289C102.365 124.514 102.685 124.64 103.02 124.64H104.282C104.617 124.64 104.937 124.514 105.174 124.289C105.411 124.065 105.544 123.761 105.544 123.443C105.544 123.126 105.411 122.822 105.174 122.597C104.937 122.373 104.617 122.247 104.282 122.247H103.02Z" fill="white"/>
<path d="M125.732 122.247C125.397 122.247 125.076 122.373 124.839 122.597C124.603 122.822 124.47 123.126 124.47 123.443V127.032C124.47 127.349 124.603 127.653 124.839 127.878C125.076 128.102 125.397 128.228 125.732 128.228C126.066 128.228 126.387 128.102 126.624 127.878C126.86 127.653 126.993 127.349 126.993 127.032V123.443C126.993 123.126 126.86 122.822 126.624 122.597C126.387 122.373 126.066 122.247 125.732 122.247Z" fill="white"/>
<path d="M41.5582 111.211L35.9863 114.732L39.3617 108.602C38.4059 107.84 37.2232 107.418 36.0006 107.403H35.911C35.5246 107.41 35.1383 107.382 34.7572 107.317L32.8725 108.512L33.6787 107.045C32.3434 106.577 31.1899 105.7 30.3821 104.54L27.0103 106.687L29.1388 102.815C27.168 100.449 24.5092 99 21.5817 99C18.0738 99 14.9492 101.083 12.9318 104.332C12.3336 105.305 11.4879 106.103 10.4809 106.643C9.47382 107.184 8.34135 107.449 7.19869 107.41H7.01236C3.1389 107.41 0 111.794 0 117.205C0 122.616 3.1389 127 7.01236 127C7.86349 126.997 8.7011 126.787 9.45254 126.388C10.7713 125.749 12.2132 125.403 13.6788 125.375C15.1443 125.347 16.5985 125.636 17.9412 126.223C19.0754 126.732 20.3042 126.997 21.5476 127C22.791 127.003 24.0211 126.745 25.1578 126.241C26.4893 125.665 27.9293 125.381 29.3802 125.409C30.8312 125.437 32.2592 125.775 33.5676 126.402C34.3145 126.792 35.1438 126.997 35.9863 127C39.8597 127 42.9986 122.616 42.9986 117.205C43.0295 115.118 42.5341 113.056 41.5582 111.211Z" fill="#F2F2F2"/>
<path opacity="0.03" d="M31 125.592C28.98 125.215 26.892 125.438 25.0011 126.234C23.8685 126.734 22.6415 126.993 21.4006 126.993C20.1597 126.993 18.9327 126.734 17.8001 126.234C16.4602 125.653 15.0082 125.367 13.5448 125.395C12.0815 125.423 10.6419 125.765 9.32575 126.396C8.57383 126.789 7.73678 126.996 6.88611 127C3.452 127 0.593815 123.584 0 119.08C0.687129 118.588 1.27036 117.968 1.71705 117.255C3.73101 114.054 6.85034 112 10.3524 112C13.8545 112 16.9416 114.012 18.952 117.188C19.5535 118.148 20.397 118.938 21.4001 119.48C22.4032 120.023 23.5317 120.3 24.6755 120.284H24.7649C27.48 120.276 29.8481 122.436 31 125.592Z" fill="black"/>
<path d="M255.174 45.0302L259.709 47.9228L256.961 42.8871C257.739 42.2615 258.702 41.915 259.697 41.9023H259.77C260.085 41.9085 260.399 41.8849 260.709 41.8318L262.243 42.8136L261.587 41.6084C262.674 41.2239 263.613 40.5038 264.27 39.5506L267.015 41.3144L265.282 38.1337C266.887 36.1906 269.051 35 271.433 35C274.289 35 276.832 36.7109 278.474 39.3801C278.961 40.1794 279.649 40.8345 280.469 41.2785C281.289 41.7226 282.211 41.9399 283.141 41.9082H283.292C286.445 41.9082 289 45.5093 289 49.9541C289 54.3989 286.445 58 283.292 58C282.599 57.9978 281.918 57.8252 281.306 57.4973C280.233 56.9724 279.059 56.6885 277.866 56.6652C276.673 56.6418 275.49 56.8796 274.397 57.3621C273.474 57.7801 272.473 57.9974 271.461 58C270.449 58.0025 269.448 57.7902 268.523 57.3768C267.439 56.9033 266.267 56.6701 265.086 56.6929C263.905 56.7158 262.743 56.9941 261.678 57.5091C261.07 57.8288 260.395 57.9972 259.709 58C256.556 58 254.001 54.3989 254.001 49.9541C253.976 48.2396 254.379 46.5464 255.174 45.0302Z" fill="#F2F2F2"/>
<path opacity="0.03" d="M264 56.8734C265.629 56.5717 267.313 56.7506 268.838 57.3873C269.751 57.7876 270.741 57.9945 271.741 57.9945C272.742 57.9945 273.732 57.7876 274.645 57.3873C275.726 56.9226 276.897 56.6935 278.077 56.7159C279.257 56.7383 280.418 57.0117 281.479 57.5172C282.086 57.8312 282.761 57.9969 283.447 58C286.216 58 288.521 55.2668 289 51.664C288.446 51.2701 287.976 50.7743 287.615 50.2042C285.991 47.6433 283.476 46 280.651 46C277.827 46 275.337 47.6094 273.716 50.1506C273.231 50.9186 272.551 51.5504 271.742 51.9844C270.933 52.4184 270.023 52.6397 269.1 52.6268H269.028C266.839 52.6212 264.929 54.3492 264 56.8734Z" fill="black"/>
</svg>
