<svg width="41" height="41" viewBox="0 0 41 41" fill="none" xmlns="http://www.w3.org/2000/svg">
<circle cx="20.5" cy="20.5" r="20.5" fill="#2B90D9"/>
<path d="M26.8621 22.0345H22.0345V26.8621M29.6207 22.0345H31M26.8621 30.3103H21.3448M25.4828 26.1724H30.3103V31M14.4483 15.1379H15.5M25.4828 15.1379H26.5M14.4483 26.1724H15.5M12.3793 11H17.8966C18.6583 11 19.2759 11.6175 19.2759 12.3793V17.8966C19.2759 18.6583 18.6583 19.2759 17.8966 19.2759H12.3793C11.6175 19.2759 11 18.6583 11 17.8966V12.3793C11 11.6175 11.6175 11 12.3793 11ZM23.4138 11H28.931C29.6928 11 30.3103 11.6175 30.3103 12.3793V17.8966C30.3103 18.6583 29.6928 19.2759 28.931 19.2759H23.4138C22.652 19.2759 22.0345 18.6583 22.0345 17.8966V12.3793C22.0345 11.6175 22.652 11 23.4138 11ZM12.3793 22.0345H17.8966C18.6583 22.0345 19.2759 22.652 19.2759 23.4138V28.931C19.2759 29.6928 18.6583 30.3103 17.8966 30.3103H12.3793C11.6175 30.3103 11 29.6928 11 28.931V23.4138C11 22.652 11.6175 22.0345 12.3793 22.0345Z" stroke="white"/>
</svg>
