<svg width="54" height="54" viewBox="0 0 54 54" fill="none" xmlns="http://www.w3.org/2000/svg">
<path fill-rule="evenodd" clip-rule="evenodd" d="M27 4.5C39.4065 4.5 49.5 14.5935 49.5 27C49.5 39.4065 39.4065 49.5 27 49.5C14.5935 49.5 4.5 39.4065 4.5 27C4.5 14.5935 14.5935 4.5 27 4.5ZM27 7.875C16.4543 7.875 7.875 16.4543 7.875 27C7.875 37.5457 16.4543 46.125 27 46.125C37.5457 46.125 46.125 37.5457 46.125 27C46.125 16.4543 37.5457 7.875 27 7.875ZM26.2377 15.9646C27.1714 15.9646 27.9252 16.7206 27.9252 17.6521V27.6016L35.5865 32.1692C36.3852 32.6484 36.6484 33.6834 36.1714 34.4844C35.8542 35.0131 35.294 35.3079 34.7202 35.3079C34.4255 35.3079 34.1285 35.2314 33.8562 35.0717L25.3737 30.0114C24.8652 29.7054 24.5502 29.1542 24.5502 28.5602V17.6521C24.5502 16.7206 25.3062 15.9646 26.2377 15.9646Z" fill="white"/>
</svg>
