<svg width="54" height="54" viewBox="0 0 54 54" fill="none" xmlns="http://www.w3.org/2000/svg">
<path fill-rule="evenodd" clip-rule="evenodd" d="M9.83227 38.8768C9.83227 42.5758 12.8428 45.5864 16.544 45.5864H19.325C20.2565 45.5864 21.0125 46.3424 21.0125 47.2739C21.0125 48.2054 20.2565 48.9614 19.325 48.9614H16.544C10.982 48.9614 6.45727 44.4366 6.45727 38.8768L6.45525 31.3965L3.9375 31.3985C3.006 31.3985 2.25 30.6425 2.25 29.711C2.25 28.7795 3.006 28.0235 3.9375 28.0235L8.11257 28.0209C8.12328 28.0207 8.13402 28.0206 8.14477 28.0206L8.1765 28.0215L46.9458 28.0209C46.9572 28.0207 46.9686 28.0206 46.98 28.0206L47.0115 28.0215L51.1875 28.0235C52.119 28.0235 52.875 28.7795 52.875 29.711C52.875 30.6425 52.119 31.3985 51.1875 31.3985L48.6675 31.3965V38.8768C48.6675 44.4366 44.1427 48.9614 38.5807 48.9614H35.8695C34.938 48.9614 34.182 48.2054 34.182 47.2739C34.182 46.3424 34.938 45.5864 35.8695 45.5864H38.5807C42.282 45.5864 45.2925 42.5758 45.2925 38.8768V31.3965H9.83025L9.83227 38.8768ZM38.5805 6.75C44.1425 6.75 48.6673 11.2747 48.6673 16.8322V20.2387C48.6673 21.1702 47.9113 21.9262 46.9798 21.9262C46.0483 21.9262 45.2923 21.1702 45.2923 20.2387V16.8322C45.2923 13.1355 42.2818 10.125 38.5805 10.125H35.8693C34.9378 10.125 34.1818 9.369 34.1818 8.4375C34.1818 7.506 34.9378 6.75 35.8693 6.75H38.5805ZM19.3255 6.75C20.257 6.75 21.013 7.506 21.013 8.4375C21.013 9.369 20.257 10.125 19.3255 10.125H16.5445C12.8432 10.125 9.83273 13.1355 9.83273 16.8322V20.2387C9.83273 21.1702 9.07673 21.9262 8.14523 21.9262C7.21373 21.9262 6.45773 21.1702 6.45773 20.2387V16.8322C6.45773 11.2747 10.9825 6.75 16.5445 6.75H19.3255Z" fill="white"/>
</svg>
