<svg width="41" height="54" viewBox="0 0 41 54" fill="none" xmlns="http://www.w3.org/2000/svg">
<path fill-rule="evenodd" clip-rule="evenodd" d="M26.7449 32.4315L26.999 32.4316L27.5673 32.4335C31.9112 32.4621 41.838 32.9009 41.838 39.6292C41.838 46.3134 32.2572 46.7493 27.635 46.7778L25.9225 46.7778C21.5785 46.7492 11.6497 46.3109 11.6497 39.591C11.6497 32.8984 21.5785 32.462 25.9225 32.4335L26.4909 32.4316C26.5791 32.4315 26.6638 32.4315 26.7449 32.4315ZM26.7449 35.8065C21.3989 35.8065 15.0247 36.4635 15.0247 39.591C15.0247 42.6477 21.0185 43.3624 26.2563 43.4029L26.7449 43.4048C32.0909 43.4048 38.463 42.75 38.463 39.6292C38.463 36.4702 32.0909 35.8065 26.7449 35.8065ZM44.6405 31.5184C50.0923 32.3352 51.2376 34.8957 51.2376 36.9004C51.2376 38.1245 50.7561 40.3587 47.5386 41.5849C47.3405 41.6592 47.1381 41.6952 46.9378 41.6952C46.2583 41.6952 45.6171 41.2812 45.3605 40.6084C45.0275 39.7377 45.4663 38.7612 46.3371 38.4305C47.8625 37.85 47.8626 37.2087 47.8626 36.9004C47.8626 35.9149 46.6093 35.2264 44.1388 34.8575C43.2186 34.7179 42.5818 33.8607 42.7191 32.9359C42.8563 32.0134 43.7113 31.3992 44.6405 31.5184ZM10.7686 32.9359C10.9058 33.8607 10.2691 34.7179 9.34885 34.8575C6.87835 35.2264 5.6251 35.9149 5.6251 36.9004C5.6251 37.2087 5.6251 37.8477 7.15285 38.4305C8.0236 38.7612 8.46235 39.7377 8.12935 40.6084C7.87285 41.2812 7.2316 41.6952 6.5521 41.6952C6.35185 41.6952 6.14935 41.6592 5.95135 41.5849C2.7316 40.3564 2.2501 38.1222 2.2501 36.9004C2.2501 34.8979 3.39535 32.3352 8.84935 31.5184C9.7786 31.4014 10.6291 32.0134 10.7686 32.9359ZM26.7449 9C32.4149 9 37.0252 13.6125 37.0252 19.2802C37.0252 24.948 32.4149 29.5605 26.7449 29.5605H26.6842C23.9392 29.5515 21.3674 28.476 19.4414 26.532C17.5109 24.5903 16.4557 22.0118 16.4669 19.2735C16.4669 13.6125 21.0772 9 26.7449 9ZM26.7449 12.375C22.9379 12.375 19.8419 15.4732 19.8419 19.2802C19.8352 21.1252 20.5417 22.851 21.8354 24.1538C23.1292 25.4565 24.8527 26.1787 26.6887 26.1855L26.7449 27.873V26.1855C30.5519 26.1855 33.6502 23.0895 33.6502 19.2802C33.6502 15.4732 30.5519 12.375 26.7449 12.375ZM40.6702 11.2039C44.6257 11.8541 47.499 15.2381 47.499 19.2499C47.49 23.2886 44.4727 26.7536 40.479 27.3139C40.4002 27.3251 40.3214 27.3296 40.2449 27.3296C39.417 27.3296 38.6947 26.7199 38.5754 25.8761C38.4472 24.9514 39.0885 24.0986 40.0132 23.9704C42.3532 23.6419 44.1195 21.6124 44.124 19.2454C44.124 16.8986 42.4409 14.9141 40.1212 14.5339C39.2032 14.3831 38.5799 13.5146 38.7307 12.5944C38.8837 11.6741 39.7455 11.0576 40.6702 11.2039ZM14.7592 12.5944C14.9099 13.5146 14.2867 14.3831 13.3687 14.5339C11.0489 14.9141 9.36595 16.8986 9.36595 19.2499C9.37045 21.6124 11.1367 23.6441 13.4744 23.9704C14.3992 24.0986 15.0404 24.9514 14.9122 25.8761C14.7929 26.7199 14.0707 27.3296 13.2427 27.3296C13.1662 27.3296 13.0874 27.3251 13.0087 27.3139C9.01495 26.7536 5.99995 23.2886 5.99095 19.2544C5.99095 15.2381 8.8642 11.8541 12.8197 11.2039C13.7669 11.0554 14.6062 11.6786 14.7592 12.5944Z" fill="white"/>
</svg>
