<svg width="18" height="20" viewBox="0 0 18 20" fill="none" xmlns="http://www.w3.org/2000/svg">
<path fill-rule="evenodd" clip-rule="evenodd" d="M3 6C3 4.4087 3.63214 2.88258 4.75736 1.75736C5.88258 0.632141 7.4087 0 9 0C10.5913 0 12.1174 0.632141 13.2426 1.75736C14.3679 2.88258 15 4.4087 15 6V8.917C15 9.62 15.228 10.304 15.65 10.867L17.7 13.6C17.8671 13.8229 17.9689 14.0878 17.9939 14.3653C18.019 14.6427 17.9662 14.9217 17.8416 15.1708C17.7171 15.42 17.5256 15.6295 17.2886 15.776C17.0516 15.9224 16.7786 16 16.5 16H1.5C1.22143 16 0.948368 15.9224 0.711404 15.776C0.47444 15.6295 0.282939 15.42 0.15836 15.1708C0.0337806 14.9217 -0.0189552 14.6427 0.00606174 14.3653C0.0310787 14.0878 0.13286 13.8229 0.300001 13.6L2.35 10.867C2.77192 10.3044 3 9.6202 3 8.917V6ZM9 19.5C8.2462 19.4999 7.51255 19.2565 6.90811 18.8061C6.30366 18.3557 5.86068 17.7223 5.645 17H12.355C12.1393 17.7223 11.6963 18.3557 11.0919 18.8061C10.4874 19.2565 9.75381 19.4999 9 19.5Z" fill="#2B90D9"/>
</svg>
