<svg width="22" height="22" viewBox="0 0 22 22" fill="none" xmlns="http://www.w3.org/2000/svg">
<path fill-rule="evenodd" clip-rule="evenodd" d="M5.11495 5.11485C5.30831 4.92173 5.57041 4.81325 5.8437 4.81325C6.11698 4.81325 6.37909 4.92173 6.57245 5.11485L10.9999 9.54234L15.4274 5.11485C15.5219 5.01353 15.6357 4.93226 15.7622 4.8759C15.8887 4.81953 16.0253 4.78922 16.1637 4.78678C16.3022 4.78434 16.4397 4.80981 16.5681 4.86168C16.6966 4.91354 16.8132 4.99074 16.9111 5.08867C17.0091 5.18659 17.0862 5.30324 17.1381 5.43165C17.19 5.56006 17.2155 5.6976 17.213 5.83606C17.2106 5.97453 17.1803 6.11109 17.1239 6.23758C17.0675 6.36408 16.9863 6.47793 16.8849 6.57235L12.4574 10.9998L16.8849 15.4273C16.9863 15.5218 17.0675 15.6356 17.1239 15.7621C17.1803 15.8886 17.2106 16.0252 17.213 16.1636C17.2155 16.3021 17.19 16.4396 17.1381 16.568C17.0862 16.6964 17.0091 16.8131 16.9111 16.911C16.8132 17.0089 16.6966 17.0861 16.5681 17.138C16.4397 17.1899 16.3022 17.2153 16.1637 17.2129C16.0253 17.2105 15.8887 17.1802 15.7622 17.1238C15.6357 17.0674 15.5219 16.9862 15.4274 16.8848L10.9999 12.4573L6.57245 16.8848C6.37696 17.067 6.11839 17.1662 5.85123 17.1615C5.58406 17.1567 5.32916 17.0485 5.14022 16.8596C4.95127 16.6706 4.84305 16.4157 4.83833 16.1486C4.83362 15.8814 4.93279 15.6228 5.11495 15.4273L9.54245 10.9998L5.11495 6.57235C4.92183 6.37899 4.81335 6.11688 4.81335 5.84359C4.81335 5.57031 4.92183 5.3082 5.11495 5.11485V5.11485Z" fill="#282C37"/>
</svg>
