<svg width="24" height="18" viewBox="0 0 24 18" fill="none" xmlns="http://www.w3.org/2000/svg">
<path fill-rule="evenodd" clip-rule="evenodd" d="M1.5 18C1.5 18 0 18 0 16.5C0 15 1.5 10.5 9 10.5C16.5 10.5 18 15 18 16.5C18 18 16.5 18 16.5 18H1.5ZM9 9C10.1935 9 11.3381 8.52589 12.182 7.68198C13.0259 6.83807 13.5 5.69347 13.5 4.5C13.5 3.30653 13.0259 2.16193 12.182 1.31802C11.3381 0.474106 10.1935 0 9 0C7.80653 0 6.66193 0.474106 5.81802 1.31802C4.97411 2.16193 4.5 3.30653 4.5 4.5C4.5 5.69347 4.97411 6.83807 5.81802 7.68198C6.66193 8.52589 7.80653 9 9 9V9ZM18.219 4.719C18.2887 4.64916 18.3714 4.59374 18.4626 4.55593C18.5537 4.51812 18.6513 4.49866 18.75 4.49866C18.8487 4.49866 18.9463 4.51812 19.0374 4.55593C19.1286 4.59374 19.2113 4.64916 19.281 4.719L21 6.4395L22.719 4.719C22.8598 4.57817 23.0508 4.49905 23.25 4.49905C23.4492 4.49905 23.6402 4.57817 23.781 4.719C23.9218 4.85983 24.0009 5.05084 24.0009 5.25C24.0009 5.44916 23.9218 5.64017 23.781 5.781L22.0605 7.5L23.781 9.219C23.9218 9.35983 24.0009 9.55084 24.0009 9.75C24.0009 9.94916 23.9218 10.1402 23.781 10.281C23.6402 10.4218 23.4492 10.5009 23.25 10.5009C23.0508 10.5009 22.8598 10.4218 22.719 10.281L21 8.5605L19.281 10.281C19.1402 10.4218 18.9492 10.5009 18.75 10.5009C18.5508 10.5009 18.3598 10.4218 18.219 10.281C18.0782 10.1402 17.9991 9.94916 17.9991 9.75C17.9991 9.55084 18.0782 9.35983 18.219 9.219L19.9395 7.5L18.219 5.781C18.1492 5.71133 18.0937 5.62857 18.0559 5.53745C18.0181 5.44633 17.9987 5.34865 17.9987 5.25C17.9987 5.15135 18.0181 5.05367 18.0559 4.96255C18.0937 4.87143 18.1492 4.78867 18.219 4.719V4.719Z" fill="white"/>
</svg>
