<svg width="13" height="22" viewBox="0 0 13 22" fill="none" xmlns="http://www.w3.org/2000/svg">
<path fill-rule="evenodd" clip-rule="evenodd" d="M1.07997 21.17C1.29091 21.3807 1.57685 21.499 1.87497 21.499C2.1731 21.499 2.45903 21.3807 2.66997 21.17L12.045 11.795C12.2556 11.5841 12.374 11.2981 12.374 11C12.374 10.7019 12.2556 10.416 12.045 10.205L2.66997 0.830014C2.45671 0.631294 2.17464 0.523109 1.88319 0.528251C1.59174 0.533394 1.31366 0.651461 1.10754 0.857581C0.90142 1.0637 0.783351 1.34178 0.778208 1.63323C0.773066 1.92468 0.881252 2.20675 1.07997 2.42001L9.65997 11L1.07997 19.58C0.869296 19.791 0.750961 20.0769 0.750961 20.375C0.750961 20.6731 0.869296 20.9591 1.07997 21.17Z" fill="black" fill-opacity="0.87"/>
</svg>
