<svg width="24" height="24" viewBox="0 0 24 24" fill="none" xmlns="http://www.w3.org/2000/svg">
<path fill-rule="evenodd" clip-rule="evenodd" d="M14.67 19.1698C14.459 19.3804 14.1731 19.4988 13.875 19.4988C13.5768 19.4988 13.2909 19.3804 13.08 19.1698L6.70497 12.7948C6.4943 12.5838 6.37596 12.2979 6.37596 11.9998C6.37596 11.7016 6.4943 11.4157 6.70497 11.2048L13.08 4.82977C13.2932 4.63105 13.5753 4.52286 13.8668 4.52801C14.1582 4.53315 14.4363 4.65122 14.6424 4.85734C14.8485 5.06346 14.9666 5.34153 14.9717 5.63299C14.9769 5.92444 14.8687 6.20651 14.67 6.41977L9.08997 11.9998L14.67 17.5798C14.8806 17.7907 14.999 18.0766 14.999 18.3748C14.999 18.6729 14.8806 18.9588 14.67 19.1698V19.1698Z" fill="white"/>
</svg>
