<svg width="10" height="10" viewBox="0 0 10 10" fill="none" xmlns="http://www.w3.org/2000/svg">
<path fill-rule="evenodd" clip-rule="evenodd" d="M0.71995 0.720032C0.860576 0.579581 1.0512 0.500692 1.24995 0.500692C1.4487 0.500692 1.63933 0.579581 1.77995 0.720032L4.99995 3.94003L8.21995 0.720032C8.28861 0.646345 8.37141 0.587243 8.46341 0.546251C8.55541 0.505259 8.65473 0.483217 8.75543 0.48144C8.85613 0.479663 8.95616 0.498188 9.04955 0.535909C9.14294 0.57363 9.22777 0.629774 9.29899 0.700993C9.37021 0.772212 9.42635 0.857046 9.46407 0.950434C9.50179 1.04382 9.52032 1.14385 9.51854 1.24455C9.51677 1.34526 9.49472 1.44457 9.45373 1.53657C9.41274 1.62857 9.35364 1.71137 9.27995 1.78003L6.05995 5.00003L9.27995 8.22003C9.35364 8.28869 9.41274 8.37149 9.45373 8.46349C9.49472 8.55549 9.51677 8.65481 9.51854 8.75551C9.52032 8.85621 9.50179 8.95624 9.46407 9.04963C9.42635 9.14302 9.37021 9.22785 9.29899 9.29907C9.22777 9.37029 9.14294 9.42643 9.04955 9.46415C8.95616 9.50187 8.85613 9.5204 8.75543 9.51862C8.65473 9.51685 8.55541 9.4948 8.46341 9.45381C8.37141 9.41282 8.28861 9.35372 8.21995 9.28003L4.99995 6.06003L1.77995 9.28003C1.63778 9.41251 1.44973 9.48464 1.25543 9.48121C1.06113 9.47778 0.875742 9.39907 0.738329 9.26165C0.600916 9.12424 0.522204 8.93885 0.518775 8.74455C0.515347 8.55025 0.58747 8.36221 0.71995 8.22003L3.93995 5.00003L0.71995 1.78003C0.5795 1.63941 0.50061 1.44878 0.50061 1.25003C0.50061 1.05128 0.5795 0.860657 0.71995 0.720032Z" fill="#282C37"/>
</svg>