<svg width="60" height="60" viewBox="0 0 60 60" fill="none" xmlns="http://www.w3.org/2000/svg">
<path d="M47.5431 21.6152C44.8595 14.5312 38.0217 9.49219 30.0119 9.49219C22.0021 9.49219 15.1642 14.5254 12.4806 21.6094C7.43572 22.9395 3.72088 27.5508 3.75017 33.0234C3.78533 39.1406 8.53142 44.1152 14.508 44.6484C14.7834 44.6719 15.0177 44.4551 15.0177 44.1797V40.6406C15.0177 40.4063 14.842 40.207 14.6076 40.1777C13.0256 39.9785 11.5314 39.2871 10.383 38.1563C8.97673 36.7793 8.2033 34.9277 8.2033 32.9648C8.2033 31.3242 8.7365 29.7773 9.73845 28.4883C10.717 27.2344 12.0939 26.3262 13.6115 25.9277L15.8322 25.3418L16.6467 23.1914C17.1506 21.8555 17.8537 20.6016 18.7385 19.4707C19.6115 18.3457 20.6486 17.3613 21.8088 16.541C24.217 14.8477 27.0529 13.9512 30.0119 13.9512C32.9709 13.9512 35.8068 14.8477 38.215 16.5469C39.381 17.3672 40.4123 18.3516 41.2853 19.4766C42.1701 20.6074 42.8732 21.8613 43.3771 23.1973L44.1857 25.3418L46.4006 25.9277C49.5763 26.7715 51.797 29.6602 51.797 32.959C51.797 34.9277 51.0236 36.7734 49.6174 38.1504C48.4748 39.2754 46.9865 39.9727 45.4045 40.1719C45.1701 40.2012 45.0002 40.4004 45.0002 40.6348V44.1797C45.0002 44.4551 45.2404 44.6719 45.5158 44.6484C51.4748 44.1094 56.2091 39.1406 56.2502 33.0352C56.2853 27.5625 52.5763 22.9512 47.5431 21.6152Z" fill="white"/>
<path d="M22.084 38.4609C22.1894 36.498 23.0039 34.6699 24.3984 33.2695C25.8867 31.7754 27.914 30.9375 30.0234 30.9375C32.1445 30.9375 34.1426 31.7637 35.6484 33.2695C35.7304 33.3516 35.8066 33.4336 35.8886 33.5215L34.4238 34.6699C34.354 34.7239 34.3009 34.7965 34.2705 34.8793C34.2401 34.9622 34.2338 35.0519 34.2521 35.1382C34.2705 35.2245 34.3128 35.3039 34.3743 35.3672C34.4358 35.4305 34.5139 35.4752 34.5996 35.4961L40.3535 36.9023C40.6465 36.9727 40.9336 36.75 40.9336 36.4512L40.9629 30.5156C40.9629 30.123 40.5176 29.9004 40.207 30.1465L38.8476 31.2129C36.7031 28.752 33.5508 27.1934 30.0293 27.1934C23.7363 27.1934 18.6035 32.1797 18.3457 38.4258C18.334 38.6894 18.5449 38.9121 18.8144 38.9121H21.6211C21.8672 38.9062 22.0722 38.7129 22.084 38.4609ZM41.1914 38.9062H38.3847C38.1386 38.9062 37.9336 39.0996 37.916 39.3516C37.8105 41.3144 36.9961 43.1426 35.6015 44.543C34.1133 46.0371 32.0859 46.875 29.9765 46.875C27.8554 46.875 25.8574 46.0488 24.3515 44.543C24.2695 44.4609 24.1933 44.3789 24.1113 44.291L25.5761 43.1426C25.6459 43.0886 25.6991 43.016 25.7294 42.9331C25.7598 42.8503 25.7662 42.7606 25.7478 42.6743C25.7295 42.588 25.6871 42.5086 25.6256 42.4453C25.5642 42.382 25.4861 42.3373 25.4004 42.3164L19.6465 40.9102C19.3535 40.8398 19.0664 41.0625 19.0664 41.3613L19.0429 47.3027C19.0429 47.6953 19.4883 47.918 19.7988 47.6719L21.1582 46.6055C23.3027 49.0664 26.4551 50.625 29.9765 50.625C36.2695 50.625 41.4023 45.6387 41.6601 39.3926C41.6718 39.1289 41.4609 38.9062 41.1914 38.9062Z" fill="white"/>
</svg>
