<svg width="32" height="30" viewBox="0 0 32 30" fill="none" xmlns="http://www.w3.org/2000/svg">
<path fill-rule="evenodd" clip-rule="evenodd" d="M17.3764 26.0279L26.1628 14.6654C26.6403 14.0527 26.8101 13.3443 26.6509 12.623C26.513 11.9673 26.1097 11.3438 25.5049 10.8708L24.0299 9.69906C22.7459 8.67784 21.1541 8.78534 20.2415 9.95706L19.2546 11.2373C19.1273 11.3975 19.1591 11.634 19.3183 11.763C19.3183 11.763 21.812 13.7625 21.8651 13.8055C22.0349 13.9667 22.1622 14.1817 22.1941 14.4397C22.2471 14.9449 21.8969 15.4179 21.377 15.4824C21.1329 15.5147 20.8994 15.4394 20.7297 15.2997L18.1086 13.2142C17.9813 13.1186 17.7902 13.139 17.6841 13.268L11.4551 21.3303C11.0519 21.8355 10.9139 22.4912 11.0519 23.1255L11.8478 26.5761C11.8902 26.7589 12.0494 26.8879 12.2404 26.8879L15.7422 26.8449C16.3789 26.8341 16.9732 26.5439 17.3764 26.0279ZM22.2797 24.9533H27.9898C28.5469 24.9533 29 25.4123 29 25.9767C29 26.5421 28.5469 27.0001 27.9898 27.0001H22.2797C21.7226 27.0001 21.2695 26.5421 21.2695 25.9767C21.2695 25.4123 21.7226 24.9533 22.2797 24.9533Z" fill="white"/>
<path d="M2 8C2 4.68629 4.68629 2 8 2C11.3137 2 14 4.68629 14 8C14 11.3137 11.3137 14 8 14C4.68629 14 2 11.3137 2 8Z" stroke="white" stroke-width="2" stroke-linecap="round" stroke-linejoin="round"/>
<path d="M5.3335 8.00008L7.3335 10.0001L10.6668 6.66675" stroke="white" stroke-width="2" stroke-linecap="round" stroke-linejoin="round"/>
</svg>
