<svg width="160" height="160" viewBox="0 0 160 160" fill="none" xmlns="http://www.w3.org/2000/svg">
<path d="M80 133.333C83.6819 133.333 86.6667 130.349 86.6667 126.667C86.6667 122.985 83.6819 120 80 120C76.3181 120 73.3333 122.985 73.3333 126.667C73.3333 130.349 76.3181 133.333 80 133.333Z" fill="#C5C5C5"/>
<path d="M82.9334 73.3333L70.2667 60.7333L53.8668 44.4666L43.5334 34.1333L31.4001 21.9333C30.7785 21.3117 30.0406 20.8186 29.2284 20.4822C28.4163 20.1458 27.5458 19.9727 26.6668 19.9727C25.7877 19.9727 24.9172 20.1458 24.1051 20.4822C23.2929 20.8186 22.555 21.3117 21.9334 21.9333C20.6781 23.1886 19.9728 24.8913 19.9728 26.6666C19.9728 28.4419 20.6781 30.1446 21.9334 31.3999L31.1334 40.5333L40.8668 50.2666L55.7334 65.1999L66.0668 75.4666L84.3334 93.7333L102.933 112.4L128.6 138.067C129.22 138.691 129.957 139.187 130.77 139.526C131.582 139.864 132.453 140.039 133.333 140.039C134.213 140.039 135.085 139.864 135.897 139.526C136.71 139.187 137.447 138.691 138.067 138.067C138.692 137.447 139.188 136.71 139.526 135.897C139.864 135.085 140.039 134.213 140.039 133.333C140.039 132.453 139.864 131.582 139.526 130.769C139.188 129.957 138.692 129.22 138.067 128.6L82.9334 73.3333ZM144.8 52.8666C127.436 36.0277 104.188 26.6279 80.0001 26.6666C69.9365 26.6939 59.9426 28.337 50.4001 31.5333L61.2001 42.3333C74.2787 39.0653 87.9747 39.1869 100.993 42.6865C114.012 46.1861 125.923 52.9481 135.6 62.3333C136.836 63.5245 138.484 64.1931 140.2 64.1999C141.098 64.1965 141.986 64.0117 142.811 63.6565C143.636 63.3014 144.38 62.7833 145 62.1333C146.175 60.8644 146.811 59.1885 146.774 57.4595C146.737 55.7305 146.029 54.0836 144.8 52.8666V52.8666ZM25.4668 44.3333C21.8496 46.9347 18.419 49.7861 15.2001 52.8666C14.075 54.1176 13.4646 55.7478 13.4912 57.4301C13.5179 59.1124 14.1796 60.7225 15.3438 61.9372C16.5079 63.152 18.0884 63.8816 19.768 63.9798C21.4477 64.078 23.1023 63.5375 24.4001 62.4666C27.7248 59.3248 31.2913 56.4493 35.0668 53.8666L25.4668 44.3333ZM113.333 87.5999C113.951 88.2299 114.687 88.731 115.5 89.0743C116.312 89.4176 117.185 89.5963 118.067 89.5999C119.37 89.595 120.642 89.2084 121.728 88.488C122.813 87.7676 123.664 86.7449 124.175 85.5463C124.685 84.3477 124.834 83.0258 124.601 81.7439C124.369 80.462 123.766 79.2763 122.867 78.3333C117.306 72.5717 110.649 67.9813 103.287 64.8327C95.9249 61.6841 88.0071 60.0409 80.0001 59.9999H78.9334L94.6001 75.6666C101.714 78.0787 108.14 82.1724 113.333 87.5999V87.5999ZM49.5334 68.3999C44.8748 71.1133 40.6125 74.4559 36.8668 78.3333C35.6379 79.6328 34.9757 81.3673 35.0257 83.1552C35.0757 84.943 35.8339 86.6378 37.1334 87.8666C38.433 89.0954 40.1675 89.7577 41.9553 89.7077C43.7432 89.6577 45.4379 88.8995 46.6668 87.5999C50.5506 83.7387 55.0584 80.5607 60.0001 78.1999L49.5334 68.3999ZM56.8668 102.667C55.5937 103.895 54.861 105.58 54.8297 107.349C54.8142 108.225 54.9714 109.095 55.2924 109.91C55.6133 110.726 56.0916 111.47 56.7001 112.1C57.3085 112.73 58.0352 113.235 58.8386 113.584C59.6419 113.934 60.5063 114.122 61.3822 114.137C63.1513 114.168 64.8604 113.495 66.1334 112.267C69.5655 109.101 73.9796 107.209 78.6386 106.906C83.2977 106.602 87.9199 107.906 91.7334 110.6L74.9334 93.7999C68.1415 94.8235 61.8316 97.9202 56.8668 102.667V102.667Z" fill="#C5C5C5"/>
</svg>
