<svg width="14" height="13" viewBox="0 0 14 13" fill="none" xmlns="http://www.w3.org/2000/svg">
<mask id="mask0_3372_2474" style="mask-type:alpha" maskUnits="userSpaceOnUse" x="0" y="0" width="14" height="14">
<path fill-rule="evenodd" clip-rule="evenodd" d="M0 0H13.6483V13.0007H0V0Z" fill="white"/>
</mask>
<g mask="url(#mask0_3372_2474)">
<path fill-rule="evenodd" clip-rule="evenodd" d="M1.21579 6.08205C2.15046 8.99005 5.84313 11.3414 6.82446 11.9234C7.80913 11.3354 11.5285 8.95805 12.4331 6.08472C13.0271 4.22739 12.4758 1.87472 10.2851 1.16872C9.22379 0.828053 7.98579 1.03539 7.13113 1.69672C6.95246 1.83405 6.70446 1.83672 6.52446 1.70072C5.61913 1.02005 4.43646 0.820719 3.35846 1.16872C1.17113 1.87405 0.621793 4.22672 1.21579 6.08205M6.82512 13.0007C6.74245 13.0007 6.66045 12.9807 6.58579 12.9401C6.37712 12.8261 1.46179 10.1167 0.263788 6.38741C0.263121 6.38741 0.263121 6.38675 0.263121 6.38675C-0.488879 4.03875 0.348455 1.08808 3.05179 0.216745C4.32112 -0.193921 5.70445 -0.0132546 6.82312 0.692745C7.90712 0.00741205 9.34712 -0.181921 10.5911 0.216745C13.2971 1.08941 14.1371 4.03941 13.3858 6.38675C12.2265 10.0734 7.27512 12.8234 7.06512 12.9387C6.99045 12.9801 6.90779 13.0007 6.82512 13.0007" fill="white"/>
</g>
<path fill-rule="evenodd" clip-rule="evenodd" d="M10.7692 5.08335C10.5112 5.08335 10.2925 4.88535 10.2712 4.62401C10.2272 4.07601 9.86048 3.61335 9.33848 3.44468C9.07515 3.35935 8.93115 3.07735 9.01582 2.81535C9.10182 2.55268 9.38115 2.41001 9.64515 2.49268C10.5538 2.78668 11.1905 3.59135 11.2685 4.54268C11.2905 4.81801 11.0858 5.05935 10.8105 5.08135C10.7965 5.08268 10.7832 5.08335 10.7692 5.08335" fill="white"/>
</svg>
