<svg width="48" height="48" viewBox="0 0 48 48" fill="none" xmlns="http://www.w3.org/2000/svg">
<circle cx="24" cy="24" r="24" fill="#2B90D9"/>
<path fill-rule="evenodd" clip-rule="evenodd" d="M28.9394 16C30.2804 16 31.5704 16.53 32.5194 17.481C33.4694 18.43 34.0004 19.71 34.0004 21.05V28.95C34.0004 31.74 31.7304 34 28.9394 34H19.0604C16.2694 34 14.0004 31.74 14.0004 28.95V21.05C14.0004 18.26 16.2594 16 19.0604 16H28.9394ZM30.5304 22.54L30.6104 22.46C30.8494 22.17 30.8494 21.75 30.5994 21.46C30.4604 21.311 30.2694 21.22 30.0704 21.2C29.8604 21.189 29.6604 21.26 29.5094 21.4L25.0004 25C24.4204 25.481 23.5894 25.481 23.0004 25L18.5004 21.4C18.1894 21.17 17.7594 21.2 17.5004 21.47C17.2304 21.74 17.2004 22.17 17.4294 22.47L17.5604 22.6L22.1104 26.15C22.6704 26.59 23.3494 26.83 24.0604 26.83C24.7694 26.83 25.4604 26.59 26.0194 26.15L30.5304 22.54Z" fill="white"/>
</svg>
