<svg width="45" height="45" viewBox="0 0 45 45" fill="none" xmlns="http://www.w3.org/2000/svg">
<circle cx="22.5" cy="22.5" r="22.5" fill="white"/>
<path fill-rule="evenodd" clip-rule="evenodd" d="M19.4906 17.6667C18.1046 17.6667 16.6666 18.9201 16.6666 20.6761C16.6666 22.7474 18.216 24.6494 19.9073 26.0894C20.8534 26.8888 21.8726 27.5974 22.9513 28.2061L23 28.2334L23.0486 28.2067C23.2293 28.1047 23.4893 27.9534 23.802 27.7574C24.4286 27.3654 25.262 26.7967 26.0926 26.0894C27.784 24.6494 29.3333 22.7474 29.3333 20.6761C29.3333 18.9201 27.8953 17.6667 26.5093 17.6667C25.1053 17.6667 23.9753 18.5927 23.474 20.0954C23.4406 20.1947 23.3769 20.2811 23.2919 20.3422C23.2068 20.4034 23.1047 20.4363 23 20.4363C22.8952 20.4363 22.7931 20.4034 22.708 20.3422C22.623 20.2811 22.5593 20.1947 22.526 20.0954C22.0246 18.5927 20.894 17.6667 19.4906 17.6667ZM23 28.8021L23.2286 29.2467C23.1579 29.2831 23.0795 29.3021 23 29.3021C22.9204 29.3021 22.842 29.2831 22.7713 29.2467L23 28.8021ZM15.6666 20.6754C15.6666 18.3687 17.5526 16.6667 19.4906 16.6667C21.02 16.6667 22.254 17.4841 23 18.7367C23.7466 17.4841 24.98 16.6667 26.5093 16.6667C28.4466 16.6667 30.3333 18.3681 30.3333 20.6761C30.3333 23.2214 28.466 25.3827 26.7406 26.8507C25.6618 27.762 24.4929 28.5608 23.252 29.2347L23.2353 29.2434L23.2306 29.2454L23.2293 29.2461L23 28.8021L22.7713 29.2467L22.7693 29.2454L22.7646 29.2434L22.748 29.2347C22.3809 29.0366 22.0203 28.8267 21.6666 28.6054C20.8232 28.0789 20.0187 27.4925 19.2593 26.8507C17.5333 25.3821 15.6666 23.2214 15.6666 20.6761V20.6754Z" fill="#2B90D9"/>
</svg>
