<svg width="48" height="48" viewBox="0 0 48 48" fill="none" xmlns="http://www.w3.org/2000/svg">
<circle cx="24" cy="24" r="24" fill="#2B90D9"/>
<g clip-path="url(#clip0_3745_4451)">
<path fill-rule="evenodd" clip-rule="evenodd" d="M21.75 20.25C21.7505 18.9808 22.1535 17.7445 22.901 16.7187C23.6485 15.693 24.702 14.9308 25.91 14.5415C27.1181 14.1523 28.4184 14.1562 29.6241 14.5526C30.8298 14.9491 31.8787 15.7176 32.6201 16.7478C33.3614 17.778 33.757 19.0167 33.7499 20.2859C33.7428 21.555 33.3335 22.7893 32.5807 23.8111C31.8279 24.833 30.7705 25.5898 29.5605 25.9728C28.3504 26.3558 27.0501 26.3452 25.8465 25.9425C25.6484 25.8761 25.4356 25.8661 25.2321 25.9138C25.0287 25.9615 24.8425 26.0649 24.6945 26.2125L23.16 27.75H21.375C21.0766 27.75 20.7905 27.8685 20.5795 28.0795C20.3685 28.2905 20.25 28.5766 20.25 28.875V30.66L20.16 30.75H18.375C18.0766 30.75 17.7905 30.8685 17.5795 31.0795C17.3685 31.2905 17.25 31.5766 17.25 31.875V33.66L17.16 33.75H14.625C14.5255 33.75 14.4302 33.7105 14.3598 33.6402C14.2895 33.5698 14.25 33.4745 14.25 33.375V30.84L21.786 23.3055C21.9338 23.1577 22.0375 22.9716 22.0855 22.7681C22.1334 22.5646 22.1238 22.3518 22.0575 22.1535C21.8529 21.5398 21.7491 20.8969 21.75 20.25ZM27.75 12C26.5021 11.9998 25.2705 12.2827 24.1478 12.8273C23.025 13.3719 22.0405 14.1642 21.2682 15.1444C20.496 16.1246 19.9561 17.2672 19.6893 18.4862C19.4226 19.7052 19.4358 20.9688 19.728 22.182L12.33 29.58C12.119 29.7908 12.0003 30.0767 12 30.375V33.375C12 34.824 13.176 36 14.625 36H17.625C17.9233 35.9997 18.2092 35.881 18.42 35.67L19.17 34.92C19.381 34.7092 19.4997 34.4233 19.5 34.125V33H20.625C20.9233 32.9997 21.2092 32.881 21.42 32.67L22.17 31.92C22.381 31.7092 22.4997 31.4233 22.5 31.125V30H23.625C23.9233 29.9997 24.2092 29.881 24.42 29.67L25.818 28.272C26.9508 28.544 28.1284 28.573 29.2732 28.3571C30.418 28.1411 31.5041 27.6852 32.46 27.0192C33.416 26.3533 34.22 25.4924 34.8192 24.4933C35.4184 23.4943 35.7992 22.3796 35.9366 21.2227C36.0739 20.0658 35.9647 18.893 35.6161 17.7813C35.2675 16.6697 34.6874 15.6445 33.914 14.7732C33.1406 13.902 32.1915 13.2044 31.1291 12.7264C30.0666 12.2484 28.915 12.0008 27.75 12ZM28.5 21C28.8978 21 29.2794 20.842 29.5607 20.5607C29.842 20.2794 30 19.8978 30 19.5C30 19.1022 29.842 18.7206 29.5607 18.4393C29.2794 18.158 28.8978 18 28.5 18C28.1022 18 27.7206 18.158 27.4393 18.4393C27.158 18.7206 27 19.1022 27 19.5C27 19.8978 27.158 20.2794 27.4393 20.5607C27.7206 20.842 28.1022 21 28.5 21Z" fill="white"/>
</g>
<defs>
<clipPath id="clip0_3745_4451">
<rect width="24" height="24" fill="white" transform="translate(12 12)"/>
</clipPath>
</defs>
</svg>
