<svg width="128" height="128" viewBox="0 0 128 128" fill="none" xmlns="http://www.w3.org/2000/svg">
<rect width="128" height="128" rx="20" fill="#0099FF"/>
<path fill-rule="evenodd" clip-rule="evenodd" d="M46.8323 61.8768C46.8323 65.5758 49.8428 68.5864 53.544 68.5864H56.325C57.2565 68.5864 58.0125 69.3424 58.0125 70.2739C58.0125 71.2054 57.2565 71.9614 56.325 71.9614H53.544C47.982 71.9614 43.4573 67.4366 43.4573 61.8768L43.4552 54.3965L40.9375 54.3985C40.006 54.3985 39.25 53.6425 39.25 52.711C39.25 51.7795 40.006 51.0235 40.9375 51.0235L45.1126 51.0209C45.1233 51.0207 45.134 51.0206 45.1448 51.0206L45.1765 51.0215L83.9458 51.0209C83.9572 51.0207 83.9686 51.0206 83.98 51.0206L84.0115 51.0215L88.1875 51.0235C89.119 51.0235 89.875 51.7795 89.875 52.711C89.875 53.6425 89.119 54.3985 88.1875 54.3985L85.6675 54.3965V61.8768C85.6675 67.4366 81.1427 71.9614 75.5807 71.9614H72.8695C71.938 71.9614 71.182 71.2054 71.182 70.2739C71.182 69.3424 71.938 68.5864 72.8695 68.5864H75.5807C79.282 68.5864 82.2925 65.5758 82.2925 61.8768V54.3965H46.8302L46.8323 61.8768ZM75.5805 29.75C81.1425 29.75 85.6673 34.2747 85.6673 39.8322V43.2387C85.6673 44.1702 84.9113 44.9262 83.9798 44.9262C83.0483 44.9262 82.2923 44.1702 82.2923 43.2387V39.8322C82.2923 36.1355 79.2818 33.125 75.5805 33.125H72.8693C71.9378 33.125 71.1818 32.369 71.1818 31.4375C71.1818 30.506 71.9378 29.75 72.8693 29.75H75.5805ZM56.3255 29.75C57.257 29.75 58.013 30.506 58.013 31.4375C58.013 32.369 57.257 33.125 56.3255 33.125H53.5445C49.8432 33.125 46.8327 36.1355 46.8327 39.8322V43.2387C46.8327 44.1702 46.0767 44.9262 45.1452 44.9262C44.2137 44.9262 43.4577 44.1702 43.4577 43.2387V39.8322C43.4577 34.2747 47.9825 29.75 53.5445 29.75H56.3255Z" fill="white"/>
</svg>
