<svg width="45" height="45" viewBox="0 0 45 45" fill="none" xmlns="http://www.w3.org/2000/svg">
<circle cx="22.5" cy="22.5" r="22.5" fill="#DF2C2C"/>
<path fill-rule="evenodd" clip-rule="evenodd" d="M25.6667 16.1667V17H29.1667C29.2993 17 29.4265 17.0527 29.5203 17.1464C29.614 17.2402 29.6667 17.3674 29.6667 17.5C29.6667 17.6326 29.614 17.7598 29.5203 17.8536C29.4265 17.9473 29.2993 18 29.1667 18H16.8334C16.7008 18 16.5736 17.9473 16.4798 17.8536C16.3861 17.7598 16.3334 17.6326 16.3334 17.5C16.3334 17.3674 16.3861 17.2402 16.4798 17.1464C16.5736 17.0527 16.7008 17 16.8334 17H20.3334V16.1667C20.3334 15.5227 20.856 15 21.5 15H24.5C25.144 15 25.6667 15.5227 25.6667 16.1667ZM21.3334 16.1667C21.3334 16.1225 21.3509 16.0801 21.3822 16.0488C21.4134 16.0176 21.4558 16 21.5 16H24.5C24.5442 16 24.5866 16.0176 24.6179 16.0488C24.6491 16.0801 24.6667 16.1225 24.6667 16.1667V17H21.3334V16.1667Z" fill="white"/>
<path d="M18.3314 19.1187C18.3257 19.0529 18.307 18.9889 18.2764 18.9303C18.2458 18.8717 18.2039 18.8198 18.1531 18.7776C18.1023 18.7353 18.0437 18.7035 17.9805 18.684C17.9174 18.6646 17.851 18.6578 17.7852 18.6642C17.7195 18.6705 17.6556 18.6898 17.5974 18.721C17.5391 18.7522 17.4876 18.7946 17.4458 18.8458C17.4041 18.897 17.3729 18.9559 17.354 19.0193C17.3352 19.0826 17.3291 19.149 17.3361 19.2147L18.2774 28.9467C18.3055 29.2352 18.4401 29.5028 18.6547 29.6976C18.8694 29.8923 19.1489 30.0001 19.4387 30.0001H26.5614C26.8513 30.0001 27.1309 29.8922 27.3456 29.6973C27.5603 29.5025 27.6947 29.2346 27.7227 28.9461L28.6647 19.2147C28.6775 19.0827 28.6372 18.9509 28.5528 18.8485C28.4684 18.7461 28.3468 18.6815 28.2147 18.6687C28.0826 18.656 27.9509 18.6963 27.8485 18.7806C27.7461 18.865 27.6815 18.9867 27.6687 19.1187L26.7274 28.8494C26.7234 28.8907 26.7042 28.929 26.6735 28.9568C26.6428 28.9847 26.6028 29.0001 26.5614 29.0001H19.4387C19.3973 29.0001 19.3573 28.9847 19.3266 28.9568C19.2959 28.929 19.2767 28.8907 19.2727 28.8494L18.3314 19.1187Z" fill="white"/>
<path d="M21.1373 20.0007C21.2029 19.9968 21.2686 20.0059 21.3307 20.0274C21.3927 20.049 21.4499 20.0825 21.499 20.1262C21.5481 20.1698 21.5881 20.2227 21.6168 20.2818C21.6454 20.3409 21.6621 20.4051 21.666 20.4707L21.9993 26.1374C22.0071 26.2699 21.9619 26.4001 21.8737 26.4993C21.7855 26.5985 21.6615 26.6586 21.529 26.6664C21.3965 26.6742 21.2663 26.629 21.1671 26.5408C21.0679 26.4526 21.0078 26.3286 21 26.196L20.6666 20.5294C20.6628 20.4638 20.6718 20.3981 20.6934 20.336C20.7149 20.274 20.7484 20.2167 20.7921 20.1676C20.8357 20.1185 20.8886 20.0785 20.9478 20.0499C21.0069 20.0212 21.0711 20.0045 21.1366 20.0007H21.1373ZM25.3326 20.5294C25.3404 20.3969 25.2952 20.2667 25.207 20.1675C25.1188 20.0683 24.9948 20.0082 24.8623 20.0004C24.7298 19.9926 24.5996 20.0378 24.5004 20.126C24.4012 20.2142 24.3411 20.3382 24.3333 20.4707L24 26.1374C23.9922 26.2698 24.0373 26.3999 24.1255 26.499C24.2136 26.5982 24.3375 26.6583 24.47 26.666C24.6024 26.6738 24.7325 26.6287 24.8316 26.5405C24.9308 26.4524 24.9909 26.3285 24.9986 26.196L25.332 20.5294H25.3326Z" fill="white"/>
</svg>
