<svg width="16" height="16" viewBox="0 0 16 16" xmlns="http://www.w3.org/2000/svg">
<path d="M13.4444 1.6H10.1933C9.86667 0.672 9.01111 0 8 0C6.98889 0 6.13333 0.672 5.80667 1.6H2.55556C1.7 1.6 1 2.32 1 3.2V14.4C1 15.28 1.7 16 2.55556 16H13.4444C14.3 16 15 15.28 15 14.4V3.2C15 2.32 14.3 1.6 13.4444 1.6ZM8 1.6C8.42778 1.6 8.77778 1.96 8.77778 2.4C8.77778 2.84 8.42778 3.2 8 3.2C7.57222 3.2 7.22222 2.84 7.22222 2.4C7.22222 1.96 7.57222 1.6 8 1.6ZM8 4.8C9.29111 4.8 10.3333 5.872 10.3333 7.2C10.3333 8.528 9.29111 9.6 8 9.6C6.70889 9.6 5.66667 8.528 5.66667 7.2C5.66667 5.872 6.70889 4.8 8 4.8ZM12.6667 14.4H3.33333V13.28C3.33333 11.68 6.44444 10.8 8 10.8C9.55556 10.8 12.6667 11.68 12.6667 13.28V14.4Z" 
/>
</svg>
