<svg width="334" height="186" viewBox="0 0 334 186" fill="none" xmlns="http://www.w3.org/2000/svg">
<path d="M329.999 179C323.878 188.738 2.5136 187.92 3.00055 178.999C9.12186 169.263 330.486 170.08 329.999 179Z" fill="#F2F2F2"/>
<g clip-path="url(#clip0_3013_2167)">
<path d="M249.182 148.613H139.411V178.352H249.182V148.613Z" fill="#3F3D56"/>
<path d="M249.31 178.406H139.283V14.3311H249.31V178.406ZM139.796 177.893H248.797V14.8438H139.796V177.893Z" fill="#2F2E41"/>
<path d="M249.182 18.2236H139.667V18.7364H249.182V18.2236Z" fill="#2F2E41"/>
<path d="M142.489 17.4074C143.055 17.4074 143.515 16.9483 143.515 16.3819C143.515 15.8156 143.055 15.3564 142.489 15.3564C141.922 15.3564 141.463 15.8156 141.463 16.3819C141.463 16.9483 141.922 17.4074 142.489 17.4074Z" fill="#FF6D6D"/>
<path d="M145.31 17.4074C145.877 17.4074 146.336 16.9483 146.336 16.3819C146.336 15.8156 145.877 15.3564 145.31 15.3564C144.743 15.3564 144.284 15.8156 144.284 16.3819C144.284 16.9483 144.743 17.4074 145.31 17.4074Z" fill="#96E494"/>
<path d="M148.131 17.4074C148.697 17.4074 149.157 16.9483 149.157 16.3819C149.157 15.8156 148.697 15.3564 148.131 15.3564C147.564 15.3564 147.105 15.8156 147.105 16.3819C147.105 16.9483 147.564 17.4074 148.131 17.4074Z" fill="#C4C4C4"/>
<path d="M167.11 98.6758H152.234V100.214H167.11V98.6758Z" fill="#F2F2F2"/>
<path d="M166.306 102.009H152.234V103.547H166.306V102.009Z" fill="#F2F2F2"/>
<path d="M162.487 105.342H152.234V106.88H162.487V105.342Z" fill="#F2F2F2"/>
<path d="M201.734 98.6758H186.858V100.214H201.734V98.6758Z" fill="#F2F2F2"/>
<path d="M200.93 102.009H186.858V103.547H200.93V102.009Z" fill="#F2F2F2"/>
<path d="M197.11 105.342H186.858V106.88H197.11V105.342Z" fill="#F2F2F2"/>
<path d="M237.64 98.6758H222.765V100.214H237.64V98.6758Z" fill="#F2F2F2"/>
<path d="M236.836 102.009H222.765V103.547H236.836V102.009Z" fill="#F2F2F2"/>
<path d="M233.017 105.342H222.765V106.88H233.017V105.342Z" fill="#F2F2F2"/>
<path opacity="0.3" d="M169.162 78.6797H150.182V95.5999H169.162V78.6797Z" fill="#2B90D9"/>
<path d="M203.786 78.6797H184.807V95.5999H203.786V78.6797Z" fill="#3F3D56"/>
<path d="M239.692 78.6797H220.713V95.5999H239.692V78.6797Z" fill="#3F3D56"/>
<path d="M156.347 157.264H143.641V158.921H156.347V157.264Z" fill="#2B90D9"/>
<path d="M153.033 160.026H143.641V160.855H153.033V160.026Z" fill="#F2F2F2"/>
<path d="M153.033 161.684H143.641V162.512H153.033V161.684Z" fill="#F2F2F2"/>
<path d="M153.033 163.341H143.641V164.169H153.033V163.341Z" fill="#F2F2F2"/>
<path d="M153.033 164.998H143.641V165.827H153.033V164.998Z" fill="#F2F2F2"/>
<path d="M153.033 166.655H143.641V167.484H153.033V166.655Z" fill="#F2F2F2"/>
<path d="M175.131 157.264H162.425V158.921H175.131V157.264Z" fill="#2B90D9"/>
<path d="M171.817 160.026H162.425V160.855H171.817V160.026Z" fill="#F2F2F2"/>
<path d="M171.817 161.684H162.425V162.512H171.817V161.684Z" fill="#F2F2F2"/>
<path d="M171.817 163.341H162.425V164.169H171.817V163.341Z" fill="#F2F2F2"/>
<path d="M171.817 164.998H162.425V165.827H171.817V164.998Z" fill="#F2F2F2"/>
<path d="M171.817 166.655H162.425V167.484H171.817V166.655Z" fill="#F2F2F2"/>
<path d="M193.915 157.264H181.208V158.921H193.915V157.264Z" fill="#2B90D9"/>
<path d="M190.6 160.026H181.208V160.855H190.6V160.026Z" fill="#F2F2F2"/>
<path d="M190.6 161.684H181.208V162.512H190.6V161.684Z" fill="#F2F2F2"/>
<path d="M190.6 163.341H181.208V164.169H190.6V163.341Z" fill="#F2F2F2"/>
<path d="M190.6 164.998H181.208V165.827H190.6V164.998Z" fill="#F2F2F2"/>
<path d="M190.6 166.655H181.208V167.484H190.6V166.655Z" fill="#F2F2F2"/>
<path d="M113.122 169.562C124.312 169.562 133.384 160.494 133.384 149.309C133.384 138.123 124.312 129.056 113.122 129.056C101.932 129.056 92.8607 138.123 92.8607 149.309C92.8607 160.494 101.932 169.562 113.122 169.562Z" fill="#2F2E41"/>
<path d="M110.045 165.203H103.89V176.227H110.045V165.203Z" fill="#2F2E41"/>
<path d="M122.355 165.203H116.2V176.227H122.355V165.203Z" fill="#2F2E41"/>
<path d="M109.019 178.278C111.852 178.278 114.149 177.417 114.149 176.355C114.149 175.293 111.852 174.433 109.019 174.433C106.186 174.433 103.89 175.293 103.89 176.355C103.89 177.417 106.186 178.278 109.019 178.278Z" fill="#2F2E41"/>
<path d="M121.329 178.021C124.162 178.021 126.459 177.16 126.459 176.099C126.459 175.037 124.162 174.176 121.329 174.176C118.496 174.176 116.2 175.037 116.2 176.099C116.2 177.16 118.496 178.021 121.329 178.021Z" fill="#2F2E41"/>
<path d="M113.636 151.103C117.46 151.103 120.561 148.004 120.561 144.181C120.561 140.358 117.46 137.259 113.636 137.259C109.811 137.259 106.711 140.358 106.711 144.181C106.711 148.004 109.811 151.103 113.636 151.103Z" fill="white"/>
<path d="M113.635 143.411C114.91 143.411 115.943 142.378 115.943 141.104C115.943 139.83 114.91 138.797 113.635 138.797C112.36 138.797 111.327 139.83 111.327 141.104C111.327 142.378 112.36 143.411 113.635 143.411Z" fill="#3F3D56"/>
<path d="M93.4681 130.474C91.8321 123.15 97.0618 115.75 105.149 113.945C113.236 112.14 121.118 116.614 122.754 123.938C124.39 131.261 119.031 133.962 110.944 135.767C102.856 137.573 95.1041 137.798 93.4681 130.474Z" fill="#2B90D9"/>
<path d="M131.337 128.238C133.695 123.166 134.315 118.455 132.722 117.715C131.13 116.975 127.927 120.487 125.569 125.559C123.211 130.631 122.591 135.342 124.184 136.082C125.777 136.822 128.98 133.31 131.337 128.238Z" fill="#2F2E41"/>
<path d="M96.0039 142.001C97.5563 141.179 96.6929 136.506 94.0754 131.563C91.4578 126.62 88.0775 123.279 86.5251 124.101C84.9727 124.922 85.8361 129.595 88.4536 134.538C91.0712 139.481 94.4515 142.822 96.0039 142.001Z" fill="#2F2E41"/>
<path d="M298.715 151.284C302.54 151.284 305.64 148.185 305.64 144.362C305.64 140.539 302.54 137.44 298.715 137.44C294.891 137.44 291.79 140.539 291.79 144.362C291.79 148.185 294.891 151.284 298.715 151.284Z" fill="white"/>
<path d="M309.215 156.767C309.221 158.749 304.126 162.677 298.46 162.693C292.794 162.709 287.466 157.143 287.461 155.161C287.455 153.179 292.774 155.531 298.44 155.515C304.106 155.499 309.21 154.784 309.215 156.767Z" fill="white"/>
<path d="M118.997 109.619C130.187 109.619 139.258 100.552 139.258 89.3662C139.258 78.1808 130.187 69.1133 118.997 69.1133C107.806 69.1133 98.7351 78.1808 98.7351 89.3662C98.7351 100.552 107.806 109.619 118.997 109.619Z" fill="#2F2E41"/>
<path d="M113.135 104.459L107.078 103.363L105.114 114.211L111.171 115.307L113.135 104.459Z" fill="#2F2E41"/>
<path d="M125.249 106.651L119.192 105.555L117.228 116.402L123.285 117.498L125.249 106.651Z" fill="#2F2E41"/>
<path d="M125.227 121.628C125.914 120.817 124.718 118.677 122.556 116.847C120.394 115.017 118.085 114.19 117.398 115.001C116.712 115.811 117.908 117.951 120.07 119.781C122.231 121.612 124.541 122.438 125.227 121.628Z" fill="#2F2E41"/>
<path d="M113.366 119.481C114.052 118.671 112.856 116.53 110.695 114.7C108.533 112.87 106.224 112.044 105.537 112.854C104.851 113.664 106.046 115.805 108.208 117.635C110.37 119.465 112.679 120.292 113.366 119.481Z" fill="#2F2E41"/>
<path d="M120.415 91.334C124.239 91.334 127.34 88.235 127.34 84.4121C127.34 80.5893 124.239 77.4902 120.415 77.4902C116.591 77.4902 113.49 80.5893 113.49 84.4121C113.49 88.235 116.591 91.334 120.415 91.334Z" fill="white"/>
<path d="M123.262 84.2386C124.537 84.2386 125.57 83.2056 125.57 81.9313C125.57 80.657 124.537 79.624 123.262 79.624C121.987 79.624 120.953 80.657 120.953 81.9313C120.953 83.2056 121.987 84.2386 123.262 84.2386Z" fill="#3F3D56"/>
<path d="M138.416 88.7756C143.87 87.5261 147.972 85.1259 147.58 83.4145C147.188 81.7032 142.448 81.3288 136.995 82.5783C131.541 83.8279 127.438 86.2281 127.831 87.9395C128.223 89.6508 132.962 90.0252 138.416 88.7756Z" fill="#2F2E41"/>
<path d="M98.6436 95.387C104.097 94.1374 108.2 91.7372 107.808 90.0258C107.415 88.3145 102.676 87.9401 97.2225 89.1897C91.7689 90.4392 87.666 92.8395 88.0585 94.5508C88.4509 96.2621 93.19 96.6365 98.6436 95.387Z" fill="#2F2E41"/>
<path d="M113.431 97.3484C113.213 98.5527 113.483 99.7943 114.18 100.8C114.878 101.806 115.947 102.493 117.152 102.711C118.357 102.929 119.599 102.66 120.605 101.963C121.611 101.265 122.299 100.197 122.517 98.9925C122.971 96.4846 121.031 95.5972 118.522 95.1433C116.013 94.6893 113.886 94.8406 113.431 97.3484Z" fill="white"/>
<path d="M166.705 72.9148L148.525 67.4668L143.664 83.6743L161.844 89.1223L166.705 72.9148Z" fill="#3F3D56"/>
<path d="M259.913 140.723L262.68 145.43L271.112 140.472L268.345 135.766L259.913 140.723Z" fill="#2F2E41"/>
<path d="M262.145 146.534C262.957 146.056 262.583 143.913 261.31 141.747C260.036 139.581 258.346 138.212 257.533 138.69C256.721 139.168 257.095 141.311 258.368 143.477C259.642 145.643 261.333 147.011 262.145 146.534Z" fill="#2F2E41"/>
<path d="M283.975 115.539C283.346 110.616 281.583 106.786 280.038 106.983C278.493 107.181 277.75 111.331 278.379 116.254C279.008 121.177 280.77 125.007 282.316 124.809C283.861 124.612 284.604 120.461 283.975 115.539Z" fill="#2F2E41"/>
<path d="M288.322 150.022C297.901 147.455 303.585 137.61 301.019 128.031C298.452 118.453 288.607 112.769 279.028 115.335C269.45 117.902 263.765 127.747 266.332 137.326C268.898 146.904 278.744 152.588 288.322 150.022Z" fill="#2F2E41"/>
<path d="M259.088 137.647L261.855 142.354L270.287 137.396L267.52 132.69L259.088 137.647Z" fill="#2F2E41"/>
<path d="M261.321 143.46C262.133 142.982 261.759 140.839 260.486 138.673C259.212 136.507 257.522 135.138 256.709 135.616C255.897 136.093 256.271 138.236 257.544 140.402C258.818 142.568 260.509 143.937 261.321 143.46Z" fill="#2F2E41"/>
<path d="M287.139 127.461C290.381 126.592 292.305 123.26 291.436 120.018C290.567 116.776 287.235 114.852 283.993 115.721C280.751 116.59 278.827 119.922 279.696 123.164C280.564 126.406 283.897 128.33 287.139 127.461Z" fill="white"/>
<path d="M287.558 120.485C288.736 120.169 289.436 118.958 289.12 117.779C288.804 116.6 287.593 115.9 286.414 116.216C285.235 116.532 284.535 117.744 284.851 118.923C285.167 120.102 286.379 120.801 287.558 120.485Z" fill="#3F3D56"/>
<path d="M307.225 139.225C313.49 137.203 316.75 129.911 314.505 122.939C312.261 115.966 305.363 111.953 299.098 113.976C292.833 115.998 293.183 121.291 295.427 128.263C297.671 135.235 300.96 141.247 307.225 139.225Z" fill="#2B90D9"/>
<path d="M274.933 127.286C273.946 127.642 272.853 127.573 271.897 127.092C270.94 126.611 270.197 125.759 269.832 124.723C269.467 123.687 269.509 122.551 269.949 121.567C270.389 120.582 271.191 119.829 272.179 119.472C274.235 118.73 275.278 120.325 276.039 122.483C276.799 124.641 276.99 126.544 274.933 127.286Z" fill="white"/>
<path d="M278.564 121.409C277.935 116.487 276.173 112.656 274.627 112.854C273.082 113.051 272.339 117.202 272.968 122.124C273.597 127.047 275.36 130.877 276.905 130.68C278.45 130.482 279.193 126.332 278.564 121.409Z" fill="#2F2E41"/>
<path d="M260.231 89.6707L247.138 85.7471L243.637 97.4197L256.73 101.343L260.231 89.6707Z" fill="#3F3D56"/>
<path d="M275.732 105.794L266.067 96.1289L257.448 104.744L267.113 114.409L275.732 105.794Z" fill="#3F3D56"/>
<path d="M196.125 92.5377H194.928V91.3407H196.125V92.5377ZM194.928 88.3482H193.731V91.3407H194.928V88.3482ZM199.716 87.1512H198.519V89.5452H199.716V87.1512ZM198.519 85.9542H197.322V87.1512H198.519V85.9542ZM191.337 87.1512H190.14V88.3482H191.337V87.1512ZM190.14 85.9542H188.943V87.1512H190.14V85.9542ZM194.329 82.9617H195.526V81.7646H194.329V82.9617ZM189.841 82.6624V84.4579H191.636V82.6624H189.841ZM191.935 85.3557H189.541C189.212 85.3557 188.943 85.0863 188.943 84.7572V82.3632C188.943 82.034 189.212 81.7646 189.541 81.7646H191.935C192.264 81.7646 192.534 82.034 192.534 82.3632V84.7572C192.534 85.0863 192.264 85.3557 191.935 85.3557ZM189.841 89.8444V91.6399H191.636V89.8444H189.841ZM191.935 92.5377H189.541C189.212 92.5377 188.943 92.2684 188.943 91.9392V89.5452C188.943 89.216 189.212 88.9467 189.541 88.9467H191.935C192.264 88.9467 192.534 89.216 192.534 89.5452V91.9392C192.534 92.2684 192.264 92.5377 191.935 92.5377ZM197.023 82.6624V84.4579H198.818V82.6624H197.023ZM199.117 85.3557H196.723C196.394 85.3557 196.125 85.0863 196.125 84.7572V82.3632C196.125 82.034 196.394 81.7646 196.723 81.7646H199.117C199.446 81.7646 199.716 82.034 199.716 82.3632V84.7572C199.716 85.0863 199.446 85.3557 199.117 85.3557ZM198.519 91.3407V89.5452H196.125V90.7422H197.322V92.5377H199.716V91.3407H198.519ZM197.322 87.1512H194.928V88.3482H197.322V87.1512ZM194.928 85.9542H191.337V87.1512H192.534V88.3482H193.731V87.1512H194.928V85.9542ZM195.526 85.3557V84.1587H194.329V82.9617H193.132V85.3557H195.526ZM191.187 83.1113H190.289V84.009H191.187V83.1113ZM191.187 90.2933H190.289V91.1911H191.187V90.2933ZM198.369 83.1113H197.471V84.009H198.369V83.1113Z" fill="white"/>
<path d="M252.243 97.9199L251.361 97.6552L251.626 96.7733L252.507 97.038L252.243 97.9199ZM252.287 94.5685L251.405 94.3038L250.744 96.5086L251.626 96.7733L252.287 94.5685ZM256.08 94.7454L255.198 94.4807L254.668 96.2445L255.55 96.5092L256.08 94.7454ZM255.462 93.5988L254.581 93.3341L254.316 94.216L255.198 94.4807L255.462 93.5988ZM249.906 92.8925L249.024 92.6278L248.76 93.5097L249.642 93.7744L249.906 92.8925ZM249.289 91.7459L248.407 91.4812L248.142 92.3631L249.024 92.6278L249.289 91.7459ZM253.038 90.4676L253.919 90.7323L254.184 89.8504L253.302 89.5857L253.038 90.4676ZM249.797 89.2545L249.399 90.5774L250.722 90.9744L251.119 89.6515L249.797 89.2545ZM250.744 91.702L248.98 91.1726C248.738 91.0998 248.599 90.8418 248.672 90.5993L249.201 88.8355C249.274 88.593 249.532 88.4541 249.775 88.5269L251.538 89.0563C251.781 89.1291 251.92 89.3871 251.847 89.6296L251.318 91.3934C251.245 91.6359 250.987 91.7748 250.744 91.702ZM248.208 94.5459L247.811 95.8688L249.134 96.2659L249.531 94.943L248.208 94.5459ZM249.156 96.9935L247.392 96.4641C247.15 96.3913 247.011 96.1333 247.084 95.8908L247.613 94.1269C247.686 93.8844 247.944 93.7455 248.186 93.8183L249.95 94.3477C250.193 94.4205 250.332 94.6785 250.259 94.921L249.729 96.6849C249.657 96.9274 249.399 97.0662 249.156 96.9935ZM255.088 90.8427L254.691 92.1655L256.014 92.5626L256.411 91.2397L255.088 90.8427ZM256.036 93.2902L254.272 92.7608C254.029 92.688 253.891 92.43 253.963 92.1875L254.493 90.4237C254.566 90.1812 254.824 90.0423 255.066 90.1151L256.83 90.6445C257.072 90.7173 257.211 90.9752 257.138 91.2178L256.609 92.9816C256.536 93.2241 256.278 93.363 256.036 93.2902ZM254.271 97.5674L254.668 96.2445L252.905 95.7151L252.64 96.597L253.522 96.8617L253.125 98.1846L254.889 98.714L255.153 97.8321L254.271 97.5674ZM254.316 94.216L252.552 93.6866L252.287 94.5685L254.051 95.0979L254.316 94.216ZM252.817 92.8047L250.171 92.0106L249.906 92.8925L250.788 93.1572L250.524 94.0391L251.405 94.3038L251.67 93.4219L252.552 93.6866L252.817 92.8047ZM253.39 92.4961L253.655 91.6142L252.773 91.3495L253.038 90.4676L252.156 90.2029L251.626 91.9667L253.39 92.4961ZM250.689 89.883L250.028 89.6845L249.829 90.3459L250.491 90.5444L250.689 89.883ZM249.101 95.1744L248.44 94.9759L248.241 95.6373L248.903 95.8359L249.101 95.1744ZM255.981 91.4712L255.319 91.2727L255.121 91.9341L255.782 92.1326L255.981 91.4712Z" fill="white"/>
<path d="M264.665 109.207L264.015 108.555L264.666 107.905L265.317 108.557L264.665 109.207ZM266.296 106.279L265.646 105.627L264.016 107.253L264.666 107.905L266.296 106.279ZM269.549 108.237L268.899 107.585L267.595 108.885L268.245 109.537L269.549 108.237ZM269.551 106.934L268.9 106.283L268.249 106.933L268.899 107.585L269.551 106.934ZM264.997 103.673L264.347 103.022L263.695 103.672L264.345 104.324L264.997 103.673ZM264.999 102.371L264.348 101.719L263.696 102.37L264.347 103.022L264.999 102.371ZM268.904 103.027L269.555 103.679L270.207 103.029L269.556 102.377L268.904 103.027ZM266.629 100.42L265.651 101.395L266.626 102.373L267.604 101.398L266.629 100.42ZM266.3 103.024L264.999 101.72C264.821 101.541 264.821 101.248 265 101.069L266.304 99.7685C266.483 99.5897 266.776 99.59 266.955 99.7693L268.256 101.073C268.434 101.252 268.434 101.545 268.255 101.724L266.951 103.025C266.772 103.204 266.479 103.203 266.3 103.024ZM262.717 104.322L261.74 105.297L262.715 106.275L263.693 105.3L262.717 104.322ZM262.389 106.926L261.088 105.622C260.909 105.443 260.91 105.15 261.089 104.971L262.393 103.67C262.572 103.491 262.865 103.492 263.044 103.671L264.344 104.975C264.523 105.154 264.523 105.447 264.344 105.626L263.04 106.927C262.861 107.105 262.568 107.105 262.389 106.926ZM270.531 104.331L269.553 105.307L270.528 106.284L271.506 105.309L270.531 104.331ZM270.202 106.935L268.901 105.631C268.722 105.452 268.723 105.159 268.902 104.98L270.206 103.68C270.385 103.501 270.678 103.501 270.857 103.681L272.157 104.984C272.336 105.164 272.336 105.457 272.157 105.635L270.853 106.936C270.674 107.115 270.381 107.114 270.202 106.935ZM266.617 109.861L267.595 108.885L266.295 107.582L265.643 108.232L266.293 108.884L265.315 109.859L266.616 111.163L267.268 110.513L266.617 109.861ZM268.249 106.933L266.948 105.629L266.296 106.279L267.597 107.583L268.249 106.933ZM267.6 104.979L265.649 103.023L264.997 103.673L265.647 104.325L264.995 104.976L265.646 105.627L266.298 104.977L266.948 105.629L267.6 104.979ZM268.251 104.98L268.903 104.329L268.253 103.677L268.904 103.027L268.254 102.375L266.95 103.676L268.251 104.98ZM267.116 101.397L266.628 100.908L266.139 101.396L266.627 101.885L267.116 101.397ZM263.205 105.299L262.717 104.81L262.228 105.298L262.716 105.787L263.205 105.299ZM271.018 105.308L270.53 104.82L270.041 105.307L270.529 105.796L271.018 105.308Z" fill="white"/>
<path d="M232.035 92.5377H230.838V91.3407H232.035V92.5377ZM230.838 88.3482H229.641V91.3407H230.838V88.3482ZM235.626 87.1512H234.429V89.5452H235.626V87.1512ZM234.429 85.9542H233.232V87.1512H234.429V85.9542ZM227.247 87.1512H226.05V88.3482H227.247V87.1512ZM226.05 85.9542H224.853V87.1512H226.05V85.9542ZM230.24 82.9617H231.437V81.7646H230.24V82.9617ZM225.751 82.6624V84.4579H227.547V82.6624H225.751ZM227.846 85.3557H225.452C225.123 85.3557 224.853 85.0863 224.853 84.7572V82.3632C224.853 82.034 225.123 81.7646 225.452 81.7646H227.846C228.175 81.7646 228.444 82.034 228.444 82.3632V84.7572C228.444 85.0863 228.175 85.3557 227.846 85.3557ZM225.751 89.8444V91.6399H227.547V89.8444H225.751ZM227.846 92.5377H225.452C225.123 92.5377 224.853 92.2684 224.853 91.9392V89.5452C224.853 89.216 225.123 88.9467 225.452 88.9467H227.846C228.175 88.9467 228.444 89.216 228.444 89.5452V91.9392C228.444 92.2684 228.175 92.5377 227.846 92.5377ZM232.933 82.6624V84.4579H234.729V82.6624H232.933ZM235.028 85.3557H232.634C232.305 85.3557 232.035 85.0863 232.035 84.7572V82.3632C232.035 82.034 232.305 81.7646 232.634 81.7646H235.028C235.357 81.7646 235.626 82.034 235.626 82.3632V84.7572C235.626 85.0863 235.357 85.3557 235.028 85.3557ZM234.429 91.3407V89.5452H232.035V90.7422H233.232V92.5377H235.626V91.3407H234.429ZM233.232 87.1512H230.838V88.3482H233.232V87.1512ZM230.838 85.9542H227.247V87.1512H228.444V88.3482H229.641V87.1512H230.838V85.9542ZM231.437 85.3557V84.1587H230.24V82.9617H229.043V85.3557H231.437ZM227.098 83.1113H226.2V84.009H227.098V83.1113ZM227.098 90.2933H226.2V91.1911H227.098V90.2933ZM234.28 83.1113H233.382V84.009H234.28V83.1113Z" fill="white"/>
<path d="M316.978 69.2822C317.126 69.21 317.293 69.1811 317.457 69.199C317.621 69.2168 317.777 69.2806 317.907 69.3831C318.037 69.4855 318.135 69.6225 318.191 69.7782C318.246 69.934 318.257 70.1023 318.221 70.2637L317.136 75.1763C317.121 75.2488 317.12 75.3236 317.133 75.3965C317.148 75.4684 317.178 75.5365 317.221 75.5964L320.646 80.4024C320.761 80.5575 320.82 80.7467 320.814 80.9396C320.809 81.1325 320.738 81.3178 320.615 81.4659L320.61 81.4714C320.491 81.6215 320.325 81.7275 320.139 81.7724C319.952 81.8173 319.756 81.7985 319.582 81.7191L316.918 80.5641C316.83 80.5266 316.733 80.5139 316.638 80.5272C316.543 80.5405 316.453 80.5795 316.379 80.6398C316.323 80.6834 316.277 80.738 316.244 80.8002C316.21 80.8624 316.19 80.9309 316.184 81.0013L315.276 90.7544C315.263 90.8956 315.216 91.0316 315.139 91.1507C315.062 91.2697 314.957 91.3682 314.833 91.4376C314.71 91.5069 314.572 91.5456 314.431 91.5504C314.29 91.5552 314.149 91.526 314.022 91.4652L294.215 81.9653C294.065 81.894 293.939 81.7819 293.85 81.642C293.762 81.5022 293.715 81.3402 293.714 81.1746C293.714 81.0091 293.76 80.8468 293.847 80.7063C293.935 80.5659 294.06 80.453 294.209 80.3807L294.501 80.2382L316.978 69.2822L316.978 69.2822ZM317.879 70.1875C317.9 70.0906 317.894 69.9896 317.86 69.8961C317.827 69.8027 317.767 69.7206 317.689 69.6592C317.611 69.5978 317.518 69.5597 317.419 69.5491C317.32 69.5385 317.221 69.5559 317.131 69.5993L294.662 80.5521L294.363 80.6978C294.274 80.7415 294.199 80.8092 294.147 80.8934C294.095 80.9776 294.067 81.0747 294.067 81.1737C294.068 81.2728 294.096 81.3698 294.149 81.4536C294.201 81.5375 294.276 81.6049 294.366 81.6481L314.173 91.148C314.249 91.1846 314.334 91.2022 314.419 91.1992C314.503 91.1962 314.586 91.1728 314.66 91.1309C314.734 91.089 314.797 91.0299 314.843 90.9587C314.889 90.8874 314.917 90.806 314.925 90.7215L315.834 80.9684C315.842 80.8718 315.866 80.7773 315.906 80.689L294.89 81.3715C294.808 81.375 294.728 81.3497 294.662 81.3C294.597 81.2503 294.551 81.1793 294.533 81.0993C294.514 81.0194 294.524 80.9354 294.561 80.862C294.597 80.7886 294.659 80.7304 294.734 80.6974C294.752 80.6891 294.771 80.6826 294.791 80.678L316.771 75.2935C316.772 75.2284 316.779 75.1635 316.794 75.1001L317.879 70.1876L317.879 70.1875Z" fill="#E6E6E6"/>
<path d="M316.978 69.2822C317.126 69.21 317.293 69.1811 317.457 69.199C317.621 69.2168 317.777 69.2806 317.907 69.3831C318.037 69.4855 318.135 69.6225 318.191 69.7782C318.246 69.934 318.257 70.1023 318.221 70.2637L317.136 75.1763C317.121 75.2488 317.12 75.3236 317.133 75.3965C317.148 75.4684 317.178 75.5365 317.221 75.5964L320.646 80.4024C320.761 80.5575 320.82 80.7467 320.814 80.9396C320.809 81.1325 320.738 81.3178 320.615 81.4659L320.61 81.4714C320.491 81.6215 320.325 81.7275 320.139 81.7724C319.952 81.8173 319.756 81.7985 319.582 81.7191L316.918 80.5641C316.83 80.5266 316.733 80.5139 316.638 80.5272C316.543 80.5405 316.453 80.5795 316.379 80.6398C316.323 80.6834 316.277 80.738 316.244 80.8002C316.21 80.8624 316.19 80.9309 316.184 81.0013L315.276 90.7544C315.263 90.8956 315.216 91.0316 315.139 91.1507C315.062 91.2697 314.957 91.3682 314.833 91.4376C314.71 91.5069 314.572 91.5456 314.431 91.5504C314.29 91.5552 314.149 91.526 314.022 91.4652L294.215 81.9653C294.065 81.894 293.939 81.7819 293.85 81.642C293.762 81.5022 293.715 81.3402 293.714 81.1746C293.714 81.0091 293.76 80.8468 293.847 80.7063C293.935 80.5659 294.06 80.453 294.209 80.3807L294.501 80.2382L316.978 69.2822L316.978 69.2822ZM317.879 70.1875C317.9 70.0906 317.894 69.9896 317.86 69.8961C317.827 69.8027 317.767 69.7206 317.689 69.6592C317.611 69.5978 317.518 69.5597 317.419 69.5491C317.32 69.5385 317.221 69.5559 317.131 69.5993L294.662 80.5521L294.363 80.6978C294.274 80.7415 294.199 80.8092 294.147 80.8934C294.095 80.9776 294.067 81.0747 294.067 81.1737C294.068 81.2728 294.096 81.3698 294.149 81.4536C294.201 81.5375 294.276 81.6049 294.366 81.6481L314.173 91.148C314.249 91.1846 314.334 91.2022 314.419 91.1992C314.503 91.1962 314.586 91.1728 314.66 91.1309C314.734 91.089 314.797 91.0299 314.843 90.9586C314.889 90.8874 314.917 90.806 314.925 90.7215L315.834 80.9684C315.842 80.8718 315.866 80.7773 315.906 80.689C315.963 80.5618 316.05 80.4503 316.159 80.3642C316.174 80.3515 316.19 80.3399 316.207 80.3283L316.208 80.3269C316.33 80.2415 316.473 80.1889 316.622 80.174C316.77 80.1591 316.92 80.1824 317.058 80.2418L319.722 81.3979C319.827 81.446 319.945 81.4572 320.057 81.4298C320.169 81.4025 320.269 81.338 320.34 81.247L320.342 81.2443C320.417 81.1559 320.459 81.0446 320.463 80.9287C320.466 80.8128 320.43 80.6992 320.36 80.6067L316.935 75.8007C316.899 75.7503 316.868 75.6959 316.843 75.6386L316.842 75.6375C316.818 75.5826 316.8 75.5253 316.789 75.4667C316.777 75.4097 316.771 75.3516 316.771 75.2934C316.772 75.2284 316.779 75.1635 316.794 75.1001L317.879 70.1875L317.879 70.1875Z" fill="#CCCCCC"/>
<path d="M316.772 75.2932L294.791 80.6778C294.771 80.6823 294.752 80.6888 294.734 80.6971C294.659 80.7301 294.598 80.7884 294.561 80.8618C294.524 80.9352 294.514 81.0191 294.533 81.0991C294.551 81.179 294.597 81.25 294.663 81.2997C294.728 81.3494 294.809 81.3747 294.891 81.3712L315.906 80.6887L316.277 80.677L316.265 80.326L316.208 80.3267L316.207 80.328L294.88 81.0188L316.842 75.6372L316.843 75.6384L316.938 75.614L316.855 75.2725L316.772 75.2932Z" fill="#CCCCCC"/>
<path d="M80.4526 6.4878C80.2873 6.48658 80.1249 6.532 79.9842 6.61882C79.8434 6.70564 79.73 6.83036 79.6569 6.97868C79.5838 7.127 79.5539 7.29291 79.5708 7.45741C79.5876 7.62192 79.6505 7.77836 79.7521 7.90879L82.8449 11.8769C82.8899 11.9358 82.9231 12.0028 82.9426 12.0743C82.9596 12.1459 82.9616 12.2203 82.9487 12.2928L81.9241 18.1046C81.8871 18.294 81.9148 18.4903 82.0029 18.662C82.091 18.8337 82.2342 18.9708 82.4096 19.0513L82.416 19.0543C82.5882 19.1386 82.7837 19.1628 82.9712 19.1232C83.1588 19.0835 83.3278 18.9822 83.4511 18.8355L85.3589 16.6472C85.4225 16.5754 85.5045 16.5222 85.596 16.4934C85.6876 16.4645 85.7853 16.4611 85.8786 16.4835C85.9475 16.4989 86.0125 16.5285 86.0694 16.5703C86.1263 16.612 86.174 16.6652 86.2094 16.7263L91.2247 25.1403C91.2969 25.2623 91.3978 25.3649 91.5185 25.4392C91.6393 25.5136 91.7763 25.5574 91.9178 25.5669C92.0588 25.5764 92.2001 25.552 92.3297 25.4956C92.4592 25.4391 92.5734 25.3524 92.6625 25.2427L106.458 8.14707C106.562 8.01843 106.628 7.863 106.647 7.69865C106.667 7.5343 106.64 7.3677 106.57 7.21803C106.499 7.06835 106.387 6.94167 106.248 6.85255C106.108 6.76343 105.947 6.7155 105.781 6.71426L105.456 6.7112L80.4526 6.48779L80.4526 6.4878ZM80.0284 7.69279C79.9675 7.61436 79.93 7.52037 79.9201 7.4216C79.9101 7.32283 79.9282 7.22327 79.9723 7.1343C80.0163 7.04533 80.0845 6.97057 80.169 6.91856C80.2536 6.86654 80.3511 6.83938 80.4503 6.84019L105.446 7.06377L105.779 7.06662C105.878 7.06784 105.974 7.09686 106.058 7.15036C106.141 7.20386 106.208 7.2797 106.25 7.36924C106.292 7.45878 106.309 7.55842 106.297 7.65681C106.286 7.75519 106.247 7.84836 106.185 7.92571L92.3897 25.0213C92.3362 25.0873 92.2676 25.1394 92.1898 25.1732C92.1119 25.207 92.027 25.2215 91.9423 25.2154C91.8576 25.2094 91.7756 25.183 91.7033 25.1385C91.631 25.094 91.5705 25.0327 91.5269 24.9598L86.5117 16.5459C86.463 16.462 86.4003 16.3872 86.3262 16.3247L105.592 7.9017C105.668 7.86957 105.73 7.81204 105.767 7.73908C105.805 7.66611 105.816 7.58228 105.798 7.5021C105.781 7.42193 105.736 7.35043 105.671 7.29999C105.606 7.24954 105.526 7.22332 105.444 7.22585C105.424 7.22622 105.404 7.22855 105.384 7.23281L83.2243 11.8259C83.1962 11.7672 83.1616 11.7119 83.1212 11.6609L80.0284 7.69281L80.0284 7.69279Z" fill="#E6E6E6"/>
<path d="M80.4526 6.4878C80.2873 6.48658 80.1249 6.532 79.9842 6.61882C79.8434 6.70564 79.73 6.83036 79.6569 6.97868C79.5838 7.127 79.5539 7.29291 79.5708 7.45741C79.5876 7.62192 79.6505 7.77836 79.7521 7.90879L82.8449 11.8769C82.8899 11.9358 82.9231 12.0028 82.9426 12.0743C82.9596 12.1459 82.9616 12.2203 82.9487 12.2928L81.9241 18.1046C81.8871 18.294 81.9148 18.4903 82.0029 18.662C82.091 18.8337 82.2342 18.9708 82.4096 19.0513L82.416 19.0543C82.5882 19.1386 82.7837 19.1628 82.9712 19.1232C83.1588 19.0835 83.3278 18.9822 83.4511 18.8355L85.3589 16.6472C85.4225 16.5754 85.5045 16.5222 85.596 16.4934C85.6876 16.4645 85.7853 16.4611 85.8786 16.4835C85.9475 16.4989 86.0125 16.5285 86.0694 16.5703C86.1263 16.612 86.174 16.6652 86.2094 16.7263L91.2247 25.1403C91.2969 25.2623 91.3978 25.3649 91.5185 25.4392C91.6393 25.5136 91.7763 25.5574 91.9178 25.5669C92.0588 25.5764 92.2001 25.552 92.3297 25.4956C92.4592 25.4391 92.5734 25.3524 92.6625 25.2427L106.458 8.14707C106.562 8.01843 106.628 7.863 106.647 7.69865C106.667 7.5343 106.64 7.3677 106.57 7.21803C106.499 7.06835 106.387 6.94167 106.248 6.85255C106.108 6.76343 105.947 6.7155 105.781 6.71426L105.456 6.7112L80.4526 6.48779L80.4526 6.4878ZM80.0284 7.69279C79.9675 7.61436 79.93 7.52037 79.9201 7.4216C79.9101 7.32283 79.9282 7.22327 79.9723 7.1343C80.0163 7.04533 80.0845 6.97057 80.169 6.91856C80.2536 6.86654 80.3511 6.83938 80.4503 6.84019L105.446 7.06377L105.779 7.06662C105.878 7.06784 105.974 7.09686 106.058 7.15036C106.141 7.20386 106.208 7.2797 106.25 7.36924C106.292 7.45878 106.309 7.55842 106.297 7.65681C106.286 7.75519 106.247 7.84836 106.185 7.92571L92.3897 25.0213C92.3362 25.0873 92.2676 25.1394 92.1898 25.1732C92.1119 25.207 92.027 25.2215 91.9423 25.2154C91.8576 25.2094 91.7756 25.183 91.7033 25.1385C91.631 25.094 91.5705 25.0327 91.5269 24.9598L86.5117 16.5459C86.463 16.462 86.4003 16.3872 86.3262 16.3247C86.2204 16.2342 86.0941 16.1709 85.9583 16.1402C85.9393 16.1352 85.9196 16.1318 85.8998 16.1283L85.8982 16.1275C85.7508 16.1032 85.5995 16.1169 85.4589 16.1674C85.3182 16.218 85.1928 16.3036 85.0945 16.4162L83.186 18.606C83.112 18.6945 83.0104 18.7555 82.8974 18.7789C82.7845 18.8024 82.667 18.787 82.5639 18.7353L82.5607 18.7338C82.455 18.6862 82.3686 18.6041 82.3158 18.5009C82.2629 18.3977 82.2468 18.2796 82.27 18.166L83.2947 12.3543C83.3061 12.293 83.3107 12.2306 83.3082 12.1683L83.3089 12.1667C83.3067 12.107 83.2982 12.0476 83.2834 11.9896C83.2696 11.9331 83.2498 11.8782 83.2243 11.8259C83.1962 11.7672 83.1616 11.7119 83.1212 11.6609L80.0284 7.69278L80.0284 7.69279Z" fill="#CCCCCC"/>
<path d="M83.225 11.8255L105.385 7.23237C105.404 7.22811 105.424 7.22578 105.444 7.22541C105.526 7.22288 105.607 7.2491 105.671 7.29955C105.736 7.34999 105.781 7.42149 105.799 7.50166C105.817 7.58184 105.806 7.66565 105.768 7.73861C105.73 7.81158 105.668 7.86911 105.593 7.90124L86.3269 16.3243L85.9868 16.4733L85.8468 16.1512L85.8989 16.1271L85.9004 16.1278L105.451 7.57837L83.3096 12.1663L83.3088 12.1679L83.2126 12.1868L83.1412 11.8425L83.225 11.8255Z" fill="#CCCCCC"/>
<path d="M217.671 48.0645H170.712V49.6027H217.671V48.0645Z" fill="#F2F2F2"/>
<path d="M217.671 51.9316H170.712V53.4698H217.671V51.9316Z" fill="#F2F2F2"/>
<path d="M217.671 55.7988H170.712V57.337H217.671V55.7988Z" fill="#F2F2F2"/>
<path d="M222.643 39.7773H165.74V43.0921H222.643V39.7773Z" fill="#F2F2F2"/>
<path d="M155.243 24.8613H143.641V27.0712H155.243V24.8613Z" fill="#2B90D9"/>
<path d="M178.753 25.4131H168.501V26.9513H178.753V25.4131Z" fill="#F2F2F2"/>
<path d="M192.565 25.4131H182.313V26.9513H192.565V25.4131Z" fill="#F2F2F2"/>
<path d="M206.377 25.4131H196.125V26.9513H206.377V25.4131Z" fill="#F2F2F2"/>
<path d="M220.189 25.4131H209.937V26.9513H220.189V25.4131Z" fill="#F2F2F2"/>
</g>
<path d="M92.3626 117.47L94.5353 119.699L84.0242 129.942L81.8515 127.712L92.3626 117.47Z" fill="#E6E6E6"/>
<path d="M83.6646 127.985C84.084 128.416 84.3664 128.961 84.476 129.552C84.5856 130.143 84.5175 130.753 84.2804 131.305C84.0433 131.857 83.6477 132.327 83.1437 132.654C82.6398 132.981 82.05 133.152 81.4491 133.144C80.8482 133.136 80.2631 132.951 79.7677 132.61C79.2724 132.27 78.8891 131.79 78.6664 131.232C78.4436 130.674 78.3913 130.062 78.5162 129.475C78.641 128.887 78.9374 128.349 79.3678 127.93C79.945 127.367 80.7219 127.057 81.5277 127.068C82.3335 127.078 83.1022 127.408 83.6646 127.985ZM80.5558 131.015C80.7355 131.199 80.9659 131.326 81.2179 131.38C81.4698 131.433 81.7319 131.411 81.9711 131.315C82.2104 131.22 82.4159 131.056 82.5617 130.843C82.7076 130.631 82.7872 130.38 82.7905 130.123C82.7939 129.865 82.7208 129.613 82.5805 129.397C82.4402 129.181 82.2389 129.011 82.0023 128.909C81.7656 128.808 81.5041 128.779 81.2509 128.826C80.9977 128.873 80.764 128.994 80.5796 129.173C80.3322 129.414 80.1908 129.744 80.1863 130.089C80.1818 130.434 80.3147 130.767 80.5558 131.015Z" fill="#E6E6E6"/>
<path d="M95.5563 113.292L94.0446 114.812L94.7795 117.422L97.459 118.075L98.8636 116.662C98.9595 117.464 98.8023 118.275 98.4138 118.983C98.0253 119.691 97.4251 120.259 96.6973 120.608C95.9695 120.958 95.1507 121.071 94.3555 120.931C93.5604 120.792 92.8288 120.407 92.2634 119.831C91.698 119.254 91.3271 118.516 91.2027 117.718C91.0783 116.92 91.2066 116.104 91.5697 115.383C91.9328 114.662 92.5125 114.072 93.2274 113.697C93.9423 113.322 94.7567 113.181 95.5563 113.292Z" fill="#E6E6E6"/>
<path d="M3.22643 111.598H60.8736C61.4308 111.595 61.9778 111.447 62.4613 111.169C62.9449 110.891 63.3485 110.492 63.6331 110.011C63.9176 109.53 64.0734 108.983 64.0852 108.424C64.097 107.865 63.9645 107.312 63.7005 106.819L34.891 53.083C34.6149 52.5679 34.205 52.1374 33.7048 51.8374C33.2045 51.5373 32.6327 51.3789 32.05 51.3789C31.4673 51.3789 30.8955 51.5373 30.3952 51.8374C29.895 52.1374 29.4851 52.5679 29.209 53.083L0.385425 106.819C0.120875 107.313 -0.0116458 107.867 0.000802753 108.428C0.0132513 108.988 0.170239 109.536 0.456446 110.017C0.742653 110.498 1.1483 110.897 1.63379 111.174C2.11927 111.451 2.66801 111.597 3.22643 111.598ZM35.7179 101.778H28.3821V94.4174H35.7179V101.778ZM35.7179 89.5078H28.3821V74.7825H35.7179V89.5078Z" fill="#F9C43C"/>
<path d="M132.624 75.3749C131.016 76.071 131.082 73.8003 130.242 73.0214C129.704 72.6241 129.043 72.4286 128.375 72.4689C122.777 72.1007 117.162 72.0527 111.558 72.3252C109.564 72.4578 107.376 72.7562 106.033 74.2368C105.691 74.6124 105.332 75.0986 104.818 75.082C104.647 73.9771 104.525 72.828 104.442 71.6954C104.392 71.2712 104.415 70.8415 104.509 70.4248C104.647 69.9496 104.962 69.5463 105.122 69.0823C105.28 68.492 105.336 67.8793 105.288 67.2702C105.312 65.0163 105.918 62.8067 107.046 60.8555C108.175 58.9043 109.788 57.2775 111.729 56.1325C112.217 55.8942 112.669 55.5893 113.072 55.2265C113.212 55.0597 113.365 54.9045 113.53 54.7624C113.849 54.5658 114.223 54.4767 114.597 54.5083C114.862 54.5083 115.149 54.5083 115.381 54.5083C116.096 54.4296 116.794 54.2433 117.453 53.9558C118.061 53.6945 118.719 53.57 119.381 53.5912C120.083 53.7193 120.759 53.9639 121.381 54.3149C121.68 54.4589 121.993 54.5718 122.315 54.6519C122.817 54.7679 123.337 54.7624 123.839 54.8618C124.654 55.0691 125.427 55.4128 126.127 55.8784C126.961 56.3286 127.734 56.8858 128.425 57.5358C129.176 58.3942 129.777 59.3728 130.204 60.4307C130.936 61.8922 131.492 63.4351 131.861 65.0272C132.309 67.3144 132.088 69.7894 133.148 71.8667C133.795 73.1705 134.386 74.618 132.624 75.3749Z" fill="#2B90D9"/>
<path opacity="0.1" d="M104.619 73.6402C104.619 73.6402 116.072 63.2208 133.127 71.8613C133.127 71.8613 113.873 67.4803 104.619 73.6402Z" fill="black"/>
<path d="M155.481 84.2262L154.336 83.8754L154.687 82.7309L155.831 83.0818L155.481 84.2262ZM155.564 79.8698L154.419 79.519L153.542 82.3801L154.687 82.7309L155.564 79.8698ZM160.493 80.1287L159.348 79.7778L158.646 82.0667L159.791 82.4176L160.493 80.1287ZM159.699 78.6334L158.554 78.2826L158.204 79.427L159.348 79.7778L159.699 78.6334ZM152.481 77.6729L151.337 77.3221L150.986 78.4665L152.131 78.8174L152.481 77.6729ZM151.688 76.1777L150.543 75.8268L150.193 76.9713L151.337 77.3221L151.688 76.1777ZM156.57 74.5444L157.715 74.8952L158.066 73.7508L156.921 73.4L156.57 74.5444ZM152.366 72.9427L151.84 74.6594L153.557 75.1856L154.083 73.469L152.366 72.9427ZM153.58 76.1317L151.291 75.43C150.976 75.3336 150.798 74.9971 150.894 74.6824L151.596 72.3935C151.692 72.0788 152.029 71.9002 152.343 71.9967L154.632 72.6983C154.947 72.7948 155.126 73.1313 155.029 73.446L154.328 75.7349C154.231 76.0496 153.895 76.2281 153.58 76.1317ZM150.262 79.8094L149.735 81.5261L151.452 82.0523L151.978 80.3356L150.262 79.8094ZM151.475 82.9983L149.186 82.2967C148.871 82.2002 148.693 81.8638 148.789 81.5491L149.491 79.2602C149.587 78.9454 149.924 78.7669 150.239 78.8634L152.527 79.565C152.842 79.6615 153.021 79.9979 152.924 80.3126L152.223 82.6015C152.126 82.9162 151.79 83.0948 151.475 82.9983ZM159.233 75.0477L158.707 76.7643L160.424 77.2906L160.95 75.5739L159.233 75.0477ZM160.447 78.2366L158.158 77.535C157.843 77.4385 157.664 77.102 157.761 76.7873L158.462 74.4984C158.559 74.1837 158.895 74.0051 159.21 74.1016L161.499 74.8033C161.814 74.8997 161.992 75.2362 161.896 75.5509L161.194 77.8398C161.098 78.1545 160.761 78.3331 160.447 78.2366ZM158.12 83.7834L158.646 82.0667L156.358 81.3651L156.007 82.5095L157.151 82.8604L156.625 84.577L158.914 85.2787L159.265 84.1342L158.12 83.7834ZM158.204 79.427L155.915 78.7254L155.564 79.8698L157.853 80.5715L158.204 79.427ZM156.266 77.5809L152.832 76.5285L152.481 77.6729L153.626 78.0237L153.275 79.1682L154.419 79.519L154.77 78.3746L155.915 78.7254L156.266 77.5809ZM157.013 77.1841L157.364 76.0397L156.22 75.6889L156.57 74.5444L155.426 74.1936L154.724 76.4825L157.013 77.1841ZM153.522 73.7666L152.664 73.5035L152.401 74.3618L153.259 74.6249L153.522 73.7666ZM151.417 80.6332L150.559 80.3701L150.296 81.2285L151.154 81.4916L151.417 80.6332ZM160.389 75.8715L159.531 75.6084L159.268 76.4667L160.126 76.7298L160.389 75.8715Z" fill="white"/>
<path d="M229.416 152.126L229.343 152.414L227.692 158.866C227.632 159.103 227.349 159.203 227.153 159.056L221.033 154.483C220.803 154.311 220.873 153.951 221.149 153.876L228.76 151.824L229.036 151.75C229.264 151.689 229.474 151.896 229.416 152.126Z" fill="white"/>
<path d="M224.838 157.32L225.527 157.836L223.601 158.858L223.516 156.331L228.644 152.465L224.838 157.32Z" fill="#3F3D56"/>
<path d="M221.825 161.23C222.179 161.23 222.466 160.943 222.466 160.589C222.466 160.234 222.179 159.947 221.825 159.947C221.471 159.947 221.184 160.234 221.184 160.589C221.184 160.943 221.471 161.23 221.825 161.23Z" stroke="white" stroke-width="0.5"/>
<path d="M220.031 163.026C220.385 163.026 220.672 162.739 220.672 162.384C220.672 162.03 220.385 161.743 220.031 161.743C219.676 161.743 219.389 162.03 219.389 162.384C219.389 162.739 219.676 163.026 220.031 163.026Z" stroke="white" stroke-width="0.5"/>
<path d="M222.185 164.62H217.173C217.012 164.62 216.859 164.684 216.745 164.797C216.632 164.911 216.568 165.064 216.568 165.225V174.726C216.568 174.886 216.632 175.04 216.745 175.153C216.859 175.267 217.012 175.33 217.173 175.331H222.185C222.346 175.33 222.5 175.267 222.613 175.153C222.727 175.04 222.79 174.886 222.791 174.726V165.225C222.79 165.064 222.727 164.911 222.613 164.797C222.5 164.684 222.346 164.62 222.185 164.62ZM220.495 164.966L220.408 165.311H218.95L218.864 164.966H220.495ZM222.445 174.726C222.445 174.795 222.417 174.861 222.369 174.909C222.32 174.958 222.254 174.985 222.185 174.985H217.173C217.104 174.985 217.038 174.958 216.99 174.909C216.941 174.861 216.914 174.795 216.914 174.726V165.225C216.914 165.156 216.941 165.09 216.99 165.042C217.038 164.993 217.104 164.966 217.173 164.966H218.507L218.647 165.526C218.657 165.563 218.678 165.596 218.709 165.62C218.739 165.644 218.776 165.657 218.815 165.657H220.543C220.582 165.657 220.619 165.644 220.65 165.62C220.68 165.596 220.702 165.563 220.711 165.526L220.851 164.966H222.185C222.254 164.966 222.32 164.993 222.369 165.042C222.417 165.09 222.445 165.156 222.445 165.225V174.726Z" fill="white"/>
<path d="M220.199 174.467H219.162C219.116 174.467 219.072 174.485 219.04 174.517C219.008 174.55 218.989 174.594 218.989 174.64C218.989 174.685 219.008 174.729 219.04 174.762C219.072 174.794 219.116 174.812 219.162 174.812H220.199C220.245 174.812 220.289 174.794 220.322 174.762C220.354 174.729 220.372 174.685 220.372 174.64C220.372 174.594 220.354 174.55 220.322 174.517C220.289 174.485 220.245 174.467 220.199 174.467Z" fill="white"/>
<path d="M217.606 168.421C217.652 168.421 217.696 168.403 217.729 168.371C217.761 168.338 217.779 168.295 217.779 168.249V168.076H217.952C217.998 168.076 218.042 168.058 218.074 168.025C218.107 167.993 218.125 167.949 218.125 167.903C218.125 167.857 218.107 167.813 218.074 167.781C218.042 167.749 217.998 167.73 217.952 167.73H217.606C217.56 167.73 217.516 167.749 217.484 167.781C217.452 167.813 217.433 167.857 217.433 167.903V168.249C217.433 168.295 217.452 168.338 217.484 168.371C217.516 168.403 217.56 168.421 217.606 168.421Z" fill="white"/>
<path d="M217.952 171.876H217.779V171.703C217.779 171.657 217.761 171.613 217.729 171.581C217.696 171.548 217.652 171.53 217.606 171.53C217.56 171.53 217.516 171.548 217.484 171.581C217.452 171.613 217.433 171.657 217.433 171.703V172.049C217.433 172.094 217.452 172.138 217.484 172.171C217.516 172.203 217.56 172.221 217.606 172.221H217.952C217.998 172.221 218.042 172.203 218.074 172.171C218.107 172.138 218.125 172.094 218.125 172.049C218.125 172.003 218.107 171.959 218.074 171.926C218.042 171.894 217.998 171.876 217.952 171.876Z" fill="white"/>
<path d="M221.754 171.53C221.709 171.53 221.665 171.548 221.632 171.581C221.6 171.613 221.582 171.657 221.582 171.703V171.876H221.409C221.363 171.876 221.319 171.894 221.286 171.926C221.254 171.959 221.236 172.003 221.236 172.049C221.236 172.094 221.254 172.138 221.286 172.171C221.319 172.203 221.363 172.221 221.409 172.221H221.754C221.8 172.221 221.844 172.203 221.877 172.171C221.909 172.138 221.927 172.094 221.927 172.049V171.703C221.927 171.657 221.909 171.613 221.877 171.581C221.844 171.548 221.8 171.53 221.754 171.53Z" fill="white"/>
<path d="M221.754 167.73H221.409C221.363 167.73 221.319 167.749 221.286 167.781C221.254 167.813 221.236 167.857 221.236 167.903C221.236 167.949 221.254 167.993 221.286 168.025C221.319 168.058 221.363 168.076 221.409 168.076H221.582V168.249C221.582 168.295 221.6 168.338 221.632 168.371C221.665 168.403 221.709 168.421 221.754 168.421C221.8 168.421 221.844 168.403 221.877 168.371C221.909 168.338 221.927 168.295 221.927 168.249V167.903C221.927 167.857 221.909 167.813 221.877 167.781C221.844 167.749 221.8 167.73 221.754 167.73Z" fill="white"/>
<path d="M217.953 168.422V169.458C217.953 169.504 217.971 169.548 218.003 169.58C218.036 169.613 218.08 169.631 218.126 169.631H219.163C219.209 169.631 219.252 169.613 219.285 169.58C219.317 169.548 219.336 169.504 219.336 169.458V168.422C219.336 168.376 219.317 168.332 219.285 168.3C219.252 168.267 219.209 168.249 219.163 168.249H218.126C218.08 168.249 218.036 168.267 218.003 168.3C217.971 168.332 217.953 168.376 217.953 168.422ZM218.298 168.595H218.99V169.286H218.298V168.595Z" fill="white"/>
<path d="M219.336 171.531V170.494C219.336 170.448 219.317 170.404 219.285 170.372C219.252 170.34 219.209 170.321 219.163 170.321H218.126C218.08 170.321 218.036 170.34 218.003 170.372C217.971 170.404 217.953 170.448 217.953 170.494V171.531C217.953 171.576 217.971 171.62 218.003 171.653C218.036 171.685 218.08 171.703 218.126 171.703H219.163C219.209 171.703 219.252 171.685 219.285 171.653C219.317 171.62 219.336 171.576 219.336 171.531ZM218.99 171.358H218.298V170.667H218.99V171.358Z" fill="white"/>
<path d="M220.199 169.631H221.236C221.282 169.631 221.326 169.613 221.358 169.58C221.391 169.548 221.409 169.504 221.409 169.458V168.422C221.409 168.376 221.391 168.332 221.358 168.3C221.326 168.267 221.282 168.249 221.236 168.249H220.199C220.153 168.249 220.109 168.267 220.077 168.3C220.044 168.332 220.026 168.376 220.026 168.422V169.458C220.026 169.504 220.044 169.548 220.077 169.58C220.109 169.613 220.153 169.631 220.199 169.631ZM220.372 168.595H221.063V169.286H220.372V168.595Z" fill="white"/>
<path d="M221.409 171.529V171.011C221.409 170.965 221.391 170.921 221.359 170.888C221.326 170.856 221.282 170.838 221.237 170.838H220.718C220.672 170.838 220.628 170.856 220.596 170.888C220.563 170.921 220.545 170.965 220.545 171.011V171.529C220.545 171.575 220.563 171.619 220.596 171.651C220.628 171.683 220.672 171.702 220.718 171.702H221.237C221.282 171.702 221.326 171.683 221.359 171.651C221.391 171.619 221.409 171.575 221.409 171.529ZM221.064 171.356H220.891V171.183H221.064V171.356Z" fill="white"/>
<path d="M220.199 170.667H220.718C220.763 170.667 220.807 170.648 220.84 170.616C220.872 170.583 220.89 170.54 220.89 170.494V169.976C220.89 169.93 220.872 169.886 220.84 169.853C220.807 169.821 220.763 169.803 220.718 169.803H220.199C220.153 169.803 220.109 169.821 220.077 169.853C220.044 169.886 220.026 169.93 220.026 169.976V170.494C220.026 170.54 220.044 170.583 220.077 170.616C220.109 170.648 220.153 170.667 220.199 170.667ZM220.372 170.148H220.545V170.321H220.372V170.148Z" fill="white"/>
<path d="M219.68 171.703C219.726 171.703 219.77 171.685 219.803 171.652C219.835 171.62 219.853 171.576 219.853 171.53V169.976C219.853 169.93 219.835 169.886 219.803 169.853C219.77 169.821 219.726 169.803 219.68 169.803H218.816C218.77 169.803 218.726 169.821 218.694 169.853C218.662 169.886 218.643 169.93 218.643 169.976C218.643 170.021 218.662 170.065 218.694 170.098C218.726 170.13 218.77 170.148 218.816 170.148H219.508V171.53C219.508 171.576 219.526 171.62 219.558 171.652C219.591 171.685 219.635 171.703 219.68 171.703Z" fill="white"/>
<path d="M219.68 168.767C219.726 168.767 219.77 168.749 219.802 168.717C219.834 168.684 219.853 168.64 219.853 168.595V168.422C219.853 168.376 219.834 168.332 219.802 168.3C219.77 168.267 219.726 168.249 219.68 168.249C219.634 168.249 219.59 168.267 219.558 168.3C219.525 168.332 219.507 168.376 219.507 168.422V168.595C219.507 168.64 219.525 168.684 219.558 168.717C219.59 168.749 219.634 168.767 219.68 168.767Z" fill="white"/>
<path d="M219.68 169.63C219.726 169.63 219.77 169.612 219.802 169.58C219.834 169.547 219.853 169.504 219.853 169.458V169.112C219.853 169.066 219.834 169.022 219.802 168.99C219.77 168.958 219.726 168.939 219.68 168.939C219.634 168.939 219.59 168.958 219.558 168.99C219.525 169.022 219.507 169.066 219.507 169.112V169.458C219.507 169.504 219.525 169.547 219.558 169.58C219.59 169.612 219.634 169.63 219.68 169.63Z" fill="white"/>
<path d="M220.199 170.838C220.153 170.838 220.109 170.856 220.077 170.888C220.044 170.921 220.026 170.965 220.026 171.011V171.529C220.026 171.575 220.044 171.619 220.077 171.651C220.109 171.683 220.153 171.702 220.199 171.702C220.245 171.702 220.289 171.683 220.321 171.651C220.354 171.619 220.372 171.575 220.372 171.529V171.011C220.372 170.965 220.354 170.921 220.321 170.888C220.289 170.856 220.245 170.838 220.199 170.838Z" fill="white"/>
<path d="M218.126 169.803C218.08 169.803 218.036 169.821 218.003 169.853C217.971 169.886 217.953 169.93 217.953 169.976C217.953 170.021 217.971 170.065 218.003 170.098C218.036 170.13 218.08 170.148 218.126 170.148H218.298C218.344 170.148 218.388 170.13 218.421 170.098C218.453 170.065 218.471 170.021 218.471 169.976C218.471 169.93 218.453 169.886 218.421 169.853C218.388 169.821 218.344 169.803 218.298 169.803H218.126Z" fill="white"/>
<path d="M221.236 169.803C221.19 169.803 221.146 169.821 221.113 169.853C221.081 169.886 221.063 169.93 221.063 169.976V170.494C221.063 170.54 221.081 170.583 221.113 170.616C221.146 170.648 221.19 170.667 221.236 170.667C221.281 170.667 221.325 170.648 221.358 170.616C221.39 170.583 221.408 170.54 221.408 170.494V169.976C221.408 169.93 221.39 169.886 221.358 169.853C221.325 169.821 221.281 169.803 221.236 169.803Z" fill="white"/>
<path d="M225.465 174.824C224.97 174.824 224.56 174.659 224.234 174.331C223.912 173.994 223.751 173.579 223.751 173.086C223.751 172.584 223.912 172.169 224.234 171.841C224.56 171.513 224.97 171.348 225.465 171.348C225.805 171.348 226.102 171.433 226.356 171.601C226.61 171.766 226.8 171.994 226.928 172.287L226.356 172.52C226.179 172.112 225.868 171.908 225.424 171.908C225.138 171.908 224.891 172.021 224.683 172.247C224.479 172.473 224.376 172.753 224.376 173.086C224.376 173.419 224.479 173.698 224.683 173.925C224.891 174.151 225.138 174.264 225.424 174.264C225.882 174.264 226.204 174.06 226.39 173.652L226.948 173.885C226.826 174.178 226.633 174.409 226.37 174.577C226.111 174.742 225.81 174.824 225.465 174.824ZM227.408 173.086C227.408 172.584 227.569 172.169 227.891 171.841C228.217 171.513 228.628 171.348 229.122 171.348C229.616 171.348 230.025 171.513 230.346 171.841C230.673 172.169 230.836 172.584 230.836 173.086C230.836 173.592 230.673 174.007 230.346 174.331C230.025 174.659 229.616 174.824 229.122 174.824C228.628 174.824 228.217 174.659 227.891 174.331C227.569 174.003 227.408 173.588 227.408 173.086ZM228.033 173.086C228.033 173.437 228.138 173.721 228.346 173.938C228.555 174.156 228.814 174.264 229.122 174.264C229.431 174.264 229.689 174.156 229.897 173.938C230.106 173.721 230.21 173.437 230.21 173.086C230.21 172.74 230.106 172.458 229.897 172.24C229.684 172.019 229.426 171.908 229.122 171.908C228.818 171.908 228.56 172.019 228.346 172.24C228.138 172.458 228.033 172.74 228.033 173.086ZM233.037 174.264C233.346 174.264 233.598 174.156 233.792 173.938C233.997 173.721 234.099 173.437 234.099 173.086C234.099 172.744 233.997 172.462 233.792 172.24C233.593 172.019 233.341 171.908 233.037 171.908C232.738 171.908 232.486 172.019 232.282 172.24C232.078 172.462 231.976 172.744 231.976 173.086C231.976 173.432 232.078 173.714 232.282 173.931C232.486 174.153 232.738 174.264 233.037 174.264ZM232.935 174.824C232.5 174.824 232.126 174.655 231.813 174.318C231.505 173.976 231.35 173.565 231.35 173.086C231.35 172.607 231.505 172.196 231.813 171.854C232.126 171.517 232.5 171.348 232.935 171.348C233.18 171.348 233.403 171.399 233.602 171.501C233.806 171.604 233.963 171.739 234.071 171.908H234.099L234.071 171.455V169.95H234.697V174.717H234.099V174.264H234.071C233.963 174.433 233.806 174.568 233.602 174.67C233.403 174.773 233.18 174.824 232.935 174.824ZM238.114 173.812C238.114 174.096 237.987 174.335 237.733 174.531C237.48 174.726 237.16 174.824 236.774 174.824C236.439 174.824 236.144 174.739 235.89 174.571C235.636 174.398 235.454 174.171 235.346 173.892L235.903 173.659C235.985 173.854 236.103 174.007 236.257 174.118C236.416 174.224 236.588 174.278 236.774 174.278C236.974 174.278 237.139 174.236 237.271 174.151C237.407 174.067 237.475 173.967 237.475 173.852C237.475 173.643 237.312 173.49 236.985 173.392L236.414 173.252C235.765 173.093 235.441 172.786 235.441 172.334C235.441 172.036 235.563 171.799 235.808 171.621C236.058 171.439 236.375 171.348 236.761 171.348C237.055 171.348 237.321 171.417 237.557 171.555C237.797 171.692 237.965 171.876 238.06 172.107L237.502 172.334C237.439 172.196 237.334 172.09 237.189 172.014C237.048 171.934 236.89 171.894 236.713 171.894C236.55 171.894 236.402 171.934 236.271 172.014C236.144 172.094 236.08 172.192 236.08 172.307C236.08 172.493 236.259 172.627 236.618 172.706L237.121 172.833C237.783 172.993 238.114 173.319 238.114 173.812Z" fill="white"/>
<rect x="29.8334" y="111.598" width="4.41972" height="66.8482" fill="#E6E6E6"/>
<rect opacity="0.3" x="29.2802" y="111.598" width="1.10493" height="66.8482" fill="black"/>
<defs>
<clipPath id="clip0_3013_2167">
<rect width="263.526" height="178.446" fill="white" transform="translate(70.163)"/>
</clipPath>
</defs>
</svg>
