<svg width="36" height="36" viewBox="0 0 36 36" fill="none" xmlns="http://www.w3.org/2000/svg">
<path d="M28.5259 12.9691C26.9157 8.71875 22.813 5.69531 18.0071 5.69531C13.2013 5.69531 9.09854 8.71523 7.48838 12.9656C4.46143 13.7637 2.23253 16.5305 2.2501 19.8141C2.2712 23.4844 5.11885 26.4691 8.70479 26.7891C8.87002 26.8031 9.01065 26.673 9.01065 26.5078V24.3844C9.01065 24.2438 8.90518 24.1242 8.76456 24.1066C7.81534 23.9871 6.91885 23.5723 6.22979 22.8938C5.38604 22.0676 4.92198 20.9566 4.92198 19.7789C4.92198 18.7945 5.2419 17.8664 5.84307 17.093C6.43018 16.3406 7.25635 15.7957 8.1669 15.5566L9.49932 15.2051L9.98799 13.9148C10.2903 13.1133 10.7122 12.3609 11.2431 11.6824C11.7669 11.0074 12.3892 10.4168 13.0853 9.92461C14.5302 8.90859 16.2317 8.3707 18.0071 8.3707C19.7825 8.3707 21.4841 8.90859 22.929 9.92813C23.6286 10.4203 24.2474 11.0109 24.7712 11.6859C25.3021 12.3645 25.7239 13.1168 26.0263 13.9184L26.5114 15.2051L27.8403 15.5566C29.7458 16.0629 31.0782 17.7961 31.0782 19.7754C31.0782 20.9566 30.6142 22.0641 29.7704 22.8902C29.0849 23.5652 28.1919 23.9836 27.2427 24.1031C27.1021 24.1207 27.0001 24.2402 27.0001 24.3809V26.5078C27.0001 26.673 27.1442 26.8031 27.3095 26.7891C30.8849 26.4656 33.7255 23.4844 33.7501 19.8211C33.7712 16.5375 31.5458 13.7707 28.5259 12.9691Z" fill="white"/>
<path d="M13.2503 23.0767C13.3136 21.899 13.8023 20.8021 14.639 19.9619C15.532 19.0654 16.7484 18.5626 18.014 18.5626C19.2867 18.5626 20.4855 19.0583 21.389 19.9619C21.4382 20.0111 21.4839 20.0603 21.5331 20.113L20.6542 20.8021C20.6124 20.8345 20.5805 20.878 20.5623 20.9278C20.544 20.9775 20.5402 21.0313 20.5512 21.0831C20.5622 21.1349 20.5877 21.1825 20.6245 21.2205C20.6614 21.2585 20.7083 21.2853 20.7597 21.2978L24.212 22.1416C24.3878 22.1837 24.5601 22.0501 24.5601 21.8708L24.5777 18.3095C24.5777 18.074 24.3105 17.9404 24.1242 18.088L23.3085 18.7279C22.0218 17.2513 20.1304 16.3162 18.0175 16.3162C14.2417 16.3162 11.162 19.308 11.0074 23.0556C11.0003 23.2138 11.1269 23.3474 11.2886 23.3474H12.9726C13.1202 23.3439 13.2433 23.2279 13.2503 23.0767ZM24.7148 23.3439H23.0308C22.8831 23.3439 22.7601 23.4599 22.7495 23.6111C22.6863 24.7888 22.1976 25.8857 21.3609 26.7259C20.4679 27.6224 19.2515 28.1251 17.9859 28.1251C16.7132 28.1251 15.5144 27.6294 14.6109 26.7259C14.5617 26.6767 14.516 26.6275 14.4667 26.5748L15.3456 25.8857C15.3875 25.8533 15.4194 25.8097 15.4376 25.76C15.4558 25.7103 15.4597 25.6565 15.4486 25.6047C15.4376 25.5529 15.4122 25.5053 15.3753 25.4673C15.3385 25.4293 15.2916 25.4025 15.2402 25.39L11.7878 24.5462C11.612 24.5041 11.4398 24.6376 11.4398 24.8169L11.4257 28.3818C11.4257 28.6173 11.6929 28.7509 11.8792 28.6033L12.6949 27.9634C13.9816 29.44 15.873 30.3751 17.9859 30.3751C21.7617 30.3751 24.8413 27.3833 24.996 23.6357C25.0031 23.4775 24.8765 23.3439 24.7148 23.3439Z" fill="white"/>
</svg>
