<svg width="48" height="48" viewBox="0 0 48 48" fill="none" xmlns="http://www.w3.org/2000/svg">
<circle cx="24" cy="24" r="24" fill="#2B90D9"/>
<path d="M34.5259 18.9691C32.9157 14.7188 28.813 11.6953 24.0071 11.6953C19.2013 11.6953 15.0985 14.7152 13.4884 18.9656C10.4614 19.7637 8.23253 22.5305 8.2501 25.8141C8.2712 29.4844 11.1189 32.4691 14.7048 32.7891C14.87 32.8031 15.0106 32.673 15.0106 32.5078V30.3844C15.0106 30.2438 14.9052 30.1242 14.7646 30.1066C13.8153 29.9871 12.9189 29.5723 12.2298 28.8938C11.386 28.0676 10.922 26.9566 10.922 25.7789C10.922 24.7945 11.2419 23.8664 11.8431 23.093C12.4302 22.3406 13.2564 21.7957 14.1669 21.5566L15.4993 21.2051L15.988 19.9148C16.2903 19.1133 16.7122 18.3609 17.2431 17.6824C17.7669 17.0074 18.3892 16.4168 19.0853 15.9246C20.5302 14.9086 22.2317 14.3707 24.0071 14.3707C25.7825 14.3707 27.4841 14.9086 28.929 15.9281C29.6286 16.4203 30.2474 17.0109 30.7712 17.6859C31.3021 18.3645 31.7239 19.1168 32.0263 19.9184L32.5114 21.2051L33.8403 21.5566C35.7458 22.0629 37.0782 23.7961 37.0782 25.7754C37.0782 26.9566 36.6142 28.0641 35.7704 28.8902C35.0849 29.5652 34.1919 29.9836 33.2427 30.1031C33.1021 30.1207 33.0001 30.2402 33.0001 30.3809V32.5078C33.0001 32.673 33.1442 32.8031 33.3095 32.7891C36.8849 32.4656 39.7255 29.4844 39.7501 25.8211C39.7712 22.5375 37.5458 19.7707 34.5259 18.9691Z" fill="white"/>
<path d="M19.2503 29.0767C19.3136 27.899 19.8023 26.8021 20.639 25.9619C21.532 25.0654 22.7484 24.5626 24.014 24.5626C25.2867 24.5626 26.4855 25.0583 27.389 25.9619C27.4382 26.0111 27.4839 26.0603 27.5331 26.113L26.6542 26.8021C26.6124 26.8345 26.5805 26.878 26.5623 26.9278C26.544 26.9775 26.5402 27.0313 26.5512 27.0831C26.5622 27.1349 26.5877 27.1825 26.6245 27.2205C26.6614 27.2585 26.7083 27.2853 26.7597 27.2978L30.212 28.1416C30.3878 28.1837 30.5601 28.0501 30.5601 27.8708L30.5777 24.3095C30.5777 24.074 30.3105 23.9404 30.1242 24.088L29.3085 24.7279C28.0218 23.2513 26.1304 22.3162 24.0175 22.3162C20.2417 22.3162 17.162 25.308 17.0074 29.0556C17.0003 29.2138 17.1269 29.3474 17.2886 29.3474H18.9726C19.1202 29.3439 19.2433 29.2279 19.2503 29.0767ZM30.7148 29.3439H29.0308C28.8831 29.3439 28.7601 29.4599 28.7495 29.6111C28.6863 30.7888 28.1976 31.8857 27.3609 32.7259C26.4679 33.6224 25.2515 34.1251 23.9859 34.1251C22.7132 34.1251 21.5144 33.6294 20.6109 32.7259C20.5617 32.6767 20.516 32.6275 20.4667 32.5748L21.3456 31.8857C21.3875 31.8533 21.4194 31.8097 21.4376 31.76C21.4558 31.7103 21.4597 31.6565 21.4486 31.6047C21.4376 31.5529 21.4122 31.5053 21.3753 31.4673C21.3385 31.4293 21.2916 31.4025 21.2402 31.39L17.7878 30.5462C17.612 30.5041 17.4398 30.6376 17.4398 30.8169L17.4257 34.3818C17.4257 34.6173 17.6929 34.7509 17.8792 34.6033L18.6949 33.9634C19.9816 35.44 21.873 36.3751 23.9859 36.3751C27.7617 36.3751 30.8413 33.3833 30.996 29.6357C31.0031 29.4775 30.8765 29.3439 30.7148 29.3439Z" fill="white"/>
</svg>
