<svg width="48" height="48" viewBox="0 0 48 48" fill="none" xmlns="http://www.w3.org/2000/svg">
<circle cx="24" cy="24" r="24" fill="#2B90D9"/>
<path fill-rule="evenodd" clip-rule="evenodd" d="M21.3764 32.0279L30.1628 20.6654C30.6403 20.0527 30.8101 19.3443 30.6509 18.623C30.513 17.9673 30.1097 17.3438 29.5049 16.8708L28.0299 15.6991C26.7459 14.6778 25.1541 14.7853 24.2415 15.9571L23.2546 17.2373C23.1273 17.3975 23.1591 17.634 23.3183 17.763C23.3183 17.763 25.812 19.7625 25.8651 19.8055C26.0349 19.9667 26.1622 20.1817 26.1941 20.4397C26.2471 20.9449 25.8969 21.4179 25.377 21.4824C25.1329 21.5147 24.8994 21.4394 24.7297 21.2997L22.1086 19.2142C21.9813 19.1186 21.7902 19.139 21.6841 19.268L15.4551 27.3303C15.0519 27.8355 14.9139 28.4912 15.0519 29.1255L15.8478 32.5761C15.8902 32.7589 16.0494 32.8879 16.2404 32.8879L19.7422 32.8449C20.3789 32.8341 20.9732 32.5439 21.3764 32.0279ZM26.2797 30.9533H31.9898C32.5469 30.9533 33 31.4123 33 31.9766C33 32.5421 32.5469 33 31.9898 33H26.2797C25.7226 33 25.2695 32.5421 25.2695 31.9766C25.2695 31.4123 25.7226 30.9533 26.2797 30.9533Z" fill="white"/>
</svg>
