<svg width="48" height="48" viewBox="0 0 48 48" fill="none" xmlns="http://www.w3.org/2000/svg">
<circle cx="24" cy="24" r="24" fill="#DF2C2C"/>
<path d="M23.9066 26.6251C24.6028 26.6251 25.2705 26.3485 25.7628 25.8562C26.2551 25.3639 26.5316 24.6963 26.5316 24.0001C26.5316 23.9232 26.5281 23.847 26.5216 23.7718L23.6783 26.615C23.7536 26.6216 23.8295 26.6251 23.9066 26.6251ZM32.5954 15.8804L31.5941 14.8801C31.559 14.8449 31.5113 14.8252 31.4616 14.8252C31.4119 14.8252 31.3642 14.8449 31.3291 14.8801L28.7669 17.443C27.3534 16.7206 25.7646 16.3594 24.0004 16.3594C19.4957 16.3594 16.1348 18.7055 13.9176 23.3977C13.8284 23.5864 13.7822 23.7925 13.7822 24.0012C13.7822 24.2099 13.8284 24.416 13.9176 24.6048C14.8035 26.4708 15.8703 27.9666 17.118 29.0919L14.6385 31.5704C14.6034 31.6055 14.5836 31.6532 14.5836 31.7029C14.5836 31.7526 14.6034 31.8003 14.6385 31.8355L15.6391 32.836C15.6742 32.8711 15.7219 32.8909 15.7716 32.8909C15.8213 32.8909 15.869 32.8711 15.9041 32.836L32.5954 16.1457C32.6128 16.1283 32.6266 16.1076 32.6361 16.0848C32.6455 16.0621 32.6504 16.0377 32.6504 16.013C32.6504 15.9884 32.6455 15.964 32.6361 15.9412C32.6266 15.9185 32.6128 15.8978 32.5954 15.8804ZM19.7816 24.0001C19.7816 23.2876 19.966 22.5872 20.3171 21.9672C20.6682 21.3472 21.1738 20.8287 21.7848 20.4622C22.3958 20.0958 23.0913 19.8938 23.8036 19.876C24.5159 19.8582 25.2206 20.0252 25.8491 20.3607L24.7096 21.5002C24.25 21.3531 23.7588 21.3354 23.2898 21.449C22.8209 21.5627 22.3923 21.8033 22.0511 22.1445C21.7098 22.4857 21.4692 22.9143 21.3556 23.3833C21.2419 23.8523 21.2596 24.3435 21.4068 24.803L20.2673 25.9426C19.9475 25.3451 19.7806 24.6777 19.7816 24.0001Z" fill="white"/>
<path d="M34.083 23.3954C33.258 21.6579 32.2761 20.2411 31.1372 19.145L27.7589 22.5235C28.0437 23.2679 28.1068 24.0789 27.9406 24.8584C27.7745 25.6379 27.3862 26.3526 26.8226 26.9162C26.259 27.4798 25.5443 27.8681 24.7648 28.0343C23.9853 28.2004 23.1743 28.1373 22.4299 27.8525L19.5645 30.718C20.8938 31.3331 22.3724 31.6407 24.0002 31.6407C28.5049 31.6407 31.8659 29.2946 34.083 24.6024C34.1722 24.4137 34.2184 24.2076 34.2184 23.9989C34.2184 23.7902 34.1722 23.5841 34.083 23.3954Z" fill="white"/>
</svg>
