<svg width="24" height="19" viewBox="0 0 24 19" fill="none" xmlns="http://www.w3.org/2000/svg">
<path fill-rule="evenodd" clip-rule="evenodd" d="M3.50847 5.49934C3.50867 4.55126 3.75394 3.61932 4.22049 2.79397C4.68704 1.96862 5.35901 1.27789 6.17121 0.788807C6.98341 0.299722 7.90824 0.0288937 8.85596 0.00260366C9.80368 -0.0236864 10.7421 0.195455 11.5802 0.638761C12.4182 1.08207 13.1275 1.73448 13.639 2.5327C14.1506 3.33091 14.4472 4.24782 14.5 5.19444C14.5527 6.14105 14.3599 7.08523 13.9402 7.93535C13.5204 8.78547 12.8881 9.51266 12.1045 10.0463C13.792 10.6653 15.2556 11.7751 16.3071 13.2328C17.3586 14.6906 17.9497 16.4297 18.0045 18.2263C18.0074 18.3248 17.991 18.4229 17.956 18.5151C17.921 18.6072 17.8683 18.6915 17.8007 18.7633C17.6643 18.9081 17.4759 18.9929 17.277 18.9988C17.0781 19.0048 16.8849 18.9315 16.7401 18.7951C16.5952 18.6586 16.5104 18.4703 16.5045 18.2713C16.4449 16.3228 15.629 14.474 14.2296 13.1168C12.8303 11.7595 10.9574 11.0004 9.00797 11.0004C7.05852 11.0004 5.18567 11.7595 3.7863 13.1168C2.38693 14.474 1.57102 16.3228 1.51147 18.2713C1.50146 18.4672 1.41515 18.6513 1.27103 18.7843C1.12691 18.9172 0.936451 18.9885 0.740446 18.9827C0.544441 18.977 0.358485 18.8947 0.222414 18.7535C0.0863432 18.6123 0.0109813 18.4234 0.0124729 18.2273C0.0670242 16.4306 0.65808 14.6913 1.70956 13.2333C2.76104 11.7753 4.22481 10.6653 5.91247 10.0463C5.17118 9.5421 4.56455 8.86412 4.14551 8.07154C3.72648 7.27896 3.50777 6.39587 3.50847 5.49934V5.49934ZM9.00847 1.49934C7.94761 1.49934 6.93019 1.92077 6.18005 2.67091C5.4299 3.42106 5.00847 4.43848 5.00847 5.49934C5.00847 6.56021 5.4299 7.57762 6.18005 8.32777C6.93019 9.07791 7.94761 9.49934 9.00847 9.49934C10.0693 9.49934 11.0868 9.07791 11.8369 8.32777C12.587 7.57762 13.0085 6.56021 13.0085 5.49934C13.0085 4.43848 12.587 3.42106 11.8369 2.67091C11.0868 1.92077 10.0693 1.49934 9.00847 1.49934Z" fill="#2B90D9"/>
<path d="M17.2975 5.49965C17.1495 5.49965 17.0055 5.50965 16.8635 5.52965C16.7644 5.5474 16.6627 5.545 16.5645 5.52259C16.4663 5.50019 16.3736 5.45823 16.292 5.39923C16.2104 5.34023 16.1414 5.2654 16.0894 5.17919C16.0373 5.09298 16.0031 4.99716 15.9889 4.89745C15.9746 4.79775 15.9806 4.69619 16.0065 4.59885C16.0323 4.50151 16.0775 4.41037 16.1394 4.33087C16.2012 4.25138 16.2784 4.18515 16.3664 4.13615C16.4544 4.08714 16.5514 4.05636 16.6515 4.04565C17.6461 3.90185 18.6602 4.09284 19.5344 4.58857C20.4085 5.0843 21.093 5.85661 21.4801 6.78397C21.8672 7.71133 21.935 8.74109 21.6728 9.71119C21.4105 10.6813 20.8331 11.5366 20.0315 12.1426C21.2099 12.6703 22.2104 13.5276 22.9124 14.6113C23.6143 15.6949 23.9877 16.9585 23.9875 18.2496C23.9875 18.4486 23.9085 18.6393 23.7678 18.78C23.6272 18.9206 23.4364 18.9996 23.2375 18.9996C23.0386 18.9996 22.8478 18.9206 22.7072 18.78C22.5665 18.6393 22.4875 18.4486 22.4875 18.2496C22.4874 17.1338 22.1279 16.0477 21.4622 15.1521C20.7965 14.2566 19.86 13.5993 18.7915 13.2776L18.2575 13.1176V11.4416L18.6675 11.2326C19.2753 10.9248 19.7615 10.4211 20.0478 9.80289C20.3341 9.18468 20.4037 8.48803 20.2453 7.82541C20.087 7.16278 19.71 6.57286 19.1751 6.15087C18.6403 5.72889 17.9788 5.49947 17.2975 5.49965Z" fill="#2B90D9"/>
</svg>
