<svg width="24" height="25" viewBox="0 0 24 25" fill="none" xmlns="http://www.w3.org/2000/svg">
<path fill-rule="evenodd" clip-rule="evenodd" d="M12.0002 2C7.95002 2 4.30025 4.62465 4.30025 8.13953V12.7841C4.30025 13.4407 4.09127 14.0827 3.69966 14.629L1.27968 18.0047C1.11224 18.2388 1.01623 18.5107 1.00188 18.7916C0.987537 19.0724 1.0554 19.3516 1.19823 19.5994C1.34106 19.8471 1.5535 20.0542 1.8129 20.1985C2.0723 20.3428 2.36894 20.4188 2.67117 20.4186H8.15022C8.15022 20.8889 8.2498 21.3546 8.44328 21.7891C8.63676 22.2237 8.92035 22.6185 9.27785 22.951C9.63535 23.2836 10.0598 23.5474 10.5269 23.7274C10.994 23.9074 11.4946 24 12.0002 24C12.5058 24 13.0064 23.9074 13.4735 23.7274C13.9406 23.5474 14.365 23.2836 14.7225 22.951C15.08 22.6185 15.3636 22.2237 15.5571 21.7891C15.7506 21.3546 15.8501 20.8889 15.8501 20.4186H21.3303C21.6325 20.4186 21.9291 20.3423 22.1883 20.1978C22.4476 20.0533 22.6598 19.8461 22.8024 19.5982C22.945 19.3504 23.0126 19.0711 22.9981 18.7903C22.9835 18.5095 22.8872 18.2376 22.7196 18.0037L20.2996 14.629C19.9084 14.0826 19.6998 13.4406 19.7001 12.7841V8.13953C19.7001 4.62465 16.0492 2 12.0002 2ZM5.95024 8.13953C5.95024 5.72056 8.57152 3.53488 12.0002 3.53488C15.4289 3.53488 18.0501 5.72056 18.0501 8.13953V12.7841C18.0501 13.7439 18.3559 14.6812 18.9279 15.4804L21.3468 18.8561C21.349 18.8591 21.3502 18.8627 21.3501 18.8663L21.349 18.8725L21.3446 18.8786L21.338 18.8827L21.3303 18.8837H2.67007L2.66237 18.8827L2.65577 18.8786L2.65137 18.8725L2.65027 18.8653L2.65357 18.8551L5.07355 15.4804C5.64548 14.6818 5.95053 13.7437 5.95024 12.7841V8.13953ZM14.2002 20.4186H9.8002C9.8002 20.9614 10.032 21.4819 10.4446 21.8657C10.8571 22.2495 11.4167 22.4651 12.0002 22.4651C12.5837 22.4651 13.1432 22.2495 13.5558 21.8657C13.9684 21.4819 14.2002 20.9614 14.2002 20.4186Z" fill="black" fill-opacity="0.87"/>
</svg>
