<svg width="24" height="24" viewBox="0 0 24 24" fill="none" xmlns="http://www.w3.org/2000/svg">
<path d="M10.0335 19.52C10.5775 19.4063 13.8924 19.4063 14.4365 19.52C14.9015 19.6261 15.4045 19.874 15.4045 20.4154C15.3774 20.9308 15.0713 21.3877 14.6485 21.6778C14.1001 22.1001 13.4566 22.3675 12.7839 22.4639C12.4118 22.5115 12.0462 22.5126 11.6872 22.4639C11.0133 22.3675 10.3698 22.1001 9.82256 21.6767C9.39859 21.3877 9.09251 20.9308 9.06547 20.4154C9.06547 19.874 9.56839 19.6261 10.0335 19.52ZM12.2992 1C14.5629 1 16.8753 2.06105 18.2488 3.82151C19.14 4.9551 19.5489 6.0876 19.5489 7.84807V8.30606C19.5489 9.65618 19.9101 10.452 20.7051 11.369C21.3075 12.0446 21.5 12.9119 21.5 13.8527C21.5 14.7925 21.1874 15.6847 20.5612 16.409C19.7414 17.2773 18.5852 17.8316 17.4052 17.928C15.6953 18.072 13.9843 18.1933 12.2505 18.1933C10.5157 18.1933 8.80579 18.1207 7.09585 17.928C5.91479 17.8316 4.75861 17.2773 3.93987 16.409C3.31365 15.6847 3 14.7925 3 13.8527C3 12.9119 3.1936 12.0446 3.79494 11.369C4.61476 10.452 4.95221 9.65618 4.95221 8.30606V7.84807C4.95221 6.03997 5.40862 4.85766 6.34849 3.70025C7.74586 2.01232 9.98576 1 12.2019 1H12.2992Z" fill="#0099FF"/>
</svg>
