<svg width="24" height="24" viewBox="0 0 24 24" fill="none" xmlns="http://www.w3.org/2000/svg">
<path fill-rule="evenodd" clip-rule="evenodd" d="M10.8144 1.41717C11.1457 1.14783 11.5658 1 12 1C12.4342 1 12.8543 1.14783 13.1856 1.41717L22.3522 8.87679C22.5552 9.04185 22.7183 9.24731 22.8302 9.47891C22.942 9.71051 23 9.9627 23 10.2179V21.2415C23 21.7079 22.8068 22.1552 22.463 22.4849C22.1192 22.8147 21.6529 23 21.1667 23H14.1389C13.8958 23 13.6626 22.9074 13.4907 22.7425C13.3188 22.5776 13.2222 22.3539 13.2222 22.1207V14.7936H10.7778V22.1207C10.7778 22.3539 10.6812 22.5776 10.5093 22.7425C10.3374 22.9074 10.1042 23 9.86111 23H2.83333C2.3471 23 1.88079 22.8147 1.53697 22.4849C1.19315 22.1552 1 21.7079 1 21.2415V10.2179C1 9.70212 1.23711 9.2109 1.64778 8.87679L10.8144 1.41717ZM12 2.75833L2.83333 10.2179V21.2415H8.94444V13.9143C8.94444 13.6811 9.04102 13.4575 9.21293 13.2926C9.38484 13.1277 9.618 13.0351 9.86111 13.0351H14.1389C14.382 13.0351 14.6152 13.1277 14.7871 13.2926C14.959 13.4575 15.0556 13.6811 15.0556 13.9143V21.2415H21.1667V10.2179L12 2.75833Z" fill="black" fill-opacity="0.87"/>
</svg>
