<svg width="24" height="24" viewBox="0 0 24 24" fill="none" xmlns="http://www.w3.org/2000/svg">
<path d="M9.15858 21.1907V17.9021C9.15858 17.0627 9.84629 16.3821 10.6946 16.3821H13.7957C14.2031 16.3821 14.5938 16.5423 14.8819 16.8273C15.1699 17.1124 15.3318 17.499 15.3318 17.9021V21.1907C15.3292 21.5397 15.4675 21.8753 15.716 22.123C15.9645 22.3707 16.3026 22.51 16.6553 22.51H18.771C19.7591 22.5125 20.7076 22.1259 21.4072 21.4354C22.1068 20.7448 22.5 19.8072 22.5 18.8294V9.4608C22.5 8.67096 22.1462 7.92174 21.5339 7.415L14.3367 1.7269C13.0847 0.729578 11.2909 0.761779 10.0763 1.80338L3.04336 7.415C2.40217 7.90681 2.01894 8.65824 2 9.4608V18.8199C2 20.8579 3.66954 22.51 5.72903 22.51H7.79642C8.52896 22.51 9.12429 21.9251 9.12959 21.2003L9.15858 21.1907Z" fill="#0099FF"/>
</svg>
