<svg width="25" height="25" viewBox="0 0 25 25" fill="none" xmlns="http://www.w3.org/2000/svg">
<g clip-path="url(#clip0_3091_3022)">
<path fill-rule="evenodd" clip-rule="evenodd" d="M3.75106 8.49983C3.75126 7.55174 3.99653 6.61981 4.46308 5.79446C4.92963 4.96911 5.6016 4.27838 6.4138 3.7893C7.22599 3.30021 8.15083 3.02938 9.09855 3.00309C10.0463 2.9768 10.9847 3.19594 11.8228 3.63925C12.6608 4.08256 13.3701 4.73497 13.8816 5.53319C14.3932 6.3314 14.6898 7.24831 14.7425 8.19492C14.7953 9.14154 14.6025 10.0857 14.1827 10.9358C13.763 11.786 13.1307 12.5131 12.3471 13.0468C14.0346 13.6658 15.4982 14.7755 16.5497 16.2333C17.6012 17.6911 18.1923 19.4302 18.2471 21.2268C18.25 21.3253 18.2335 21.4234 18.1986 21.5156C18.1636 21.6077 18.1109 21.692 18.0433 21.7638C17.9069 21.9086 17.7185 21.9934 17.5196 21.9993C17.3206 22.0053 17.1275 21.932 16.9826 21.7956C16.8378 21.6591 16.753 21.4707 16.7471 21.2718C16.6875 19.3233 15.8716 17.4745 14.4722 16.1172C13.0729 14.76 11.2 14.0009 9.25056 14.0009C7.30111 14.0009 5.42826 14.76 4.02889 16.1172C2.62952 17.4745 1.81361 19.3233 1.75406 21.2718C1.74405 21.4677 1.65774 21.6518 1.51362 21.7848C1.3695 21.9177 1.17904 21.989 0.983034 21.9832C0.787029 21.9775 0.601073 21.8952 0.465002 21.754C0.328931 21.6128 0.253569 21.4239 0.255061 21.2278C0.309612 19.4311 0.900668 17.6917 1.95215 16.2337C3.00363 14.7758 4.4674 13.6658 6.15506 13.0468C5.41377 12.5426 4.80714 11.8646 4.3881 11.072C3.96906 10.2794 3.75036 9.39636 3.75106 8.49983ZM9.25106 4.49983C8.19019 4.49983 7.17278 4.92126 6.42263 5.6714C5.67249 6.42155 5.25106 7.43896 5.25106 8.49983C5.25106 9.5607 5.67249 10.5781 6.42263 11.3283C7.17278 12.0784 8.19019 12.4998 9.25106 12.4998C10.3119 12.4998 11.3293 12.0784 12.0795 11.3283C12.8296 10.5781 13.2511 9.5607 13.2511 8.49983C13.2511 7.43896 12.8296 6.42155 12.0795 5.6714C11.3293 4.92126 10.3119 4.49983 9.25106 4.49983Z" fill="black" fill-opacity="0.87"/>
<path d="M17.54 8.49965C17.392 8.49965 17.248 8.50965 17.106 8.52965C17.0069 8.5474 16.9052 8.545 16.807 8.52259C16.7088 8.50019 16.6161 8.45823 16.5345 8.39923C16.4529 8.34023 16.384 8.2654 16.3319 8.17919C16.2798 8.09298 16.2456 7.99716 16.2314 7.89745C16.2171 7.79775 16.2231 7.69619 16.249 7.59885C16.2748 7.50151 16.32 7.41037 16.3819 7.33087C16.4437 7.25138 16.5209 7.18515 16.6089 7.13615C16.6969 7.08714 16.7939 7.05636 16.894 7.04565C17.8886 6.90185 18.9028 7.09284 19.7769 7.58857C20.651 8.0843 21.3355 8.85661 21.7226 9.78397C22.1097 10.7113 22.1775 11.7411 21.9153 12.7112C21.653 13.6813 21.0757 14.5366 20.274 15.1426C21.4524 15.6703 22.4529 16.5276 23.1549 17.6113C23.8569 18.6949 24.2302 19.9585 24.23 21.2496C24.23 21.4486 24.151 21.6393 24.0104 21.78C23.8697 21.9206 23.6789 21.9996 23.48 21.9996C23.2811 21.9996 23.0903 21.9206 22.9497 21.78C22.809 21.6393 22.73 21.4486 22.73 21.2496C22.7299 20.1338 22.3704 19.0477 21.7047 18.1521C21.039 17.2566 20.1025 16.5993 19.034 16.2776L18.5 16.1176V14.4416L18.91 14.2326C19.5178 13.9248 20.0041 13.4211 20.2903 12.8029C20.5766 12.1847 20.6462 11.488 20.4879 10.8254C20.3295 10.1628 19.9525 9.57286 19.4176 9.15087C18.8828 8.72889 18.2213 8.49947 17.54 8.49965Z" fill="black" fill-opacity="0.87"/>
</g>
<defs>
<clipPath id="clip0_3091_3022">
<rect width="24" height="24" fill="white" transform="translate(0.25 0.5)"/>
</clipPath>
</defs>
</svg>
