<svg width="24" height="24" viewBox="0 0 24 24" fill="none" xmlns="http://www.w3.org/2000/svg">
<path d="M11.8346 15.06C15.2299 15.06 18.129 15.6308 18.129 17.9151C18.129 20.1984 15.2485 20.79 11.8346 20.79C8.43925 20.79 5.54012 20.2192 5.54012 17.9359C5.54012 15.6516 8.42064 15.06 11.8346 15.06ZM17.2633 13.6846C18.5613 13.659 19.9568 13.8481 20.4725 13.9823C21.565 14.21 22.2836 14.675 22.5813 15.3507C22.8329 15.9055 22.8329 16.5491 22.5813 17.1029C22.1258 18.151 20.6577 18.4874 20.0871 18.5744C19.9692 18.5933 19.8744 18.4846 19.8868 18.3589C20.1783 15.4547 17.8596 14.0777 17.2597 13.7611C17.234 13.7469 17.2287 13.7252 17.2314 13.712C17.2331 13.7025 17.2438 13.6874 17.2633 13.6846ZM6.26298 13.6826L6.50741 13.6849C6.52691 13.6878 6.53665 13.7029 6.53843 13.7114C6.54108 13.7256 6.53577 13.7464 6.51096 13.7615C5.91022 14.0781 3.59145 15.4551 3.88296 18.3583C3.89536 18.485 3.80144 18.5927 3.6836 18.5747C3.11299 18.4878 1.64482 18.1514 1.18939 17.1033C0.93687 16.5485 0.93687 15.9059 1.18939 15.3511C1.4871 14.6754 2.2048 14.2104 3.29728 13.9817C3.81385 13.8484 5.20848 13.6594 6.50741 13.6849L6.26298 13.6826ZM11.8346 4C14.1462 4 15.9998 5.97521 15.9998 8.44185C15.9998 10.9075 14.1462 12.8846 11.8346 12.8846C9.52288 12.8846 7.66928 10.9075 7.66928 8.44185C7.66928 5.97521 9.52288 4 11.8346 4ZM17.4892 4.74075C19.722 4.74075 21.4755 6.98152 20.8783 9.47746C20.4752 11.1578 19.0158 12.2739 17.39 12.2286C17.2269 12.2238 17.0665 12.2078 16.9115 12.1794C16.799 12.1586 16.7423 12.0235 16.8061 11.9233C17.4263 10.9499 17.7798 9.77894 17.7798 8.52199C17.7798 7.21023 17.3935 5.9873 16.7228 4.98458C16.7015 4.95339 16.6856 4.90519 16.7068 4.86928C16.7245 4.83998 16.7573 4.82486 16.7883 4.8173C17.0143 4.76816 17.2464 4.74075 17.4892 4.74075ZM6.28014 4.74065C6.52292 4.74065 6.75506 4.76806 6.98189 4.81721C7.01201 4.82477 7.04568 4.84083 7.06341 4.86918C7.08378 4.9051 7.06872 4.9533 7.04746 4.98448C6.37672 5.98721 5.99041 7.21013 5.99041 8.5219C5.99041 9.77885 6.34394 10.9498 6.96417 11.9232C7.02796 12.0234 6.97126 12.1585 6.85873 12.1793C6.70279 12.2086 6.5433 12.2238 6.38027 12.2285C4.75438 12.2738 3.29507 11.1577 2.89192 9.47737C2.29384 6.98143 4.04732 4.74065 6.28014 4.74065Z" fill="#2B90D9"/>
</svg>
