<svg width="24" height="19" viewBox="0 0 24 19" fill="none" xmlns="http://www.w3.org/2000/svg">
<path fill-rule="evenodd" clip-rule="evenodd" d="M3.50847 5.49885C3.50867 4.55077 3.75394 3.61883 4.22049 2.79348C4.68704 1.96814 5.35901 1.2774 6.17121 0.788319C6.98341 0.299234 7.90824 0.0284054 8.85596 0.00211538C9.80368 -0.0241747 10.7421 0.194966 11.5802 0.638273C12.4182 1.08158 13.1275 1.734 13.639 2.53221C14.1506 3.33043 14.4472 4.24733 14.5 5.19395C14.5527 6.14056 14.3599 7.08474 13.9402 7.93486C13.5204 8.78498 12.8881 9.51217 12.1045 10.0459C13.792 10.6648 15.2556 11.7746 16.3071 13.2324C17.3586 14.6902 17.9497 16.4293 18.0045 18.2259C18.0074 18.3243 17.991 18.4225 17.956 18.5146C17.921 18.6067 17.8683 18.691 17.8007 18.7628C17.6643 18.9076 17.4759 18.9924 17.277 18.9984C17.0781 19.0043 16.8849 18.931 16.7401 18.7946C16.5952 18.6582 16.5104 18.4698 16.5045 18.2709C16.4449 16.3223 15.629 14.4735 14.2296 13.1163C12.8303 11.759 10.9574 11 9.00797 11C7.05852 11 5.18567 11.759 3.7863 13.1163C2.38693 14.4735 1.57102 16.3223 1.51147 18.2709C1.50146 18.4667 1.41515 18.6508 1.27103 18.7838C1.12691 18.9167 0.936451 18.988 0.740446 18.9822C0.544441 18.9765 0.358485 18.8942 0.222414 18.753C0.0863432 18.6118 0.0109813 18.4229 0.0124729 18.2269C0.0670242 16.4301 0.65808 14.6908 1.70956 13.2328C2.76104 11.7748 4.22481 10.6649 5.91247 10.0459C5.17118 9.54162 4.56455 8.86363 4.14551 8.07105C3.72648 7.27847 3.50777 6.39539 3.50847 5.49885ZM9.00847 1.49885C7.94761 1.49885 6.93019 1.92028 6.18005 2.67043C5.4299 3.42057 5.00847 4.43799 5.00847 5.49885C5.00847 6.55972 5.4299 7.57714 6.18005 8.32728C6.93019 9.07743 7.94761 9.49885 9.00847 9.49885C10.0693 9.49885 11.0868 9.07743 11.8369 8.32728C12.587 7.57714 13.0085 6.55972 13.0085 5.49885C13.0085 4.43799 12.587 3.42057 11.8369 2.67043C11.0868 1.92028 10.0693 1.49885 9.00847 1.49885Z" fill="#2B90D9"/>
<path d="M17.2975 5.49867C17.1495 5.49867 17.0055 5.50867 16.8635 5.52867C16.7644 5.54642 16.6627 5.54402 16.5645 5.52162C16.4663 5.49921 16.3736 5.45726 16.292 5.39826C16.2104 5.33926 16.1414 5.26442 16.0894 5.17821C16.0373 5.092 16.0031 4.99618 15.9889 4.89648C15.9746 4.79677 15.9806 4.69522 16.0065 4.59788C16.0323 4.50053 16.0775 4.40939 16.1394 4.3299C16.2012 4.2504 16.2784 4.18418 16.3664 4.13517C16.4544 4.08617 16.5514 4.05539 16.6515 4.04467C17.6461 3.90087 18.6602 4.09187 19.5344 4.58759C20.4085 5.08332 21.093 5.85564 21.4801 6.783C21.8672 7.71036 21.935 8.74011 21.6728 9.71021C21.4105 10.6803 20.8331 11.5357 20.0315 12.1417C21.2099 12.6693 22.2104 13.5267 22.9124 14.6103C23.6143 15.6939 23.9877 16.9575 23.9875 18.2487C23.9875 18.4476 23.9085 18.6383 23.7678 18.779C23.6272 18.9197 23.4364 18.9987 23.2375 18.9987C23.0386 18.9987 22.8478 18.9197 22.7072 18.779C22.5665 18.6383 22.4875 18.4476 22.4875 18.2487C22.4874 17.1328 22.1279 16.0467 21.4622 15.1512C20.7965 14.2556 19.86 13.5983 18.7915 13.2767L18.2575 13.1167V11.4407L18.6675 11.2317C19.2753 10.9238 19.7615 10.4201 20.0478 9.80191C20.3341 9.1837 20.4037 8.48705 20.2453 7.82443C20.087 7.16181 19.71 6.57188 19.1751 6.1499C18.6403 5.72791 17.9788 5.49849 17.2975 5.49867Z" fill="#2B90D9"/>
</svg>
